<svg xmlns="http://www.w3.org/2000/svg" xmlns:xlink="http://www.w3.org/1999/xlink" xmlns:s="https://github.com/nturley/netlistsvg" width="743" height="1082">
  <style>svg {
    stroke: #000;
    fill: none;
  }
  text {
    fill: #000;
    stroke: none;
    font-size: 10px;
    font-weight: bold;
    font-family: "Courier New", monospace;
  }
  .nodelabel {
    text-anchor: middle;
  }
  .inputPortLabel {
    text-anchor: end;
  }
  .splitjoinBody {
    fill: #000;
  }
  .symbol {
    stroke-linejoin: round;
    stroke-linecap: round;
    stroke-width: 2;
  }
  .detail {
    stroke-linejoin: round;
    stroke-linecap: round;
    fill: #000;
  }
</style>
  <g s:type="gnd" s:width="20" s:height="30" transform="translate(18,244)" id="cell_gnd_1">
    <s:alias val="gnd"/>
    <text x="30" y="20" class="nodelabel cell_gnd_1" s:attribute="name">GND</text>
    <path d="M0,0 H20 M3,5 H17 M7,10 H13 M10,0 V-15" class="cell_gnd_1"/>
    <g s:x="10" s:y="-15" s:pid="A" s:position="top"/>
  </g>
  <g s:type="voltage_source" s:width="32" s:height="52" transform="translate(12,127)" id="cell_VIN">
    <s:alias val="v"/>
    <text x="35" y="20" s:attribute="ref" class="cell_VIN">VIN</text>
    <text x="35" y="35" s:attribute="value" class="cell_VIN">1</text>
    <circle cx="16" cy="26" r="16" class="symbol cell_VIN"/>
    <path d="M12,22 H20 M16,18 V26" class="detail cell_VIN"/>
    <path d="M12,33 H20" class="detail cell_VIN"/>
    <path d="M16,0 V10 M16,42 V52" class="connect cell_VIN"/>
    <g s:x="16" s:y="0" s:pid="+" s:position="top"/>
    <g s:x="16" s:y="52" s:pid="-" s:position="bottom"/>
  </g>
  <g s:type="resistor_v" s:width="10" s:height="50" transform="translate(258,803)" id="cell_RF">
    <s:alias val="r_v"/>
    <text x="15" y="15" s:attribute="ref" class="cell_RF">RF</text>
    <text x="15" y="30" s:attribute="value" class="cell_RF">22k</text>
    <path d="M0,10 V40 H10 V10 Z" class="symbol cell_RF"/>
    <path d="M5,0 V10 M5,40 V50" class="connect cell_RF"/>
    <g s:x="5" s:y="0" s:pid="A" s:position="top"/>
    <g s:x="5" s:y="50" s:pid="B" s:position="bottom"/>
  </g>
  <g s:type="gnd" s:width="20" s:height="30" transform="translate(253,1040)" id="cell_gnd_2">
    <s:alias val="gnd"/>
    <text x="30" y="20" class="nodelabel cell_gnd_2" s:attribute="name">GND</text>
    <path d="M0,0 H20 M3,5 H17 M7,10 H13 M10,0 V-15" class="cell_gnd_2"/>
    <g s:x="10" s:y="-15" s:pid="A" s:position="top"/>
  </g>
  <g s:type="resistor_v" s:width="10" s:height="50" transform="translate(258,954)" id="cell_RG">
    <s:alias val="r_v"/>
    <text x="15" y="15" s:attribute="ref" class="cell_RG">RG</text>
    <text x="15" y="30" s:attribute="value" class="cell_RG">1k</text>
    <path d="M0,10 V40 H10 V10 Z" class="symbol cell_RG"/>
    <path d="M5,0 V10 M5,40 V50" class="connect cell_RG"/>
    <g s:x="5" s:y="0" s:pid="A" s:position="top"/>
    <g s:x="5" s:y="50" s:pid="B" s:position="bottom"/>
  </g>
  <g s:type="resistor_v" s:width="10" s:height="50" transform="translate(79,128)" id="cell_RIN">
    <s:alias val="r_v"/>
    <text x="15" y="15" s:attribute="ref" class="cell_RIN">RIN</text>
    <text x="15" y="30" s:attribute="value" class="cell_RIN">1k</text>
    <path d="M0,10 V40 H10 V10 Z" class="symbol cell_RIN"/>
    <path d="M5,0 V10 M5,40 V50" class="connect cell_RIN"/>
    <g s:x="5" s:y="0" s:pid="A" s:position="top"/>
    <g s:x="5" s:y="50" s:pid="B" s:position="bottom"/>
  </g>
  <g s:type="transistor_npn" s:width="32" s:height="32" transform="translate(273,882)" id="cell_Q2">
    <s:alias val="q_npn"/>
    <text x="35" y="10" s:attribute="ref" class="cell_Q2">Q2</text>
    <text x="35" y="25" s:attribute="value" class="cell_Q2">QNPN</text>
    <circle r="16" cx="16" cy="16" class="symbol cell_Q2"/>
    <path d="M0,16 H20 M20,6 V26" class="detail cell_Q2"/>
    <path d="m20,10 -11,-8" class="detail cell_Q2"/>
    <path d="m20,21 -11,8" class="detail cell_Q2"/>
    <path d="m9,29 6,-1 -3,-5 z" style="fill:#000" class="cell_Q2"/>
    <g s:x="22" s:y="2" s:pid="C" s:position="top"/>
    <g s:x="0" s:y="16" s:pid="B" s:position="left"/>
    <g s:x="23" s:y="29" s:pid="E" s:position="bottom"/>
  </g>
  <g s:type="transistor_npn" s:width="32" s:height="32" transform="translate(95,238)" id="cell_Q1">
    <s:alias val="q_npn"/>
    <text x="35" y="10" s:attribute="ref" class="cell_Q1">Q1</text>
    <text x="35" y="25" s:attribute="value" class="cell_Q1">QNPN</text>
    <circle r="16" cx="16" cy="16" class="symbol cell_Q1"/>
    <path d="M0,16 H12 M12,6 V26" class="detail cell_Q1"/>
    <path d="m12,10 11,-8" class="detail cell_Q1"/>
    <path d="m12,21 11,8" class="detail cell_Q1"/>
    <path d="m23,29 -6,-1 3,-5 z" style="fill:#000" class="cell_Q1"/>
    <g s:x="22" s:y="2" s:pid="C" s:position="top"/>
    <g s:x="0" s:y="16" s:pid="B" s:position="left"/>
    <g s:x="23" s:y="29" s:pid="E" s:position="bottom"/>
  </g>
  <g s:type="vee" s:width="20" s:height="30" transform="translate(108,1040)" id="cell_vee_3">
    <s:alias val="vee"/>
    <text x="10" y="10" class="nodelabel cell_vee_3" s:attribute="name">VEE</text>
    <path d="M0,0 H20 L10,-15 Z M10,-15 V-30" class="cell_vee_3"/>
    <g s:x="10" s:y="-30" s:pid="A" s:position="top"/>
  </g>
  <g s:type="current_source" s:width="32" s:height="52" transform="translate(102,953)" id="cell_ITAIL">
    <s:alias val="i"/>
    <text x="35" y="20" s:attribute="ref" class="cell_ITAIL">ITAIL</text>
    <text x="35" y="35" s:attribute="value" class="cell_ITAIL">2mA</text>
    <circle cx="16" cy="26" r="16" class="symbol cell_ITAIL"/>
    <path d="M16,34 V18" class="detail cell_ITAIL"/>
    <path d="m13,22 3,-5 3,5 z" style="fill:#000" class="cell_ITAIL"/>
    <path d="M16,0 V10 M16,42 V52" class="connect cell_ITAIL"/>
    <g s:x="16" s:y="0" s:pid="+" s:position="top"/>
    <g s:x="16" s:y="52" s:pid="-" s:position="bottom"/>
  </g>
  <g s:type="vcc" s:width="20" s:height="30" transform="translate(485,77)" id="cell_vcc_4">
    <s:alias val="vcc"/>
    <text x="10" y="-4" class="nodelabel cell_vcc_4" s:attribute="name">VCC</text>
    <path d="M0,0 H20 L10,15 Z M10,15 V30" class="cell_vcc_4"/>
    <g s:x="10" s:y="30" s:pid="A" s:position="bottom"/>
  </g>
  <g s:type="vcc" s:width="20" s:height="30" transform="translate(587,77)" id="cell_vcc_5">
    <s:alias val="vcc"/>
    <text x="10" y="-4" class="nodelabel cell_vcc_5" s:attribute="name">VCC</text>
    <path d="M0,0 H20 L10,15 Z M10,15 V30" class="cell_vcc_5"/>
    <g s:x="10" s:y="30" s:pid="A" s:position="bottom"/>
  </g>
  <g s:type="transistor_pnp_ml" s:width="32" s:height="32" transform="translate(362,137)" id="cell_Q3">
    <s:alias val="q_pnp_ml"/>
    <text x="35" y="10" s:attribute="ref" class="cell_Q3">Q3</text>
    <text x="35" y="25" s:attribute="value" class="cell_Q3">QPNP</text>
    <circle r="16" cx="16" cy="16" class="symbol cell_Q3"/>
    <path d="M0,16 H12 M12,6 V26" class="detail cell_Q3"/>
    <path d="m12,10 11,-8" class="detail cell_Q3"/>
    <path d="m12,21 11,8" class="detail cell_Q3"/>
    <path d="m14,9 6,-1 -3,-5 z" style="fill:#000" class="cell_Q3"/>
    <g s:x="22" s:y="2" s:pid="C" s:position="top"/>
    <g s:x="0" s:y="16" s:pid="B" s:position="left" s:dir="output"/>
    <g s:x="23" s:y="29" s:pid="E" s:position="bottom"/>
  </g>
  <g s:type="transistor_pnp_m" s:width="32" s:height="32" transform="translate(545,137)" id="cell_Q4">
    <s:alias val="q_pnp_m"/>
    <text x="-3" y="10" s:attribute="ref" class="cell_Q4">Q4</text>
    <text x="-3" y="25" s:attribute="value" class="cell_Q4">QPNP</text>
    <circle r="16" cx="16" cy="16" class="symbol cell_Q4"/>
    <path d="M32,16 H20 M20,6 V26" class="detail cell_Q4"/>
    <path d="m20,10 -11,-8" class="detail cell_Q4"/>
    <path d="m20,21 -11,8" class="detail cell_Q4"/>
    <path d="m18,9 -6,-1 3,-5 z" style="fill:#000" class="cell_Q4"/>
    <g s:x="10" s:y="2" s:pid="C" s:position="top"/>
    <g s:x="32" s:y="16" s:pid="B" s:position="right" s:dir="output"/>
    <g s:x="9" s:y="29" s:pid="E" s:position="bottom"/>
  </g>
  <g s:type="gnd" s:width="20" s:height="30" transform="translate(394,314)" id="cell_gnd_6">
    <s:alias val="gnd"/>
    <text x="30" y="20" class="nodelabel cell_gnd_6" s:attribute="name">GND</text>
    <path d="M0,0 H20 M3,5 H17 M7,10 H13 M10,0 V-15" class="cell_gnd_6"/>
    <g s:x="10" s:y="-15" s:pid="A" s:position="top"/>
  </g>
  <g s:type="resistor_v" s:width="10" s:height="50" transform="translate(399,229)" id="cell_RCM1">
    <s:alias val="r_v"/>
    <text x="15" y="15" s:attribute="ref" class="cell_RCM1">RCM1</text>
    <text x="15" y="30" s:attribute="value" class="cell_RCM1">100Meg</text>
    <path d="M0,10 V40 H10 V10 Z" class="symbol cell_RCM1"/>
    <path d="M5,0 V10 M5,40 V50" class="connect cell_RCM1"/>
    <g s:x="5" s:y="0" s:pid="A" s:position="top"/>
    <g s:x="5" s:y="50" s:pid="B" s:position="bottom"/>
  </g>
  <g s:type="gnd" s:width="20" s:height="30" transform="translate(571,421)" id="cell_gnd_7">
    <s:alias val="gnd"/>
    <text x="30" y="20" class="nodelabel cell_gnd_7" s:attribute="name">GND</text>
    <path d="M0,0 H20 M3,5 H17 M7,10 H13 M10,0 V-15" class="cell_gnd_7"/>
    <g s:x="10" s:y="-15" s:pid="A" s:position="top"/>
  </g>
  <g s:type="resistor_v" s:width="10" s:height="50" transform="translate(576,300)" id="cell_RCM2">
    <s:alias val="r_v"/>
    <text x="15" y="15" s:attribute="ref" class="cell_RCM2">RCM2</text>
    <text x="15" y="30" s:attribute="value" class="cell_RCM2">100Meg</text>
    <path d="M0,10 V40 H10 V10 Z" class="symbol cell_RCM2"/>
    <path d="M5,0 V10 M5,40 V50" class="connect cell_RCM2"/>
    <g s:x="5" s:y="0" s:pid="A" s:position="top"/>
    <g s:x="5" s:y="50" s:pid="B" s:position="bottom"/>
  </g>
  <g s:type="transistor_npn" s:width="32" s:height="32" transform="translate(690,238)" id="cell_Q5">
    <s:alias val="q_npn"/>
    <text x="35" y="10" s:attribute="ref" class="cell_Q5">Q5</text>
    <text x="35" y="25" s:attribute="value" class="cell_Q5">QNPN</text>
    <circle r="16" cx="16" cy="16" class="symbol cell_Q5"/>
    <path d="M0,16 H12 M12,6 V26" class="detail cell_Q5"/>
    <path d="m12,10 11,-8" class="detail cell_Q5"/>
    <path d="m12,21 11,8" class="detail cell_Q5"/>
    <path d="m23,29 -6,-1 3,-5 z" style="fill:#000" class="cell_Q5"/>
    <g s:x="22" s:y="2" s:pid="C" s:position="top"/>
    <g s:x="0" s:y="16" s:pid="B" s:position="left"/>
    <g s:x="23" s:y="29" s:pid="E" s:position="bottom"/>
  </g>
  <g s:type="vee" s:width="20" s:height="30" transform="translate(703,421)" id="cell_vee_8">
    <s:alias val="vee"/>
    <text x="10" y="10" class="nodelabel cell_vee_8" s:attribute="name">VEE</text>
    <path d="M0,0 H20 L10,-15 Z M10,-15 V-30" class="cell_vee_8"/>
    <g s:x="10" s:y="-30" s:pid="A" s:position="top"/>
  </g>
  <g s:type="resistor_v" s:width="10" s:height="50" transform="translate(708,300)" id="cell_RE5">
    <s:alias val="r_v"/>
    <text x="15" y="15" s:attribute="ref" class="cell_RE5">RE5</text>
    <text x="15" y="30" s:attribute="value" class="cell_RE5">220</text>
    <path d="M0,10 V40 H10 V10 Z" class="symbol cell_RE5"/>
    <path d="M5,0 V10 M5,40 V50" class="connect cell_RE5"/>
    <g s:x="5" s:y="0" s:pid="A" s:position="top"/>
    <g s:x="5" s:y="50" s:pid="B" s:position="bottom"/>
  </g>
  <g s:type="vee" s:width="20" s:height="30" transform="translate(647,421)" id="cell_vee_9">
    <s:alias val="vee"/>
    <text x="10" y="10" class="nodelabel cell_vee_9" s:attribute="name">VEE</text>
    <path d="M0,0 H20 L10,-15 Z M10,-15 V-30" class="cell_vee_9"/>
    <g s:x="10" s:y="-30" s:pid="A" s:position="top"/>
  </g>
  <g s:type="current_source" s:width="32" s:height="52" transform="translate(641,299)" id="cell_IVAS">
    <s:alias val="i"/>
    <text x="35" y="20" s:attribute="ref" class="cell_IVAS">IVAS</text>
    <text x="35" y="35" s:attribute="value" class="cell_IVAS">6mA</text>
    <circle cx="16" cy="26" r="16" class="symbol cell_IVAS"/>
    <path d="M16,34 V18" class="detail cell_IVAS"/>
    <path d="m13,22 3,-5 3,5 z" style="fill:#000" class="cell_IVAS"/>
    <path d="M16,0 V10 M16,42 V52" class="connect cell_IVAS"/>
    <g s:x="16" s:y="0" s:pid="+" s:position="top"/>
    <g s:x="16" s:y="52" s:pid="-" s:position="bottom"/>
  </g>
  <g s:type="capacitor_v" s:width="30" s:height="50" transform="translate(607,128)" id="cell_CCOMP">
    <s:alias val="c_v"/>
    <text x="25" y="10" s:attribute="ref" class="cell_CCOMP">CCOMP</text>
    <text x="25" y="45" s:attribute="value" class="cell_CCOMP">100p</text>
    <path d="M0,20 H30 M0,30 H30" class="symbol cell_CCOMP"/>
    <path d="M15,0 V20 M15,30 V50" class="connect cell_CCOMP"/>
    <g s:x="15" s:y="0" s:pid="A" s:position="top"/>
    <g s:x="15" s:y="50" s:pid="B" s:position="bottom"/>
  </g>
  <g s:type="vcc" s:width="20" s:height="30" transform="translate(702,22)" id="cell_vcc_10">
    <s:alias val="vcc"/>
    <text x="10" y="-4" class="nodelabel cell_vcc_10" s:attribute="name">VCC</text>
    <path d="M0,0 H20 L10,15 Z M10,15 V30" class="cell_vcc_10"/>
    <g s:x="10" s:y="30" s:pid="A" s:position="bottom"/>
  </g>
  <g s:type="resistor_v" s:width="10" s:height="50" transform="translate(707,57)" id="cell_RC5">
    <s:alias val="r_v"/>
    <text x="15" y="15" s:attribute="ref" class="cell_RC5">RC5</text>
    <text x="15" y="30" s:attribute="value" class="cell_RC5">4.7k</text>
    <path d="M0,10 V40 H10 V10 Z" class="symbol cell_RC5"/>
    <path d="M5,0 V10 M5,40 V50" class="connect cell_RC5"/>
    <g s:x="5" s:y="0" s:pid="A" s:position="top"/>
    <g s:x="5" s:y="50" s:pid="B" s:position="bottom"/>
  </g>
  <g s:type="transistor_npn" s:width="32" s:height="32" transform="translate(174,405)" id="cell_Q6">
    <s:alias val="q_npn"/>
    <text x="35" y="10" s:attribute="ref" class="cell_Q6">Q6</text>
    <text x="35" y="25" s:attribute="value" class="cell_Q6">QNPN</text>
    <circle r="16" cx="16" cy="16" class="symbol cell_Q6"/>
    <path d="M0,16 H12 M12,6 V26" class="detail cell_Q6"/>
    <path d="m12,10 11,-8" class="detail cell_Q6"/>
    <path d="m12,21 11,8" class="detail cell_Q6"/>
    <path d="m23,29 -6,-1 3,-5 z" style="fill:#000" class="cell_Q6"/>
    <g s:x="22" s:y="2" s:pid="C" s:position="top"/>
    <g s:x="0" s:y="16" s:pid="B" s:position="left"/>
    <g s:x="23" s:y="29" s:pid="E" s:position="bottom"/>
  </g>
  <g s:type="resistor_v" s:width="10" s:height="50" transform="translate(449,300)" id="cell_RB1">
    <s:alias val="r_v"/>
    <text x="15" y="15" s:attribute="ref" class="cell_RB1">RB1</text>
    <text x="15" y="30" s:attribute="value" class="cell_RB1">2.2k</text>
    <path d="M0,10 V40 H10 V10 Z" class="symbol cell_RB1"/>
    <path d="M5,0 V10 M5,40 V50" class="connect cell_RB1"/>
    <g s:x="5" s:y="0" s:pid="A" s:position="top"/>
    <g s:x="5" s:y="50" s:pid="B" s:position="bottom"/>
  </g>
  <g s:type="resistor_v" s:width="10" s:height="50" transform="translate(159,456)" id="cell_RB2">
    <s:alias val="r_v"/>
    <text x="15" y="15" s:attribute="ref" class="cell_RB2">RB2</text>
    <text x="15" y="30" s:attribute="value" class="cell_RB2">1k</text>
    <path d="M0,10 V40 H10 V10 Z" class="symbol cell_RB2"/>
    <path d="M5,0 V10 M5,40 V50" class="connect cell_RB2"/>
    <g s:x="5" s:y="0" s:pid="A" s:position="top"/>
    <g s:x="5" s:y="50" s:pid="B" s:position="bottom"/>
  </g>
  <g s:type="resistor_v" s:width="10" s:height="50" transform="translate(672,128)" id="cell_RBIAS">
    <s:alias val="r_v"/>
    <text x="15" y="15" s:attribute="ref" class="cell_RBIAS">RBIAS</text>
    <text x="15" y="30" s:attribute="value" class="cell_RBIAS">2.2k</text>
    <path d="M0,10 V40 H10 V10 Z" class="symbol cell_RBIAS"/>
    <path d="M5,0 V10 M5,40 V50" class="connect cell_RBIAS"/>
    <g s:x="5" s:y="0" s:pid="A" s:position="top"/>
    <g s:x="5" s:y="50" s:pid="B" s:position="bottom"/>
  </g>
  <g s:type="vee" s:width="20" s:height="30" transform="translate(187,673)" id="cell_vee_11">
    <s:alias val="vee"/>
    <text x="10" y="10" class="nodelabel cell_vee_11" s:attribute="name">VEE</text>
    <path d="M0,0 H20 L10,-15 Z M10,-15 V-30" class="cell_vee_11"/>
    <g s:x="10" s:y="-30" s:pid="A" s:position="top"/>
  </g>
  <g s:type="resistor_v" s:width="10" s:height="50" transform="translate(192,568)" id="cell_RBIAS2">
    <s:alias val="r_v"/>
    <text x="15" y="15" s:attribute="ref" class="cell_RBIAS2">RBIAS2</text>
    <text x="15" y="30" s:attribute="value" class="cell_RBIAS2">2.2k</text>
    <path d="M0,10 V40 H10 V10 Z" class="symbol cell_RBIAS2"/>
    <path d="M5,0 V10 M5,40 V50" class="connect cell_RBIAS2"/>
    <g s:x="5" s:y="0" s:pid="A" s:position="top"/>
    <g s:x="5" s:y="50" s:pid="B" s:position="bottom"/>
  </g>
  <g s:type="vcc" s:width="20" s:height="30" transform="translate(505,149)" id="cell_vcc_12">
    <s:alias val="vcc"/>
    <text x="10" y="-4" class="nodelabel cell_vcc_12" s:attribute="name">VCC</text>
    <path d="M0,0 H20 L10,15 Z M10,15 V30" class="cell_vcc_12"/>
    <g s:x="10" s:y="30" s:pid="A" s:position="bottom"/>
  </g>
  <g s:type="transistor_npn" s:width="32" s:height="32" transform="translate(493,238)" id="cell_Q7">
    <s:alias val="q_npn"/>
    <text x="35" y="10" s:attribute="ref" class="cell_Q7">Q7</text>
    <text x="35" y="25" s:attribute="value" class="cell_Q7">QNPN</text>
    <circle r="16" cx="16" cy="16" class="symbol cell_Q7"/>
    <path d="M0,16 H12 M12,6 V26" class="detail cell_Q7"/>
    <path d="m12,10 11,-8" class="detail cell_Q7"/>
    <path d="m12,21 11,8" class="detail cell_Q7"/>
    <path d="m23,29 -6,-1 3,-5 z" style="fill:#000" class="cell_Q7"/>
    <g s:x="22" s:y="2" s:pid="C" s:position="top"/>
    <g s:x="0" s:y="16" s:pid="B" s:position="left"/>
    <g s:x="23" s:y="29" s:pid="E" s:position="bottom"/>
  </g>
  <g s:type="transistor_pnp" s:width="32" s:height="32" transform="translate(245,526)" id="cell_Q8">
    <s:alias val="q_pnp"/>
    <text x="35" y="10" s:attribute="ref" class="cell_Q8">Q8</text>
    <text x="35" y="25" s:attribute="value" class="cell_Q8">QPNP</text>
    <circle r="16" cx="16" cy="16" class="symbol cell_Q8"/>
    <path d="M0,16 H12 M12,6 V26" class="detail cell_Q8"/>
    <path d="m12,10 11,-8" class="detail cell_Q8"/>
    <path d="m12,21 11,8" class="detail cell_Q8"/>
    <path d="m14,9 6,-1 -3,-5 z" style="fill:#000" class="cell_Q8"/>
    <g s:x="22" s:y="2" s:pid="C" s:position="top"/>
    <g s:x="0" s:y="16" s:pid="B" s:position="left"/>
    <g s:x="23" s:y="29" s:pid="E" s:position="bottom"/>
  </g>
  <g s:type="vee" s:width="20" s:height="30" transform="translate(320,593)" id="cell_vee_13">
    <s:alias val="vee"/>
    <text x="10" y="10" class="nodelabel cell_vee_13" s:attribute="name">VEE</text>
    <path d="M0,0 H20 L10,-15 Z M10,-15 V-30" class="cell_vee_13"/>
    <g s:x="10" s:y="-30" s:pid="A" s:position="top"/>
  </g>
  <g s:type="resistor_v" s:width="10" s:height="50" transform="translate(511,300)" id="cell_RDP">
    <s:alias val="r_v"/>
    <text x="15" y="15" s:attribute="ref" class="cell_RDP">RDP</text>
    <text x="15" y="30" s:attribute="value" class="cell_RDP">47</text>
    <path d="M0,10 V40 H10 V10 Z" class="symbol cell_RDP"/>
    <path d="M5,0 V10 M5,40 V50" class="connect cell_RDP"/>
    <g s:x="5" s:y="0" s:pid="A" s:position="top"/>
    <g s:x="5" s:y="50" s:pid="B" s:position="bottom"/>
  </g>
  <g s:type="resistor_v" s:width="10" s:height="50" transform="translate(263,568)" id="cell_RDN">
    <s:alias val="r_v"/>
    <text x="15" y="15" s:attribute="ref" class="cell_RDN">RDN</text>
    <text x="15" y="30" s:attribute="value" class="cell_RDN">47</text>
    <path d="M0,10 V40 H10 V10 Z" class="symbol cell_RDN"/>
    <path d="M5,0 V10 M5,40 V50" class="connect cell_RDN"/>
    <g s:x="5" s:y="0" s:pid="A" s:position="top"/>
    <g s:x="5" s:y="50" s:pid="B" s:position="bottom"/>
  </g>
  <g s:type="vcc" s:width="20" s:height="30" transform="translate(339,321)" id="cell_vcc_14">
    <s:alias val="vcc"/>
    <text x="10" y="-4" class="nodelabel cell_vcc_14" s:attribute="name">VCC</text>
    <path d="M0,0 H20 L10,15 Z M10,15 V30" class="cell_vcc_14"/>
    <g s:x="10" s:y="30" s:pid="A" s:position="bottom"/>
  </g>
  <g s:type="transistor_npn" s:width="32" s:height="32" transform="translate(327,405)" id="cell_Q9">
    <s:alias val="q_npn"/>
    <text x="35" y="10" s:attribute="ref" class="cell_Q9">Q9</text>
    <text x="35" y="25" s:attribute="value" class="cell_Q9">QNPNPWR</text>
    <circle r="16" cx="16" cy="16" class="symbol cell_Q9"/>
    <path d="M0,16 H12 M12,6 V26" class="detail cell_Q9"/>
    <path d="m12,10 11,-8" class="detail cell_Q9"/>
    <path d="m12,21 11,8" class="detail cell_Q9"/>
    <path d="m23,29 -6,-1 3,-5 z" style="fill:#000" class="cell_Q9"/>
    <g s:x="22" s:y="2" s:pid="C" s:position="top"/>
    <g s:x="0" s:y="16" s:pid="B" s:position="left"/>
    <g s:x="23" s:y="29" s:pid="E" s:position="bottom"/>
  </g>
  <g s:type="transistor_pnp" s:width="32" s:height="32" transform="translate(278,671)" id="cell_Q10">
    <s:alias val="q_pnp"/>
    <text x="35" y="10" s:attribute="ref" class="cell_Q10">Q10</text>
    <text x="35" y="25" s:attribute="value" class="cell_Q10">QPNPPWR</text>
    <circle r="16" cx="16" cy="16" class="symbol cell_Q10"/>
    <path d="M0,16 H12 M12,6 V26" class="detail cell_Q10"/>
    <path d="m12,10 11,-8" class="detail cell_Q10"/>
    <path d="m12,21 11,8" class="detail cell_Q10"/>
    <path d="m14,9 6,-1 -3,-5 z" style="fill:#000" class="cell_Q10"/>
    <g s:x="22" s:y="2" s:pid="C" s:position="top"/>
    <g s:x="0" s:y="16" s:pid="B" s:position="left"/>
    <g s:x="23" s:y="29" s:pid="E" s:position="bottom"/>
  </g>
  <g s:type="vee" s:width="20" s:height="30" transform="translate(320,753)" id="cell_vee_15">
    <s:alias val="vee"/>
    <text x="10" y="10" class="nodelabel cell_vee_15" s:attribute="name">VEE</text>
    <path d="M0,0 H20 L10,-15 Z M10,-15 V-30" class="cell_vee_15"/>
    <g s:x="10" s:y="-30" s:pid="A" s:position="top"/>
  </g>
  <g s:type="gnd" s:width="20" s:height="30" transform="translate(194,888)" id="cell_gnd_16">
    <s:alias val="gnd"/>
    <text x="30" y="20" class="nodelabel cell_gnd_16" s:attribute="name">GND</text>
    <path d="M0,0 H20 M3,5 H17 M7,10 H13 M10,0 V-15" class="cell_gnd_16"/>
    <g s:x="10" s:y="-15" s:pid="A" s:position="top"/>
  </g>
  <g s:type="resistor_v" s:width="10" s:height="50" transform="translate(199,803)" id="cell_RE9">
    <s:alias val="r_v"/>
    <text x="15" y="15" s:attribute="ref" class="cell_RE9">RE9</text>
    <text x="15" y="30" s:attribute="value" class="cell_RE9">0.22</text>
    <path d="M0,10 V40 H10 V10 Z" class="symbol cell_RE9"/>
    <path d="M5,0 V10 M5,40 V50" class="connect cell_RE9"/>
    <g s:x="5" s:y="0" s:pid="A" s:position="top"/>
    <g s:x="5" s:y="50" s:pid="B" s:position="bottom"/>
  </g>
  <g s:type="gnd" s:width="20" s:height="30" transform="translate(592,673)" id="cell_gnd_17">
    <s:alias val="gnd"/>
    <text x="30" y="20" class="nodelabel cell_gnd_17" s:attribute="name">GND</text>
    <path d="M0,0 H20 M3,5 H17 M7,10 H13 M10,0 V-15" class="cell_gnd_17"/>
    <g s:x="10" s:y="-15" s:pid="A" s:position="top"/>
  </g>
  <g s:type="resistor_v" s:width="10" s:height="50" transform="translate(533,648)" id="cell_RE10">
    <s:alias val="r_v"/>
    <text x="15" y="15" s:attribute="ref" class="cell_RE10">RE10</text>
    <text x="15" y="30" s:attribute="value" class="cell_RE10">0.22</text>
    <path d="M0,10 V40 H10 V10 Z" class="symbol cell_RE10"/>
    <path d="M5,0 V10 M5,40 V50" class="connect cell_RE10"/>
    <g s:x="5" s:y="0" s:pid="A" s:position="top"/>
    <g s:x="5" s:y="50" s:pid="B" s:position="bottom"/>
  </g>
  <g s:type="gnd" s:width="20" s:height="30" transform="translate(340,888)" id="cell_gnd_18">
    <s:alias val="gnd"/>
    <text x="30" y="20" class="nodelabel cell_gnd_18" s:attribute="name">GND</text>
    <path d="M0,0 H20 M3,5 H17 M7,10 H13 M10,0 V-15" class="cell_gnd_18"/>
    <g s:x="10" s:y="-15" s:pid="A" s:position="top"/>
  </g>
  <g s:type="resistor_v" s:width="10" s:height="50" transform="translate(345,803)" id="cell_RL">
    <s:alias val="r_v"/>
    <text x="15" y="15" s:attribute="ref" class="cell_RL">RL</text>
    <text x="15" y="30" s:attribute="value" class="cell_RL">8</text>
    <path d="M0,10 V40 H10 V10 Z" class="symbol cell_RL"/>
    <path d="M5,0 V10 M5,40 V50" class="connect cell_RL"/>
    <g s:x="5" s:y="0" s:pid="A" s:position="top"/>
    <g s:x="5" s:y="50" s:pid="B" s:position="bottom"/>
  </g>
  <g s:type="resistor_v" s:width="10" s:height="50" transform="translate(139,803)" id="cell_RZ">
    <s:alias val="r_v"/>
    <text x="15" y="15" s:attribute="ref" class="cell_RZ">RZ</text>
    <text x="15" y="30" s:attribute="value" class="cell_RZ">10</text>
    <path d="M0,10 V40 H10 V10 Z" class="symbol cell_RZ"/>
    <path d="M5,0 V10 M5,40 V50" class="connect cell_RZ"/>
    <g s:x="5" s:y="0" s:pid="A" s:position="top"/>
    <g s:x="5" s:y="50" s:pid="B" s:position="bottom"/>
  </g>
  <g s:type="gnd" s:width="20" s:height="30" transform="translate(47,968)" id="cell_gnd_19">
    <s:alias val="gnd"/>
    <text x="30" y="20" class="nodelabel cell_gnd_19" s:attribute="name">GND</text>
    <path d="M0,0 H20 M3,5 H17 M7,10 H13 M10,0 V-15" class="cell_gnd_19"/>
    <g s:x="10" s:y="-15" s:pid="A" s:position="top"/>
  </g>
  <g s:type="capacitor_v" s:width="30" s:height="50" transform="translate(129,873)" id="cell_CZ">
    <s:alias val="c_v"/>
    <text x="25" y="10" s:attribute="ref" class="cell_CZ">CZ</text>
    <text x="25" y="45" s:attribute="value" class="cell_CZ">100n</text>
    <path d="M0,20 H30 M0,30 H30" class="symbol cell_CZ"/>
    <path d="M15,0 V20 M15,30 V50" class="connect cell_CZ"/>
    <g s:x="15" s:y="0" s:pid="A" s:position="top"/>
    <g s:x="15" s:y="50" s:pid="B" s:position="bottom"/>
  </g>
  <g s:type="gnd" s:width="20" s:height="30" transform="translate(74,421)" id="cell_gnd_20">
    <s:alias val="gnd"/>
    <text x="30" y="20" class="nodelabel cell_gnd_20" s:attribute="name">GND</text>
    <path d="M0,0 H20 M3,5 H17 M7,10 H13 M10,0 V-15" class="cell_gnd_20"/>
    <g s:x="10" s:y="-15" s:pid="A" s:position="top"/>
  </g>
  <g s:type="resistor_v" s:width="10" s:height="50" transform="translate(79,300)" id="cell_RBI">
    <s:alias val="r_v"/>
    <text x="15" y="15" s:attribute="ref" class="cell_RBI">RBI</text>
    <text x="15" y="30" s:attribute="value" class="cell_RBI">100k</text>
    <path d="M0,10 V40 H10 V10 Z" class="symbol cell_RBI"/>
    <path d="M5,0 V10 M5,40 V50" class="connect cell_RBI"/>
    <g s:x="5" s:y="0" s:pid="A" s:position="top"/>
    <g s:x="5" s:y="50" s:pid="B" s:position="bottom"/>
  </g>
  <g s:type="inputExt" s:width="30" s:height="20" transform="translate(44,72)" id="cell_IN">
    <text x="15" y="-4" class="cell_IN" s:attribute="ref">IN</text>
    <s:alias val="$_inputExt_"/>
    <path d="M0,0 V20 H15 L30,10 15,0 Z" class="cell_IN"/>
    <g s:x="30" s:y="10" s:pid="Y" s:position="right"/>
  </g>
  <g s:type="outputExt" s:width="30" s:height="20" transform="translate(582,743)" id="cell_OUT">
    <text x="15" y="-4" class="cell_OUT" s:attribute="ref">OUT</text>
    <s:alias val="$_outputExt_"/>
    <path d="M30,0 V20 H15 L0,10 15,0 Z" class="cell_OUT"/>
    <g s:x="0" s:y="10" s:pid="A" s:position="left"/>
  </g>
  <line x1="28" x2="28" y1="179" y2="229" class="net_19"/>
  <line x1="74" x2="84" y1="82" y2="82" class="net_2"/>
  <line x1="84" x2="84" y1="82" y2="117" class="net_2"/>
  <line x1="84" x2="28" y1="117" y2="117" class="net_2"/>
  <circle cx="84" cy="117" r="2" style="fill:#000" class="net_2"/>
  <line x1="28" x2="28" y1="117" y2="127" class="net_2"/>
  <line x1="74" x2="84" y1="82" y2="82" class="net_2"/>
  <line x1="84" x2="84" y1="82" y2="128" class="net_2"/>
  <line x1="350" x2="350" y1="434" y2="753" class="net_3"/>
  <circle cx="350" cy="753" r="2" style="fill:#000" class="net_3"/>
  <line x1="350" x2="582" y1="753" y2="753" class="net_3"/>
  <line x1="301" x2="301" y1="700" y2="713" class="net_3"/>
  <line x1="301" x2="350" y1="713" y2="713" class="net_3"/>
  <line x1="350" x2="350" y1="713" y2="753" class="net_3"/>
  <circle cx="350" cy="713" r="2" style="fill:#000" class="net_3"/>
  <circle cx="350" cy="753" r="2" style="fill:#000" class="net_3"/>
  <line x1="350" x2="582" y1="753" y2="753" class="net_3"/>
  <line x1="538" x2="538" y1="698" y2="713" class="net_3"/>
  <line x1="538" x2="350" y1="713" y2="713" class="net_3"/>
  <line x1="350" x2="350" y1="713" y2="753" class="net_3"/>
  <circle cx="350" cy="753" r="2" style="fill:#000" class="net_3"/>
  <line x1="350" x2="582" y1="753" y2="753" class="net_3"/>
  <line x1="582" x2="350" y1="753" y2="753" class="net_3"/>
  <line x1="350" x2="350" y1="753" y2="793" class="net_3"/>
  <line x1="350" x2="263" y1="793" y2="793" class="net_3"/>
  <circle cx="350" cy="793" r="2" style="fill:#000" class="net_3"/>
  <circle cx="263" cy="793" r="2" style="fill:#000" class="net_3"/>
  <circle cx="350" cy="753" r="2" style="fill:#000" class="net_3"/>
  <line x1="263" x2="263" y1="793" y2="803" class="net_3"/>
  <line x1="582" x2="350" y1="753" y2="753" class="net_3"/>
  <line x1="350" x2="350" y1="753" y2="793" class="net_3"/>
  <line x1="350" x2="204" y1="793" y2="793" class="net_3"/>
  <circle cx="204" cy="793" r="2" style="fill:#000" class="net_3"/>
  <circle cx="350" cy="753" r="2" style="fill:#000" class="net_3"/>
  <line x1="204" x2="204" y1="793" y2="803" class="net_3"/>
  <line x1="582" x2="350" y1="753" y2="753" class="net_3"/>
  <circle cx="350" cy="753" r="2" style="fill:#000" class="net_3"/>
  <line x1="350" x2="350" y1="753" y2="803" class="net_3"/>
  <line x1="582" x2="350" y1="753" y2="753" class="net_3"/>
  <line x1="350" x2="350" y1="753" y2="793" class="net_3"/>
  <line x1="350" x2="144" y1="793" y2="793" class="net_3"/>
  <circle cx="350" cy="753" r="2" style="fill:#000" class="net_3"/>
  <line x1="144" x2="144" y1="793" y2="803" class="net_3"/>
  <line x1="263" x2="263" y1="1004" y2="1025" class="net_20"/>
  <line x1="263" x2="263" y1="853" y2="898" class="net_4"/>
  <circle cx="263" cy="898" r="2" style="fill:#000" class="net_4"/>
  <line x1="263" x2="273" y1="898" y2="898" class="net_4"/>
  <line x1="273" x2="263" y1="898" y2="898" class="net_4"/>
  <circle cx="263" cy="898" r="2" style="fill:#000" class="net_4"/>
  <line x1="263" x2="263" y1="898" y2="954" class="net_4"/>
  <line x1="555" x2="555" y1="139" y2="117" class="net_8"/>
  <line x1="555" x2="535" y1="117" y2="117" class="net_8"/>
  <line x1="535" x2="535" y1="117" y2="199" class="net_8"/>
  <line x1="535" x2="622" y1="199" y2="199" class="net_8"/>
  <line x1="622" x2="622" y1="199" y2="254" class="net_8"/>
  <circle cx="622" cy="199" r="2" style="fill:#000" class="net_8"/>
  <circle cx="622" cy="254" r="2" style="fill:#000" class="net_8"/>
  <line x1="622" x2="690" y1="254" y2="254" class="net_8"/>
  <line x1="622" x2="622" y1="178" y2="254" class="net_8"/>
  <circle cx="622" cy="254" r="2" style="fill:#000" class="net_8"/>
  <line x1="622" x2="690" y1="254" y2="254" class="net_8"/>
  <line x1="690" x2="622" y1="254" y2="254" class="net_8"/>
  <line x1="622" x2="622" y1="254" y2="863" class="net_8"/>
  <line x1="622" x2="283" y1="863" y2="863" class="net_8"/>
  <circle cx="622" cy="254" r="2" style="fill:#000" class="net_8"/>
  <line x1="283" x2="283" y1="863" y2="884" class="net_8"/>
  <line x1="690" x2="622" y1="254" y2="254" class="net_8"/>
  <line x1="622" x2="622" y1="254" y2="289" class="net_8"/>
  <line x1="622" x2="581" y1="289" y2="289" class="net_8"/>
  <circle cx="622" cy="289" r="2" style="fill:#000" class="net_8"/>
  <circle cx="622" cy="254" r="2" style="fill:#000" class="net_8"/>
  <line x1="581" x2="581" y1="289" y2="300" class="net_8"/>
  <line x1="384" x2="384" y1="139" y2="117" class="net_6"/>
  <line x1="384" x2="107" y1="117" y2="117" class="net_6"/>
  <line x1="107" x2="107" y1="117" y2="209" class="net_6"/>
  <line x1="107" x2="117" y1="209" y2="209" class="net_6"/>
  <circle cx="384" cy="117" r="2" style="fill:#000" class="net_6"/>
  <circle cx="117" cy="209" r="2" style="fill:#000" class="net_6"/>
  <line x1="117" x2="117" y1="209" y2="240" class="net_6"/>
  <line x1="384" x2="384" y1="139" y2="117" class="net_6"/>
  <line x1="384" x2="404" y1="117" y2="117" class="net_6"/>
  <line x1="404" x2="404" y1="117" y2="229" class="net_6"/>
  <line x1="362" x2="117" y1="153" y2="153" class="net_6"/>
  <line x1="117" x2="117" y1="153" y2="240" class="net_6"/>
  <line x1="362" x2="117" y1="153" y2="153" class="net_6"/>
  <line x1="117" x2="117" y1="153" y2="209" class="net_6"/>
  <line x1="117" x2="404" y1="209" y2="209" class="net_6"/>
  <circle cx="404" cy="209" r="2" style="fill:#000" class="net_6"/>
  <line x1="404" x2="404" y1="209" y2="229" class="net_6"/>
  <line x1="577" x2="587" y1="153" y2="153" class="net_6"/>
  <line x1="587" x2="587" y1="153" y2="209" class="net_6"/>
  <line x1="587" x2="117" y1="209" y2="209" class="net_6"/>
  <line x1="117" x2="117" y1="209" y2="240" class="net_6"/>
  <line x1="577" x2="587" y1="153" y2="153" class="net_6"/>
  <line x1="587" x2="587" y1="153" y2="209" class="net_6"/>
  <line x1="587" x2="404" y1="209" y2="209" class="net_6"/>
  <line x1="404" x2="404" y1="209" y2="229" class="net_6"/>
  <line x1="118" x2="118" y1="1005" y2="1010" class="net_21"/>
  <line x1="282" x2="282" y1="911" y2="943" class="net_7"/>
  <line x1="282" x2="118" y1="943" y2="943" class="net_7"/>
  <circle cx="118" cy="943" r="2" style="fill:#000" class="net_7"/>
  <line x1="118" x2="118" y1="943" y2="953" class="net_7"/>
  <line x1="118" x2="118" y1="267" y2="953" class="net_7"/>
  <line x1="495" x2="495" y1="107" y2="189" class="net_22"/>
  <line x1="495" x2="385" y1="189" y2="189" class="net_22"/>
  <line x1="385" x2="385" y1="189" y2="166" class="net_22"/>
  <line x1="597" x2="597" y1="107" y2="189" class="net_23"/>
  <line x1="597" x2="554" y1="189" y2="189" class="net_23"/>
  <line x1="554" x2="554" y1="189" y2="166" class="net_23"/>
  <line x1="404" x2="404" y1="279" y2="299" class="net_24"/>
  <line x1="581" x2="581" y1="350" y2="406" class="net_25"/>
  <line x1="712" x2="712" y1="107" y2="240" class="net_9"/>
  <line x1="712" x2="712" y1="107" y2="117" class="net_9"/>
  <line x1="712" x2="622" y1="117" y2="117" class="net_9"/>
  <circle cx="712" cy="117" r="2" style="fill:#000" class="net_9"/>
  <line x1="622" x2="622" y1="117" y2="128" class="net_9"/>
  <line x1="712" x2="712" y1="107" y2="117" class="net_9"/>
  <line x1="712" x2="677" y1="117" y2="117" class="net_9"/>
  <circle cx="677" cy="117" r="2" style="fill:#000" class="net_9"/>
  <line x1="677" x2="677" y1="117" y2="128" class="net_9"/>
  <line x1="713" x2="713" y1="350" y2="391" class="net_26"/>
  <line x1="713" x2="713" y1="267" y2="300" class="net_10"/>
  <line x1="713" x2="713" y1="267" y2="289" class="net_10"/>
  <line x1="713" x2="657" y1="289" y2="289" class="net_10"/>
  <circle cx="713" cy="289" r="2" style="fill:#000" class="net_10"/>
  <line x1="657" x2="657" y1="289" y2="299" class="net_10"/>
  <line x1="657" x2="657" y1="351" y2="391" class="net_27"/>
  <line x1="712" x2="712" y1="52" y2="57" class="net_28"/>
  <line x1="677" x2="677" y1="178" y2="219" class="net_11"/>
  <line x1="677" x2="483" y1="219" y2="219" class="net_11"/>
  <line x1="483" x2="483" y1="219" y2="254" class="net_11"/>
  <circle cx="483" cy="254" r="2" style="fill:#000" class="net_11"/>
  <line x1="483" x2="493" y1="254" y2="254" class="net_11"/>
  <line x1="493" x2="483" y1="254" y2="254" class="net_11"/>
  <line x1="483" x2="483" y1="254" y2="371" class="net_11"/>
  <line x1="483" x2="196" y1="371" y2="371" class="net_11"/>
  <circle cx="483" cy="254" r="2" style="fill:#000" class="net_11"/>
  <line x1="196" x2="196" y1="371" y2="407" class="net_11"/>
  <line x1="493" x2="483" y1="254" y2="254" class="net_11"/>
  <line x1="483" x2="483" y1="254" y2="289" class="net_11"/>
  <line x1="483" x2="454" y1="289" y2="289" class="net_11"/>
  <circle cx="483" cy="289" r="2" style="fill:#000" class="net_11"/>
  <circle cx="483" cy="254" r="2" style="fill:#000" class="net_11"/>
  <line x1="454" x2="454" y1="289" y2="300" class="net_11"/>
  <line x1="454" x2="454" y1="350" y2="361" class="net_12"/>
  <line x1="454" x2="164" y1="361" y2="361" class="net_12"/>
  <line x1="164" x2="164" y1="361" y2="421" class="net_12"/>
  <circle cx="164" cy="421" r="2" style="fill:#000" class="net_12"/>
  <line x1="164" x2="174" y1="421" y2="421" class="net_12"/>
  <line x1="174" x2="164" y1="421" y2="421" class="net_12"/>
  <circle cx="164" cy="421" r="2" style="fill:#000" class="net_12"/>
  <line x1="164" x2="164" y1="421" y2="456" class="net_12"/>
  <line x1="197" x2="197" y1="618" y2="643" class="net_29"/>
  <line x1="197" x2="197" y1="434" y2="542" class="net_13"/>
  <circle cx="197" cy="542" r="2" style="fill:#000" class="net_13"/>
  <line x1="197" x2="245" y1="542" y2="542" class="net_13"/>
  <line x1="164" x2="164" y1="506" y2="516" class="net_13"/>
  <line x1="164" x2="197" y1="516" y2="516" class="net_13"/>
  <line x1="197" x2="197" y1="516" y2="542" class="net_13"/>
  <circle cx="197" cy="516" r="2" style="fill:#000" class="net_13"/>
  <circle cx="197" cy="542" r="2" style="fill:#000" class="net_13"/>
  <line x1="197" x2="245" y1="542" y2="542" class="net_13"/>
  <line x1="245" x2="197" y1="542" y2="542" class="net_13"/>
  <circle cx="197" cy="542" r="2" style="fill:#000" class="net_13"/>
  <line x1="197" x2="197" y1="542" y2="568" class="net_13"/>
  <line x1="515" x2="515" y1="179" y2="240" class="net_30"/>
  <line x1="267" x2="267" y1="528" y2="516" class="net_31"/>
  <line x1="267" x2="330" y1="516" y2="516" class="net_31"/>
  <line x1="330" x2="330" y1="516" y2="563" class="net_31"/>
  <line x1="516" x2="516" y1="267" y2="300" class="net_14"/>
  <line x1="268" x2="268" y1="555" y2="568" class="net_15"/>
  <line x1="349" x2="349" y1="351" y2="407" class="net_32"/>
  <line x1="300" x2="300" y1="673" y2="633" class="net_33"/>
  <line x1="300" x2="330" y1="633" y2="633" class="net_33"/>
  <line x1="330" x2="330" y1="633" y2="723" class="net_33"/>
  <line x1="204" x2="204" y1="853" y2="873" class="net_34"/>
  <line x1="602" x2="602" y1="633" y2="658" class="net_35"/>
  <line x1="602" x2="538" y1="633" y2="633" class="net_35"/>
  <line x1="538" x2="538" y1="633" y2="648" class="net_35"/>
  <line x1="350" x2="350" y1="853" y2="873" class="net_36"/>
  <line x1="144" x2="144" y1="923" y2="933" class="net_37"/>
  <line x1="144" x2="57" y1="933" y2="933" class="net_37"/>
  <line x1="57" x2="57" y1="933" y2="953" class="net_37"/>
  <line x1="144" x2="144" y1="853" y2="873" class="net_18"/>
  <line x1="84" x2="84" y1="350" y2="406" class="net_38"/>
  <line x1="84" x2="84" y1="178" y2="254" class="net_5"/>
  <circle cx="84" cy="254" r="2" style="fill:#000" class="net_5"/>
  <line x1="84" x2="95" y1="254" y2="254" class="net_5"/>
  <line x1="95" x2="84" y1="254" y2="254" class="net_5"/>
  <circle cx="84" cy="254" r="2" style="fill:#000" class="net_5"/>
  <line x1="84" x2="84" y1="254" y2="300" class="net_5"/>
  <line x1="516" x2="516" y1="350" y2="381" class="net_16"/>
  <line x1="516" x2="317" y1="381" y2="381" class="net_16"/>
  <line x1="317" x2="317" y1="381" y2="421" class="net_16"/>
  <line x1="317" x2="327" y1="421" y2="421" class="net_16"/>
  <line x1="268" x2="268" y1="618" y2="687" class="net_17"/>
  <line x1="268" x2="278" y1="687" y2="687" class="net_17"/>
</svg>
