<svg xmlns="http://www.w3.org/2000/svg" xmlns:xlink="http://www.w3.org/1999/xlink" xmlns:s="https://github.com/nturley/netlistsvg" width="750" height="1037">
  <style>svg {
    stroke: #000;
    fill: none;
  }
  text {
    fill: #000;
    stroke: none;
    font-size: 10px;
    font-weight: bold;
    font-family: "Courier New", monospace;
  }
  .nodelabel {
    text-anchor: middle;
  }
  .inputPortLabel {
    text-anchor: end;
  }
  .splitjoinBody {
    fill: #000;
  }
  .symbol {
    stroke-linejoin: round;
    stroke-linecap: round;
    stroke-width: 2;
  }
  .detail {
    stroke-linejoin: round;
    stroke-linecap: round;
    fill: #000;
  }</style>
  <g s:type="gnd" s:width="20" s:height="30" transform="translate(659,234)" id="cell_gnd_1">
    <s:alias val="gnd"/>
    <text x="30" y="20" class="nodelabel cell_gnd_1" s:attribute="name">GND</text>
    <path d="M0,0 H20 M3,5 H17 M7,10 H13 M10,0 V-15" class="cell_gnd_1"/>
    <g s:x="10" s:y="-15" s:pid="A" s:position="top"/>
  </g>
  <g s:type="voltage_source" s:width="32" s:height="52" transform="translate(653,137)" id="cell_VIN">
    <s:alias val="v"/>
    <text x="35" y="20" s:attribute="ref" class="cell_VIN">VIN</text>
    <text x="35" y="35" s:attribute="value" class="cell_VIN">1</text>
    <circle cx="16" cy="26" r="16" class="symbol cell_VIN"/>
    <path d="M12,22 H20 M16,18 V26" class="detail cell_VIN"/>
    <path d="M12,33 H20" class="detail cell_VIN"/>
    <path d="M16,0 V10 M16,42 V52" class="connect cell_VIN"/>
    <g s:x="16" s:y="0" s:pid="+" s:position="top"/>
    <g s:x="16" s:y="52" s:pid="-" s:position="bottom"/>
  </g>
  <g s:type="resistor_v" s:width="10" s:height="50" transform="translate(59,758)" id="cell_RF">
    <s:alias val="r_v"/>
    <text x="15" y="15" s:attribute="ref" class="cell_RF">RF</text>
    <text x="15" y="30" s:attribute="value" class="cell_RF">22k</text>
    <path d="M0,10 V40 H10 V10 Z" class="symbol cell_RF"/>
    <path d="M5,0 V10 M5,40 V50" class="connect cell_RF"/>
    <g s:x="5" s:y="0" s:pid="A" s:position="top"/>
    <g s:x="5" s:y="50" s:pid="B" s:position="bottom"/>
  </g>
  <g s:type="gnd" s:width="20" s:height="30" transform="translate(54,923)" id="cell_gnd_2">
    <s:alias val="gnd"/>
    <text x="30" y="20" class="nodelabel cell_gnd_2" s:attribute="name">GND</text>
    <path d="M0,0 H20 M3,5 H17 M7,10 H13 M10,0 V-15" class="cell_gnd_2"/>
    <g s:x="10" s:y="-15" s:pid="A" s:position="top"/>
  </g>
  <g s:type="resistor_v" s:width="10" s:height="50" transform="translate(59,838)" id="cell_RG">
    <s:alias val="r_v"/>
    <text x="15" y="15" s:attribute="ref" class="cell_RG">RG</text>
    <text x="15" y="30" s:attribute="value" class="cell_RG">1k</text>
    <path d="M0,10 V40 H10 V10 Z" class="symbol cell_RG"/>
    <path d="M5,0 V10 M5,40 V50" class="connect cell_RG"/>
    <g s:x="5" s:y="0" s:pid="A" s:position="top"/>
    <g s:x="5" s:y="50" s:pid="B" s:position="bottom"/>
  </g>
  <g s:type="resistor_v" s:width="10" s:height="50" transform="translate(549,138)" id="cell_RIN">
    <s:alias val="r_v"/>
    <text x="15" y="15" s:attribute="ref" class="cell_RIN">RIN</text>
    <text x="15" y="30" s:attribute="value" class="cell_RIN">1k</text>
    <path d="M0,10 V40 H10 V10 Z" class="symbol cell_RIN"/>
    <path d="M5,0 V10 M5,40 V50" class="connect cell_RIN"/>
    <g s:x="5" s:y="0" s:pid="A" s:position="top"/>
    <g s:x="5" s:y="50" s:pid="B" s:position="bottom"/>
  </g>
  <g s:type="transistor_npn_ml" s:width="32" s:height="32" transform="translate(592,228)" id="cell_Q1">
    <s:alias val="q_npn_ml"/>
    <text x="35" y="10" s:attribute="ref" class="cell_Q1">Q1</text>
    <text x="35" y="25" s:attribute="value" class="cell_Q1">QNPN</text>
    <circle r="16" cx="16" cy="16" class="symbol cell_Q1"/>
    <path d="M0,16 H12 M12,6 V26" class="detail cell_Q1"/>
    <path d="m12,10 11,-8" class="detail cell_Q1"/>
    <path d="m12,21 11,8" class="detail cell_Q1"/>
    <path d="m23,29 -6,-1 3,-5 z" style="fill:#000" class="cell_Q1"/>
    <g s:x="22" s:y="2" s:pid="C" s:position="top"/>
    <g s:x="0" s:y="16" s:pid="B" s:position="left" s:dir="output"/>
    <g s:x="23" s:y="29" s:pid="E" s:position="bottom"/>
  </g>
  <g s:type="transistor_npn_m" s:width="32" s:height="32" transform="translate(161,847)" id="cell_Q2">
    <s:alias val="q_npn_m"/>
    <text x="-3" y="10" s:attribute="ref" class="cell_Q2">Q2</text>
    <text x="-3" y="25" s:attribute="value" class="cell_Q2">QNPN</text>
    <circle r="16" cx="16" cy="16" class="symbol cell_Q2"/>
    <path d="M32,16 H20 M20,6 V26" class="detail cell_Q2"/>
    <path d="m20,10 -11,-8" class="detail cell_Q2"/>
    <path d="m20,21 -11,8" class="detail cell_Q2"/>
    <path d="m9,29 6,-1 -3,-5 z" style="fill:#000" class="cell_Q2"/>
    <g s:x="10" s:y="2" s:pid="C" s:position="top"/>
    <g s:x="32" s:y="16" s:pid="B" s:position="right" s:dir="output"/>
    <g s:x="9" s:y="29" s:pid="E" s:position="bottom"/>
  </g>
  <g s:type="vee" s:width="20" s:height="30" transform="translate(160,995)" id="cell_vee_3">
    <s:alias val="vee"/>
    <text x="10" y="10" class="nodelabel cell_vee_3" s:attribute="name">VEE</text>
    <path d="M0,0 H20 L10,-15 Z M10,-15 V-30" class="cell_vee_3"/>
    <g s:x="10" s:y="-30" s:pid="A" s:position="top"/>
  </g>
  <g s:type="current_source" s:width="32" s:height="52" transform="translate(154,908)" id="cell_ITAIL">
    <s:alias val="i"/>
    <text x="35" y="20" s:attribute="ref" class="cell_ITAIL">ITAIL</text>
    <text x="35" y="35" s:attribute="value" class="cell_ITAIL">2mA</text>
    <circle cx="16" cy="26" r="16" class="symbol cell_ITAIL"/>
    <path d="M16,34 V18" class="detail cell_ITAIL"/>
    <path d="m13,22 3,-5 3,5 z" style="fill:#000" class="cell_ITAIL"/>
    <path d="M16,0 V10 M16,42 V52" class="connect cell_ITAIL"/>
    <g s:x="16" s:y="0" s:pid="+" s:position="top"/>
    <g s:x="16" s:y="52" s:pid="-" s:position="bottom"/>
  </g>
  <g s:type="vcc" s:width="20" s:height="30" transform="translate(459,77)" id="cell_vcc_4">
    <s:alias val="vcc"/>
    <text x="10" y="-4" class="nodelabel cell_vcc_4" s:attribute="name">VCC</text>
    <path d="M0,0 H20 L10,15 Z M10,15 V30" class="cell_vcc_4"/>
    <g s:x="10" s:y="30" s:pid="A" s:position="bottom"/>
  </g>
  <g s:type="vcc" s:width="20" s:height="30" transform="translate(387,77)" id="cell_vcc_5">
    <s:alias val="vcc"/>
    <text x="10" y="-4" class="nodelabel cell_vcc_5" s:attribute="name">VCC</text>
    <path d="M0,0 H20 L10,15 Z M10,15 V30" class="cell_vcc_5"/>
    <g s:x="10" s:y="30" s:pid="A" s:position="bottom"/>
  </g>
  <g s:type="transistor_pnp_ml" s:width="32" s:height="32" transform="translate(489,147)" id="cell_Q3">
    <s:alias val="q_pnp_ml"/>
    <text x="35" y="10" s:attribute="ref" class="cell_Q3">Q3</text>
    <text x="35" y="25" s:attribute="value" class="cell_Q3">QPNP</text>
    <circle r="16" cx="16" cy="16" class="symbol cell_Q3"/>
    <path d="M0,16 H12 M12,6 V26" class="detail cell_Q3"/>
    <path d="m12,10 11,-8" class="detail cell_Q3"/>
    <path d="m12,21 11,8" class="detail cell_Q3"/>
    <path d="m14,9 6,-1 -3,-5 z" style="fill:#000" class="cell_Q3"/>
    <g s:x="22" s:y="2" s:pid="C" s:position="top"/>
    <g s:x="0" s:y="16" s:pid="B" s:position="left" s:dir="output"/>
    <g s:x="23" s:y="29" s:pid="E" s:position="bottom"/>
  </g>
  <g s:type="transistor_pnp_m" s:width="32" s:height="32" transform="translate(407,147)" id="cell_Q4">
    <s:alias val="q_pnp_m"/>
    <text x="-3" y="10" s:attribute="ref" class="cell_Q4">Q4</text>
    <text x="-3" y="25" s:attribute="value" class="cell_Q4">QPNP</text>
    <circle r="16" cx="16" cy="16" class="symbol cell_Q4"/>
    <path d="M32,16 H20 M20,6 V26" class="detail cell_Q4"/>
    <path d="m20,10 -11,-8" class="detail cell_Q4"/>
    <path d="m20,21 -11,8" class="detail cell_Q4"/>
    <path d="m18,9 -6,-1 3,-5 z" style="fill:#000" class="cell_Q4"/>
    <g s:x="10" s:y="2" s:pid="C" s:position="top"/>
    <g s:x="32" s:y="16" s:pid="B" s:position="right" s:dir="output"/>
    <g s:x="9" s:y="29" s:pid="E" s:position="bottom"/>
  </g>
  <g s:type="gnd" s:width="20" s:height="30" transform="translate(449,304)" id="cell_gnd_6">
    <s:alias val="gnd"/>
    <text x="30" y="20" class="nodelabel cell_gnd_6" s:attribute="name">GND</text>
    <path d="M0,0 H20 M3,5 H17 M7,10 H13 M10,0 V-15" class="cell_gnd_6"/>
    <g s:x="10" s:y="-15" s:pid="A" s:position="top"/>
  </g>
  <g s:type="resistor_v" s:width="10" s:height="50" transform="translate(454,219)" id="cell_RCM1">
    <s:alias val="r_v"/>
    <text x="15" y="15" s:attribute="ref" class="cell_RCM1">RCM1</text>
    <text x="15" y="30" s:attribute="value" class="cell_RCM1">100Meg</text>
    <path d="M0,10 V40 H10 V10 Z" class="symbol cell_RCM1"/>
    <path d="M5,0 V10 M5,40 V50" class="connect cell_RCM1"/>
    <g s:x="5" s:y="0" s:pid="A" s:position="top"/>
    <g s:x="5" s:y="50" s:pid="B" s:position="bottom"/>
  </g>
  <g s:type="gnd" s:width="20" s:height="30" transform="translate(120,376)" id="cell_gnd_7">
    <s:alias val="gnd"/>
    <text x="30" y="20" class="nodelabel cell_gnd_7" s:attribute="name">GND</text>
    <path d="M0,0 H20 M3,5 H17 M7,10 H13 M10,0 V-15" class="cell_gnd_7"/>
    <g s:x="10" s:y="-15" s:pid="A" s:position="top"/>
  </g>
  <g s:type="resistor_v" s:width="10" s:height="50" transform="translate(125,290)" id="cell_RCM2">
    <s:alias val="r_v"/>
    <text x="15" y="15" s:attribute="ref" class="cell_RCM2">RCM2</text>
    <text x="15" y="30" s:attribute="value" class="cell_RCM2">100Meg</text>
    <path d="M0,10 V40 H10 V10 Z" class="symbol cell_RCM2"/>
    <path d="M5,0 V10 M5,40 V50" class="connect cell_RCM2"/>
    <g s:x="5" s:y="0" s:pid="A" s:position="top"/>
    <g s:x="5" s:y="50" s:pid="B" s:position="bottom"/>
  </g>
  <g s:type="transistor_npn" s:width="32" s:height="32" transform="translate(175,228)" id="cell_Q5">
    <s:alias val="q_npn"/>
    <text x="35" y="10" s:attribute="ref" class="cell_Q5">Q5</text>
    <text x="35" y="25" s:attribute="value" class="cell_Q5">QNPN</text>
    <circle r="16" cx="16" cy="16" class="symbol cell_Q5"/>
    <path d="M0,16 H12 M12,6 V26" class="detail cell_Q5"/>
    <path d="m12,10 11,-8" class="detail cell_Q5"/>
    <path d="m12,21 11,8" class="detail cell_Q5"/>
    <path d="m23,29 -6,-1 3,-5 z" style="fill:#000" class="cell_Q5"/>
    <g s:x="22" s:y="2" s:pid="C" s:position="top"/>
    <g s:x="0" s:y="16" s:pid="B" s:position="left"/>
    <g s:x="23" s:y="29" s:pid="E" s:position="bottom"/>
  </g>
  <g s:type="vee" s:width="20" s:height="30" transform="translate(244,376)" id="cell_vee_8">
    <s:alias val="vee"/>
    <text x="10" y="10" class="nodelabel cell_vee_8" s:attribute="name">VEE</text>
    <path d="M0,0 H20 L10,-15 Z M10,-15 V-30" class="cell_vee_8"/>
    <g s:x="10" s:y="-30" s:pid="A" s:position="top"/>
  </g>
  <g s:type="resistor_v" s:width="10" s:height="50" transform="translate(249,290)" id="cell_RE5">
    <s:alias val="r_v"/>
    <text x="15" y="15" s:attribute="ref" class="cell_RE5">RE5</text>
    <text x="15" y="30" s:attribute="value" class="cell_RE5">220</text>
    <path d="M0,10 V40 H10 V10 Z" class="symbol cell_RE5"/>
    <path d="M5,0 V10 M5,40 V50" class="connect cell_RE5"/>
    <g s:x="5" s:y="0" s:pid="A" s:position="top"/>
    <g s:x="5" s:y="50" s:pid="B" s:position="bottom"/>
  </g>
  <g s:type="vee" s:width="20" s:height="30" transform="translate(188,376)" id="cell_vee_9">
    <s:alias val="vee"/>
    <text x="10" y="10" class="nodelabel cell_vee_9" s:attribute="name">VEE</text>
    <path d="M0,0 H20 L10,-15 Z M10,-15 V-30" class="cell_vee_9"/>
    <g s:x="10" s:y="-30" s:pid="A" s:position="top"/>
  </g>
  <g s:type="current_source" s:width="32" s:height="52" transform="translate(182,289)" id="cell_IVAS">
    <s:alias val="i"/>
    <text x="35" y="20" s:attribute="ref" class="cell_IVAS">IVAS</text>
    <text x="35" y="35" s:attribute="value" class="cell_IVAS">6mA</text>
    <circle cx="16" cy="26" r="16" class="symbol cell_IVAS"/>
    <path d="M16,34 V18" class="detail cell_IVAS"/>
    <path d="m13,22 3,-5 3,5 z" style="fill:#000" class="cell_IVAS"/>
    <path d="M16,0 V10 M16,42 V52" class="connect cell_IVAS"/>
    <g s:x="16" s:y="0" s:pid="+" s:position="top"/>
    <g s:x="16" s:y="52" s:pid="-" s:position="bottom"/>
  </g>
  <g s:type="capacitor_v" s:width="30" s:height="50" transform="translate(140,138)" id="cell_CCOMP">
    <s:alias val="c_v"/>
    <text x="25" y="10" s:attribute="ref" class="cell_CCOMP">CCOMP</text>
    <text x="25" y="45" s:attribute="value" class="cell_CCOMP">100p</text>
    <path d="M0,20 H30 M0,30 H30" class="symbol cell_CCOMP"/>
    <path d="M15,0 V20 M15,30 V50" class="connect cell_CCOMP"/>
    <g s:x="15" s:y="0" s:pid="A" s:position="top"/>
    <g s:x="15" s:y="50" s:pid="B" s:position="bottom"/>
  </g>
  <g s:type="vcc" s:width="20" s:height="30" transform="translate(145,22)" id="cell_vcc_10">
    <s:alias val="vcc"/>
    <text x="10" y="-4" class="nodelabel cell_vcc_10" s:attribute="name">VCC</text>
    <path d="M0,0 H20 L10,15 Z M10,15 V30" class="cell_vcc_10"/>
    <g s:x="10" s:y="30" s:pid="A" s:position="bottom"/>
  </g>
  <g s:type="resistor_v" s:width="10" s:height="50" transform="translate(150,57)" id="cell_RC5">
    <s:alias val="r_v"/>
    <text x="15" y="15" s:attribute="ref" class="cell_RC5">RC5</text>
    <text x="15" y="30" s:attribute="value" class="cell_RC5">4.7k</text>
    <path d="M0,10 V40 H10 V10 Z" class="symbol cell_RC5"/>
    <path d="M5,0 V10 M5,40 V50" class="connect cell_RC5"/>
    <g s:x="5" s:y="0" s:pid="A" s:position="top"/>
    <g s:x="5" s:y="50" s:pid="B" s:position="bottom"/>
  </g>
  <g s:type="transistor_npn" s:width="32" s:height="32" transform="translate(317,360)" id="cell_Q6">
    <s:alias val="q_npn"/>
    <text x="35" y="10" s:attribute="ref" class="cell_Q6">Q6</text>
    <text x="35" y="25" s:attribute="value" class="cell_Q6">QNPN</text>
    <circle r="16" cx="16" cy="16" class="symbol cell_Q6"/>
    <path d="M0,16 H12 M12,6 V26" class="detail cell_Q6"/>
    <path d="m12,10 11,-8" class="detail cell_Q6"/>
    <path d="m12,21 11,8" class="detail cell_Q6"/>
    <path d="m23,29 -6,-1 3,-5 z" style="fill:#000" class="cell_Q6"/>
    <g s:x="22" s:y="2" s:pid="C" s:position="top"/>
    <g s:x="0" s:y="16" s:pid="B" s:position="left"/>
    <g s:x="23" s:y="29" s:pid="E" s:position="bottom"/>
  </g>
  <g s:type="resistor_v" s:width="10" s:height="50" transform="translate(302,290)" id="cell_RB1">
    <s:alias val="r_v"/>
    <text x="15" y="15" s:attribute="ref" class="cell_RB1">RB1</text>
    <text x="15" y="30" s:attribute="value" class="cell_RB1">2.2k</text>
    <path d="M0,10 V40 H10 V10 Z" class="symbol cell_RB1"/>
    <path d="M5,0 V10 M5,40 V50" class="connect cell_RB1"/>
    <g s:x="5" s:y="0" s:pid="A" s:position="top"/>
    <g s:x="5" s:y="50" s:pid="B" s:position="bottom"/>
  </g>
  <g s:type="resistor_v" s:width="10" s:height="50" transform="translate(302,411)" id="cell_RB2">
    <s:alias val="r_v"/>
    <text x="15" y="15" s:attribute="ref" class="cell_RB2">RB2</text>
    <text x="15" y="30" s:attribute="value" class="cell_RB2">1k</text>
    <path d="M0,10 V40 H10 V10 Z" class="symbol cell_RB2"/>
    <path d="M5,0 V10 M5,40 V50" class="connect cell_RB2"/>
    <g s:x="5" s:y="0" s:pid="A" s:position="top"/>
    <g s:x="5" s:y="50" s:pid="B" s:position="bottom"/>
  </g>
  <g s:type="resistor_v" s:width="10" s:height="50" transform="translate(302,138)" id="cell_RBIAS">
    <s:alias val="r_v"/>
    <text x="15" y="15" s:attribute="ref" class="cell_RBIAS">RBIAS</text>
    <text x="15" y="30" s:attribute="value" class="cell_RBIAS">2.2k</text>
    <path d="M0,10 V40 H10 V10 Z" class="symbol cell_RBIAS"/>
    <path d="M5,0 V10 M5,40 V50" class="connect cell_RBIAS"/>
    <g s:x="5" s:y="0" s:pid="A" s:position="top"/>
    <g s:x="5" s:y="50" s:pid="B" s:position="bottom"/>
  </g>
  <g s:type="vee" s:width="20" s:height="30" transform="translate(297,628)" id="cell_vee_11">
    <s:alias val="vee"/>
    <text x="10" y="10" class="nodelabel cell_vee_11" s:attribute="name">VEE</text>
    <path d="M0,0 H20 L10,-15 Z M10,-15 V-30" class="cell_vee_11"/>
    <g s:x="10" s:y="-30" s:pid="A" s:position="top"/>
  </g>
  <g s:type="resistor_v" s:width="10" s:height="50" transform="translate(302,523)" id="cell_RBIAS2">
    <s:alias val="r_v"/>
    <text x="15" y="15" s:attribute="ref" class="cell_RBIAS2">RBIAS2</text>
    <text x="15" y="30" s:attribute="value" class="cell_RBIAS2">2.2k</text>
    <path d="M0,10 V40 H10 V10 Z" class="symbol cell_RBIAS2"/>
    <path d="M5,0 V10 M5,40 V50" class="connect cell_RBIAS2"/>
    <g s:x="5" s:y="0" s:pid="A" s:position="top"/>
    <g s:x="5" s:y="50" s:pid="B" s:position="bottom"/>
  </g>
  <g s:type="vcc" s:width="20" s:height="30" transform="translate(367,159)" id="cell_vcc_12">
    <s:alias val="vcc"/>
    <text x="10" y="-4" class="nodelabel cell_vcc_12" s:attribute="name">VCC</text>
    <path d="M0,0 H20 L10,15 Z M10,15 V30" class="cell_vcc_12"/>
    <g s:x="10" s:y="30" s:pid="A" s:position="bottom"/>
  </g>
  <g s:type="transistor_npn" s:width="32" s:height="32" transform="translate(355,228)" id="cell_Q7">
    <s:alias val="q_npn"/>
    <text x="35" y="10" s:attribute="ref" class="cell_Q7">Q7</text>
    <text x="35" y="25" s:attribute="value" class="cell_Q7">QNPN</text>
    <circle r="16" cx="16" cy="16" class="symbol cell_Q7"/>
    <path d="M0,16 H12 M12,6 V26" class="detail cell_Q7"/>
    <path d="m12,10 11,-8" class="detail cell_Q7"/>
    <path d="m12,21 11,8" class="detail cell_Q7"/>
    <path d="m23,29 -6,-1 3,-5 z" style="fill:#000" class="cell_Q7"/>
    <g s:x="22" s:y="2" s:pid="C" s:position="top"/>
    <g s:x="0" s:y="16" s:pid="B" s:position="left"/>
    <g s:x="23" s:y="29" s:pid="E" s:position="bottom"/>
  </g>
  <g s:type="transistor_pnp" s:width="32" s:height="32" transform="translate(355,481)" id="cell_Q8">
    <s:alias val="q_pnp"/>
    <text x="35" y="10" s:attribute="ref" class="cell_Q8">Q8</text>
    <text x="35" y="25" s:attribute="value" class="cell_Q8">QPNP</text>
    <circle r="16" cx="16" cy="16" class="symbol cell_Q8"/>
    <path d="M0,16 H12 M12,6 V26" class="detail cell_Q8"/>
    <path d="m12,10 11,-8" class="detail cell_Q8"/>
    <path d="m12,21 11,8" class="detail cell_Q8"/>
    <path d="m14,9 6,-1 -3,-5 z" style="fill:#000" class="cell_Q8"/>
    <g s:x="22" s:y="2" s:pid="C" s:position="top"/>
    <g s:x="0" s:y="16" s:pid="B" s:position="left"/>
    <g s:x="23" s:y="29" s:pid="E" s:position="bottom"/>
  </g>
  <g s:type="vee" s:width="20" s:height="30" transform="translate(426,548)" id="cell_vee_13">
    <s:alias val="vee"/>
    <text x="10" y="10" class="nodelabel cell_vee_13" s:attribute="name">VEE</text>
    <path d="M0,0 H20 L10,-15 Z M10,-15 V-30" class="cell_vee_13"/>
    <g s:x="10" s:y="-30" s:pid="A" s:position="top"/>
  </g>
  <g s:type="resistor_v" s:width="10" s:height="50" transform="translate(373,290)" id="cell_RDP">
    <s:alias val="r_v"/>
    <text x="15" y="15" s:attribute="ref" class="cell_RDP">RDP</text>
    <text x="15" y="30" s:attribute="value" class="cell_RDP">47</text>
    <path d="M0,10 V40 H10 V10 Z" class="symbol cell_RDP"/>
    <path d="M5,0 V10 M5,40 V50" class="connect cell_RDP"/>
    <g s:x="5" s:y="0" s:pid="A" s:position="top"/>
    <g s:x="5" s:y="50" s:pid="B" s:position="bottom"/>
  </g>
  <g s:type="resistor_v" s:width="10" s:height="50" transform="translate(373,523)" id="cell_RDN">
    <s:alias val="r_v"/>
    <text x="15" y="15" s:attribute="ref" class="cell_RDN">RDN</text>
    <text x="15" y="30" s:attribute="value" class="cell_RDN">47</text>
    <path d="M0,10 V40 H10 V10 Z" class="symbol cell_RDN"/>
    <path d="M5,0 V10 M5,40 V50" class="connect cell_RDN"/>
    <g s:x="5" s:y="0" s:pid="A" s:position="top"/>
    <g s:x="5" s:y="50" s:pid="B" s:position="bottom"/>
  </g>
  <g s:type="vcc" s:width="20" s:height="30" transform="translate(504,311)" id="cell_vcc_14">
    <s:alias val="vcc"/>
    <text x="10" y="-4" class="nodelabel cell_vcc_14" s:attribute="name">VCC</text>
    <path d="M0,0 H20 L10,15 Z M10,15 V30" class="cell_vcc_14"/>
    <g s:x="10" s:y="30" s:pid="A" s:position="bottom"/>
  </g>
  <g s:type="transistor_npn" s:width="32" s:height="32" transform="translate(492,360)" id="cell_Q9">
    <s:alias val="q_npn"/>
    <text x="35" y="10" s:attribute="ref" class="cell_Q9">Q9</text>
    <text x="35" y="25" s:attribute="value" class="cell_Q9">QNPNPWR</text>
    <circle r="16" cx="16" cy="16" class="symbol cell_Q9"/>
    <path d="M0,16 H12 M12,6 V26" class="detail cell_Q9"/>
    <path d="m12,10 11,-8" class="detail cell_Q9"/>
    <path d="m12,21 11,8" class="detail cell_Q9"/>
    <path d="m23,29 -6,-1 3,-5 z" style="fill:#000" class="cell_Q9"/>
    <g s:x="22" s:y="2" s:pid="C" s:position="top"/>
    <g s:x="0" s:y="16" s:pid="B" s:position="left"/>
    <g s:x="23" s:y="29" s:pid="E" s:position="bottom"/>
  </g>
  <g s:type="transistor_pnp" s:width="32" s:height="32" transform="translate(388,626)" id="cell_Q10">
    <s:alias val="q_pnp"/>
    <text x="35" y="10" s:attribute="ref" class="cell_Q10">Q10</text>
    <text x="35" y="25" s:attribute="value" class="cell_Q10">QPNPPWR</text>
    <circle r="16" cx="16" cy="16" class="symbol cell_Q10"/>
    <path d="M0,16 H12 M12,6 V26" class="detail cell_Q10"/>
    <path d="m12,10 11,-8" class="detail cell_Q10"/>
    <path d="m12,21 11,8" class="detail cell_Q10"/>
    <path d="m14,9 6,-1 -3,-5 z" style="fill:#000" class="cell_Q10"/>
    <g s:x="22" s:y="2" s:pid="C" s:position="top"/>
    <g s:x="0" s:y="16" s:pid="B" s:position="left"/>
    <g s:x="23" s:y="29" s:pid="E" s:position="bottom"/>
  </g>
  <g s:type="vee" s:width="20" s:height="30" transform="translate(317,708)" id="cell_vee_15">
    <s:alias val="vee"/>
    <text x="10" y="10" class="nodelabel cell_vee_15" s:attribute="name">VEE</text>
    <path d="M0,0 H20 L10,-15 Z M10,-15 V-30" class="cell_vee_15"/>
    <g s:x="10" s:y="-30" s:pid="A" s:position="top"/>
  </g>
  <g s:type="gnd" s:width="20" s:height="30" transform="translate(626,853)" id="cell_gnd_16">
    <s:alias val="gnd"/>
    <text x="30" y="20" class="nodelabel cell_gnd_16" s:attribute="name">GND</text>
    <path d="M0,0 H20 M3,5 H17 M7,10 H13 M10,0 V-15" class="cell_gnd_16"/>
    <g s:x="10" s:y="-15" s:pid="A" s:position="top"/>
  </g>
  <g s:type="resistor_v" s:width="10" s:height="50" transform="translate(631,758)" id="cell_RE9">
    <s:alias val="r_v"/>
    <text x="15" y="15" s:attribute="ref" class="cell_RE9">RE9</text>
    <text x="15" y="30" s:attribute="value" class="cell_RE9">0.22</text>
    <path d="M0,10 V40 H10 V10 Z" class="symbol cell_RE9"/>
    <path d="M5,0 V10 M5,40 V50" class="connect cell_RE9"/>
    <g s:x="5" s:y="0" s:pid="A" s:position="top"/>
    <g s:x="5" s:y="50" s:pid="B" s:position="bottom"/>
  </g>
  <g s:type="gnd" s:width="20" s:height="30" transform="translate(585,628)" id="cell_gnd_17">
    <s:alias val="gnd"/>
    <text x="30" y="20" class="nodelabel cell_gnd_17" s:attribute="name">GND</text>
    <path d="M0,0 H20 M3,5 H17 M7,10 H13 M10,0 V-15" class="cell_gnd_17"/>
    <g s:x="10" s:y="-15" s:pid="A" s:position="top"/>
  </g>
  <g s:type="resistor_v" s:width="10" s:height="50" transform="translate(526,603)" id="cell_RE10">
    <s:alias val="r_v"/>
    <text x="15" y="15" s:attribute="ref" class="cell_RE10">RE10</text>
    <text x="15" y="30" s:attribute="value" class="cell_RE10">0.22</text>
    <path d="M0,10 V40 H10 V10 Z" class="symbol cell_RE10"/>
    <path d="M5,0 V10 M5,40 V50" class="connect cell_RE10"/>
    <g s:x="5" s:y="0" s:pid="A" s:position="top"/>
    <g s:x="5" s:y="50" s:pid="B" s:position="bottom"/>
  </g>
  <g s:type="gnd" s:width="20" s:height="30" transform="translate(106,853)" id="cell_gnd_18">
    <s:alias val="gnd"/>
    <text x="30" y="20" class="nodelabel cell_gnd_18" s:attribute="name">GND</text>
    <path d="M0,0 H20 M3,5 H17 M7,10 H13 M10,0 V-15" class="cell_gnd_18"/>
    <g s:x="10" s:y="-15" s:pid="A" s:position="top"/>
  </g>
  <g s:type="resistor_v" s:width="10" s:height="50" transform="translate(12,758)" id="cell_RL">
    <s:alias val="r_v"/>
    <text x="15" y="15" s:attribute="ref" class="cell_RL">RL</text>
    <text x="15" y="30" s:attribute="value" class="cell_RL">8</text>
    <path d="M0,10 V40 H10 V10 Z" class="symbol cell_RL"/>
    <path d="M5,0 V10 M5,40 V50" class="connect cell_RL"/>
    <g s:x="5" s:y="0" s:pid="A" s:position="top"/>
    <g s:x="5" s:y="50" s:pid="B" s:position="bottom"/>
  </g>
  <g s:type="resistor_v" s:width="10" s:height="50" transform="translate(691,758)" id="cell_RZ">
    <s:alias val="r_v"/>
    <text x="15" y="15" s:attribute="ref" class="cell_RZ">RZ</text>
    <text x="15" y="30" s:attribute="value" class="cell_RZ">10</text>
    <path d="M0,10 V40 H10 V10 Z" class="symbol cell_RZ"/>
    <path d="M5,0 V10 M5,40 V50" class="connect cell_RZ"/>
    <g s:x="5" s:y="0" s:pid="A" s:position="top"/>
    <g s:x="5" s:y="50" s:pid="B" s:position="bottom"/>
  </g>
  <g s:type="gnd" s:width="20" s:height="30" transform="translate(686,923)" id="cell_gnd_19">
    <s:alias val="gnd"/>
    <text x="30" y="20" class="nodelabel cell_gnd_19" s:attribute="name">GND</text>
    <path d="M0,0 H20 M3,5 H17 M7,10 H13 M10,0 V-15" class="cell_gnd_19"/>
    <g s:x="10" s:y="-15" s:pid="A" s:position="top"/>
  </g>
  <g s:type="capacitor_v" s:width="30" s:height="50" transform="translate(681,838)" id="cell_CZ">
    <s:alias val="c_v"/>
    <text x="25" y="10" s:attribute="ref" class="cell_CZ">CZ</text>
    <text x="25" y="45" s:attribute="value" class="cell_CZ">100n</text>
    <path d="M0,20 H30 M0,30 H30" class="symbol cell_CZ"/>
    <path d="M15,0 V20 M15,30 V50" class="connect cell_CZ"/>
    <g s:x="15" s:y="0" s:pid="A" s:position="top"/>
    <g s:x="15" s:y="50" s:pid="B" s:position="bottom"/>
  </g>
  <g s:type="gnd" s:width="20" s:height="30" transform="translate(709,304)" id="cell_gnd_20">
    <s:alias val="gnd"/>
    <text x="30" y="20" class="nodelabel cell_gnd_20" s:attribute="name">GND</text>
    <path d="M0,0 H20 M3,5 H17 M7,10 H13 M10,0 V-15" class="cell_gnd_20"/>
    <g s:x="10" s:y="-15" s:pid="A" s:position="top"/>
  </g>
  <g s:type="resistor_v" s:width="10" s:height="50" transform="translate(714,219)" id="cell_RBI">
    <s:alias val="r_v"/>
    <text x="15" y="15" s:attribute="ref" class="cell_RBI">RBI</text>
    <text x="15" y="30" s:attribute="value" class="cell_RBI">100k</text>
    <path d="M0,10 V40 H10 V10 Z" class="symbol cell_RBI"/>
    <path d="M5,0 V10 M5,40 V50" class="connect cell_RBI"/>
    <g s:x="5" s:y="0" s:pid="A" s:position="top"/>
    <g s:x="5" s:y="50" s:pid="B" s:position="bottom"/>
  </g>
  <g s:type="inputExt" s:width="30" s:height="20" transform="translate(514,72)" id="cell_IN">
    <text x="15" y="-4" class="cell_IN" s:attribute="ref">IN</text>
    <s:alias val="$_inputExt_"/>
    <path d="M0,0 V20 H15 L30,10 15,0 Z" class="cell_IN"/>
    <g s:x="30" s:y="10" s:pid="Y" s:position="right"/>
  </g>
  <g s:type="outputExt" s:width="30" s:height="20" transform="translate(525,698)" id="cell_OUT">
    <text x="15" y="-4" class="cell_OUT" s:attribute="ref">OUT</text>
    <s:alias val="$_outputExt_"/>
    <path d="M30,0 V20 H15 L0,10 15,0 Z" class="cell_OUT"/>
    <g s:x="0" s:y="10" s:pid="A" s:position="left"/>
  </g>
  <line x1="669" x2="669" y1="189" y2="219" class="net_19"/>
  <line x1="544" x2="554" y1="82" y2="82" class="net_2"/>
  <line x1="554" x2="554" y1="82" y2="117" class="net_2"/>
  <line x1="554" x2="669" y1="117" y2="117" class="net_2"/>
  <circle cx="554" cy="117" r="2" style="fill:#000" class="net_2"/>
  <line x1="669" x2="669" y1="117" y2="137" class="net_2"/>
  <line x1="544" x2="554" y1="82" y2="82" class="net_2"/>
  <line x1="554" x2="554" y1="82" y2="138" class="net_2"/>
  <line x1="515" x2="515" y1="389" y2="708" class="net_3"/>
  <circle cx="515" cy="708" r="2" style="fill:#000" class="net_3"/>
  <line x1="515" x2="525" y1="708" y2="708" class="net_3"/>
  <line x1="411" x2="411" y1="655" y2="668" class="net_3"/>
  <line x1="411" x2="515" y1="668" y2="668" class="net_3"/>
  <line x1="515" x2="515" y1="668" y2="708" class="net_3"/>
  <circle cx="515" cy="668" r="2" style="fill:#000" class="net_3"/>
  <circle cx="515" cy="708" r="2" style="fill:#000" class="net_3"/>
  <line x1="515" x2="525" y1="708" y2="708" class="net_3"/>
  <line x1="531" x2="531" y1="653" y2="668" class="net_3"/>
  <line x1="531" x2="515" y1="668" y2="668" class="net_3"/>
  <line x1="515" x2="515" y1="668" y2="708" class="net_3"/>
  <circle cx="515" cy="708" r="2" style="fill:#000" class="net_3"/>
  <line x1="515" x2="525" y1="708" y2="708" class="net_3"/>
  <line x1="525" x2="515" y1="708" y2="708" class="net_3"/>
  <line x1="515" x2="515" y1="708" y2="748" class="net_3"/>
  <line x1="515" x2="64" y1="748" y2="748" class="net_3"/>
  <circle cx="515" cy="748" r="2" style="fill:#000" class="net_3"/>
  <circle cx="64" cy="748" r="2" style="fill:#000" class="net_3"/>
  <circle cx="515" cy="708" r="2" style="fill:#000" class="net_3"/>
  <line x1="64" x2="64" y1="748" y2="758" class="net_3"/>
  <line x1="525" x2="515" y1="708" y2="708" class="net_3"/>
  <line x1="515" x2="515" y1="708" y2="748" class="net_3"/>
  <line x1="515" x2="636" y1="748" y2="748" class="net_3"/>
  <circle cx="636" cy="748" r="2" style="fill:#000" class="net_3"/>
  <circle cx="515" cy="708" r="2" style="fill:#000" class="net_3"/>
  <line x1="636" x2="636" y1="748" y2="758" class="net_3"/>
  <line x1="525" x2="515" y1="708" y2="708" class="net_3"/>
  <line x1="515" x2="515" y1="708" y2="748" class="net_3"/>
  <line x1="515" x2="17" y1="748" y2="748" class="net_3"/>
  <circle cx="515" cy="708" r="2" style="fill:#000" class="net_3"/>
  <line x1="17" x2="17" y1="748" y2="758" class="net_3"/>
  <line x1="525" x2="515" y1="708" y2="708" class="net_3"/>
  <line x1="515" x2="515" y1="708" y2="748" class="net_3"/>
  <line x1="515" x2="696" y1="748" y2="748" class="net_3"/>
  <circle cx="515" cy="708" r="2" style="fill:#000" class="net_3"/>
  <line x1="696" x2="696" y1="748" y2="758" class="net_3"/>
  <line x1="64" x2="64" y1="888" y2="908" class="net_20"/>
  <line x1="64" x2="64" y1="808" y2="838" class="net_4"/>
  <line x1="64" x2="64" y1="808" y2="818" class="net_4"/>
  <line x1="64" x2="203" y1="818" y2="818" class="net_4"/>
  <line x1="203" x2="203" y1="818" y2="863" class="net_4"/>
  <circle cx="64" cy="818" r="2" style="fill:#000" class="net_4"/>
  <line x1="203" x2="193" y1="863" y2="863" class="net_4"/>
  <line x1="511" x2="511" y1="149" y2="127" class="net_6"/>
  <line x1="511" x2="531" y1="127" y2="127" class="net_6"/>
  <line x1="531" x2="531" y1="127" y2="209" class="net_6"/>
  <line x1="531" x2="614" y1="209" y2="209" class="net_6"/>
  <circle cx="511" cy="127" r="2" style="fill:#000" class="net_6"/>
  <circle cx="531" cy="209" r="2" style="fill:#000" class="net_6"/>
  <line x1="614" x2="614" y1="209" y2="230" class="net_6"/>
  <line x1="511" x2="511" y1="149" y2="127" class="net_6"/>
  <line x1="511" x2="449" y1="127" y2="127" class="net_6"/>
  <line x1="449" x2="449" y1="127" y2="209" class="net_6"/>
  <line x1="449" x2="459" y1="209" y2="209" class="net_6"/>
  <circle cx="459" cy="209" r="2" style="fill:#000" class="net_6"/>
  <line x1="459" x2="459" y1="209" y2="219" class="net_6"/>
  <line x1="489" x2="479" y1="163" y2="163" class="net_6"/>
  <line x1="479" x2="479" y1="163" y2="209" class="net_6"/>
  <line x1="479" x2="614" y1="209" y2="209" class="net_6"/>
  <circle cx="479" cy="209" r="2" style="fill:#000" class="net_6"/>
  <line x1="614" x2="614" y1="209" y2="230" class="net_6"/>
  <line x1="489" x2="479" y1="163" y2="163" class="net_6"/>
  <line x1="479" x2="479" y1="163" y2="209" class="net_6"/>
  <line x1="479" x2="459" y1="209" y2="209" class="net_6"/>
  <line x1="459" x2="459" y1="209" y2="219" class="net_6"/>
  <line x1="439" x2="459" y1="163" y2="163" class="net_6"/>
  <line x1="459" x2="459" y1="163" y2="209" class="net_6"/>
  <line x1="459" x2="614" y1="209" y2="209" class="net_6"/>
  <line x1="614" x2="614" y1="209" y2="230" class="net_6"/>
  <line x1="439" x2="459" y1="163" y2="163" class="net_6"/>
  <line x1="459" x2="459" y1="163" y2="219" class="net_6"/>
  <line x1="554" x2="554" y1="188" y2="244" class="net_5"/>
  <line x1="554" x2="592" y1="244" y2="244" class="net_5"/>
  <line x1="554" x2="554" y1="188" y2="199" class="net_5"/>
  <line x1="554" x2="719" y1="199" y2="199" class="net_5"/>
  <circle cx="554" cy="199" r="2" style="fill:#000" class="net_5"/>
  <line x1="719" x2="719" y1="199" y2="219" class="net_5"/>
  <line x1="417" x2="417" y1="149" y2="117" class="net_8"/>
  <line x1="417" x2="130" y1="117" y2="117" class="net_8"/>
  <line x1="130" x2="130" y1="117" y2="244" class="net_8"/>
  <circle cx="130" cy="244" r="2" style="fill:#000" class="net_8"/>
  <line x1="130" x2="175" y1="244" y2="244" class="net_8"/>
  <line x1="155" x2="155" y1="188" y2="199" class="net_8"/>
  <line x1="155" x2="130" y1="199" y2="199" class="net_8"/>
  <line x1="130" x2="130" y1="199" y2="244" class="net_8"/>
  <circle cx="130" cy="199" r="2" style="fill:#000" class="net_8"/>
  <circle cx="130" cy="244" r="2" style="fill:#000" class="net_8"/>
  <line x1="130" x2="175" y1="244" y2="244" class="net_8"/>
  <line x1="175" x2="130" y1="244" y2="244" class="net_8"/>
  <line x1="130" x2="130" y1="244" y2="279" class="net_8"/>
  <line x1="130" x2="171" y1="279" y2="279" class="net_8"/>
  <circle cx="130" cy="279" r="2" style="fill:#000" class="net_8"/>
  <circle cx="130" cy="244" r="2" style="fill:#000" class="net_8"/>
  <line x1="171" x2="171" y1="279" y2="849" class="net_8"/>
  <line x1="175" x2="130" y1="244" y2="244" class="net_8"/>
  <circle cx="130" cy="244" r="2" style="fill:#000" class="net_8"/>
  <line x1="130" x2="130" y1="244" y2="290" class="net_8"/>
  <line x1="170" x2="170" y1="960" y2="965" class="net_21"/>
  <line x1="615" x2="615" y1="257" y2="898" class="net_7"/>
  <line x1="615" x2="170" y1="898" y2="898" class="net_7"/>
  <circle cx="170" cy="898" r="2" style="fill:#000" class="net_7"/>
  <line x1="170" x2="170" y1="898" y2="908" class="net_7"/>
  <line x1="170" x2="170" y1="876" y2="908" class="net_7"/>
  <line x1="469" x2="469" y1="107" y2="199" class="net_22"/>
  <line x1="469" x2="512" y1="199" y2="199" class="net_22"/>
  <line x1="512" x2="512" y1="199" y2="176" class="net_22"/>
  <line x1="397" x2="397" y1="107" y2="199" class="net_23"/>
  <line x1="397" x2="416" y1="199" y2="199" class="net_23"/>
  <line x1="416" x2="416" y1="199" y2="176" class="net_23"/>
  <line x1="459" x2="459" y1="269" y2="289" class="net_24"/>
  <line x1="130" x2="130" y1="340" y2="361" class="net_25"/>
  <line x1="155" x2="155" y1="107" y2="127" class="net_9"/>
  <line x1="155" x2="197" y1="127" y2="127" class="net_9"/>
  <circle cx="155" cy="127" r="2" style="fill:#000" class="net_9"/>
  <circle cx="197" cy="127" r="2" style="fill:#000" class="net_9"/>
  <line x1="197" x2="197" y1="127" y2="230" class="net_9"/>
  <line x1="155" x2="155" y1="107" y2="138" class="net_9"/>
  <line x1="155" x2="155" y1="107" y2="127" class="net_9"/>
  <line x1="155" x2="307" y1="127" y2="127" class="net_9"/>
  <line x1="307" x2="307" y1="127" y2="138" class="net_9"/>
  <line x1="254" x2="254" y1="340" y2="346" class="net_26"/>
  <line x1="198" x2="198" y1="257" y2="279" class="net_10"/>
  <line x1="198" x2="254" y1="279" y2="279" class="net_10"/>
  <circle cx="198" cy="279" r="2" style="fill:#000" class="net_10"/>
  <line x1="254" x2="254" y1="279" y2="290" class="net_10"/>
  <line x1="198" x2="198" y1="257" y2="289" class="net_10"/>
  <line x1="198" x2="198" y1="341" y2="346" class="net_27"/>
  <line x1="155" x2="155" y1="52" y2="57" class="net_28"/>
  <line x1="307" x2="307" y1="188" y2="244" class="net_11"/>
  <circle cx="307" cy="244" r="2" style="fill:#000" class="net_11"/>
  <line x1="307" x2="355" y1="244" y2="244" class="net_11"/>
  <line x1="355" x2="307" y1="244" y2="244" class="net_11"/>
  <line x1="307" x2="307" y1="244" y2="279" class="net_11"/>
  <line x1="307" x2="339" y1="279" y2="279" class="net_11"/>
  <circle cx="307" cy="279" r="2" style="fill:#000" class="net_11"/>
  <circle cx="307" cy="244" r="2" style="fill:#000" class="net_11"/>
  <line x1="339" x2="339" y1="279" y2="362" class="net_11"/>
  <line x1="355" x2="307" y1="244" y2="244" class="net_11"/>
  <circle cx="307" cy="244" r="2" style="fill:#000" class="net_11"/>
  <line x1="307" x2="307" y1="244" y2="290" class="net_11"/>
  <line x1="307" x2="307" y1="340" y2="376" class="net_12"/>
  <circle cx="307" cy="376" r="2" style="fill:#000" class="net_12"/>
  <line x1="307" x2="317" y1="376" y2="376" class="net_12"/>
  <line x1="317" x2="307" y1="376" y2="376" class="net_12"/>
  <circle cx="307" cy="376" r="2" style="fill:#000" class="net_12"/>
  <line x1="307" x2="307" y1="376" y2="411" class="net_12"/>
  <line x1="307" x2="307" y1="573" y2="598" class="net_29"/>
  <line x1="340" x2="340" y1="389" y2="471" class="net_13"/>
  <line x1="340" x2="307" y1="471" y2="471" class="net_13"/>
  <line x1="307" x2="307" y1="471" y2="497" class="net_13"/>
  <circle cx="307" cy="471" r="2" style="fill:#000" class="net_13"/>
  <circle cx="307" cy="497" r="2" style="fill:#000" class="net_13"/>
  <line x1="307" x2="355" y1="497" y2="497" class="net_13"/>
  <line x1="307" x2="307" y1="461" y2="497" class="net_13"/>
  <circle cx="307" cy="497" r="2" style="fill:#000" class="net_13"/>
  <line x1="307" x2="355" y1="497" y2="497" class="net_13"/>
  <line x1="355" x2="307" y1="497" y2="497" class="net_13"/>
  <circle cx="307" cy="497" r="2" style="fill:#000" class="net_13"/>
  <line x1="307" x2="307" y1="497" y2="523" class="net_13"/>
  <line x1="377" x2="377" y1="189" y2="230" class="net_30"/>
  <line x1="377" x2="377" y1="483" y2="471" class="net_31"/>
  <line x1="377" x2="436" y1="471" y2="471" class="net_31"/>
  <line x1="436" x2="436" y1="471" y2="518" class="net_31"/>
  <line x1="378" x2="378" y1="257" y2="290" class="net_14"/>
  <line x1="378" x2="378" y1="510" y2="523" class="net_15"/>
  <line x1="514" x2="514" y1="341" y2="362" class="net_32"/>
  <line x1="410" x2="410" y1="628" y2="588" class="net_33"/>
  <line x1="410" x2="327" y1="588" y2="588" class="net_33"/>
  <line x1="327" x2="327" y1="588" y2="678" class="net_33"/>
  <line x1="636" x2="636" y1="808" y2="838" class="net_34"/>
  <line x1="531" x2="595" y1="588" y2="588" class="net_35"/>
  <line x1="595" x2="595" y1="588" y2="613" class="net_35"/>
  <line x1="531" x2="531" y1="588" y2="603" class="net_35"/>
  <line x1="17" x2="17" y1="808" y2="828" class="net_36"/>
  <line x1="17" x2="116" y1="828" y2="828" class="net_36"/>
  <line x1="116" x2="116" y1="828" y2="838" class="net_36"/>
  <line x1="696" x2="696" y1="888" y2="908" class="net_37"/>
  <line x1="696" x2="696" y1="808" y2="838" class="net_18"/>
  <line x1="719" x2="719" y1="269" y2="289" class="net_38"/>
  <line x1="378" x2="378" y1="340" y2="376" class="net_16"/>
  <line x1="378" x2="492" y1="376" y2="376" class="net_16"/>
  <line x1="378" x2="378" y1="573" y2="642" class="net_17"/>
  <line x1="378" x2="388" y1="642" y2="642" class="net_17"/>
</svg>
