<svg xmlns="http://www.w3.org/2000/svg" xmlns:xlink="http://www.w3.org/1999/xlink" xmlns:s="https://github.com/nturley/netlistsvg" width="495" height="1685.02">
  <style>svg {
    stroke: #000;
    fill: none;
  }
  text {
    fill: #000;
    stroke: none;
    font-size: 10px;
    font-weight: bold;
    font-family: "Courier New", monospace;
  }
  .nodelabel {
    text-anchor: middle;
  }
  .inputPortLabel {
    text-anchor: end;
  }
  .splitjoinBody {
    fill: #000;
  }
  .symbol {
    stroke-linejoin: round;
    stroke-linecap: round;
    stroke-width: 2;
  }
  .detail {
    stroke-linejoin: round;
    stroke-linecap: round;
    fill: #000;
  }</style>
  <g s:type="gnd" s:width="20" s:height="30" transform="translate(150,594)" id="cell_gnd_1">
    <s:alias val="gnd"/>
    <text x="30" y="20" class="nodelabel cell_gnd_1" s:attribute="name">GND</text>
    <path d="M0,0 H20 M3,5 H17 M7,10 H13 M10,0 V-15" class="cell_gnd_1"/>
    <g s:x="10" s:y="-15" s:pid="A" s:position="top"/>
  </g>
  <g s:type="voltage_source" s:width="32" s:height="52" transform="translate(92,313)" id="cell_VIN">
    <s:alias val="v"/>
    <text x="35" y="20" s:attribute="ref" class="cell_VIN">VIN</text>
    <text x="35" y="35" s:attribute="value" class="cell_VIN">1</text>
    <circle cx="16" cy="26" r="16" class="symbol cell_VIN"/>
    <path d="M12,22 H20 M16,18 V26" class="detail cell_VIN"/>
    <path d="M12,33 H20" class="detail cell_VIN"/>
    <path d="M16,0 V10 M16,42 V52" class="connect cell_VIN"/>
    <g s:x="16" s:y="0" s:pid="+" s:position="top"/>
    <g s:x="16" s:y="52" s:pid="-" s:position="bottom"/>
  </g>
  <g s:type="resistor_v" s:width="10" s:height="50" transform="translate(124,1158)" id="cell_RF">
    <s:alias val="r_v"/>
    <text x="15" y="15" s:attribute="ref" class="cell_RF">RF</text>
    <text x="15" y="30" s:attribute="value" class="cell_RF">22k</text>
    <path d="M0,10 V40 H10 V10 Z" class="symbol cell_RF"/>
    <path d="M5,0 V10 M5,40 V50" class="connect cell_RF"/>
    <g s:x="5" s:y="0" s:pid="A" s:position="top"/>
    <g s:x="5" s:y="50" s:pid="B" s:position="bottom"/>
  </g>
  <g s:type="gnd" s:width="20" s:height="30" transform="translate(262,1380)" id="cell_gnd_2">
    <s:alias val="gnd"/>
    <text x="30" y="20" class="nodelabel cell_gnd_2" s:attribute="name">GND</text>
    <path d="M0,0 H20 M3,5 H17 M7,10 H13 M10,0 V-15" class="cell_gnd_2"/>
    <g s:x="10" s:y="-15" s:pid="A" s:position="top"/>
  </g>
  <g s:type="resistor_v" s:width="10" s:height="50" transform="translate(195,1238)" id="cell_RG">
    <s:alias val="r_v"/>
    <text x="15" y="15" s:attribute="ref" class="cell_RG">RG</text>
    <text x="15" y="30" s:attribute="value" class="cell_RG">1k</text>
    <path d="M0,10 V40 H10 V10 Z" class="symbol cell_RG"/>
    <path d="M5,0 V10 M5,40 V50" class="connect cell_RG"/>
    <g s:x="5" s:y="0" s:pid="A" s:position="top"/>
    <g s:x="5" s:y="50" s:pid="B" s:position="bottom"/>
  </g>
  <g s:type="resistor_v" s:width="10" s:height="50" transform="translate(102,395)" id="cell_RIN">
    <s:alias val="r_v"/>
    <text x="15" y="15" s:attribute="ref" class="cell_RIN">RIN</text>
    <text x="15" y="30" s:attribute="value" class="cell_RIN">1k</text>
    <path d="M0,10 V40 H10 V10 Z" class="symbol cell_RIN"/>
    <path d="M5,0 V10 M5,40 V50" class="connect cell_RIN"/>
    <g s:x="5" s:y="0" s:pid="A" s:position="top"/>
    <g s:x="5" s:y="50" s:pid="B" s:position="bottom"/>
  </g>
  <g s:type="transistor_npn_ml" s:width="32" s:height="32" transform="translate(130,1065)" id="cell_Q1">
    <s:alias val="q_npn_ml"/>
    <text x="35" y="10" s:attribute="ref" class="cell_Q1">Q1</text>
    <text x="35" y="25" s:attribute="value" class="cell_Q1">QNPN</text>
    <circle r="16" cx="16" cy="16" class="symbol cell_Q1"/>
    <path d="M0,16 H12 M12,6 V26" class="detail cell_Q1"/>
    <path d="m12,10 11,-8" class="detail cell_Q1"/>
    <path d="m12,21 11,8" class="detail cell_Q1"/>
    <path d="m23,29 -6,-1 3,-5 z" style="fill:#000" class="cell_Q1"/>
    <g s:x="22" s:y="2" s:pid="C" s:position="top"/>
    <g s:x="0" s:y="16" s:pid="B" s:position="left" s:dir="output"/>
    <g s:x="23" s:y="29" s:pid="E" s:position="bottom"/>
  </g>
  <g s:type="transistor_npn_m" s:width="32" s:height="32" transform="translate(192,866)" id="cell_Q2">
    <s:alias val="q_npn_m"/>
    <text x="-3" y="10" s:attribute="ref" class="cell_Q2">Q2</text>
    <text x="-3" y="25" s:attribute="value" class="cell_Q2">QNPN</text>
    <circle r="16" cx="16" cy="16" class="symbol cell_Q2"/>
    <path d="M32,16 H20 M20,6 V26" class="detail cell_Q2"/>
    <path d="m20,10 -11,-8" class="detail cell_Q2"/>
    <path d="m20,21 -11,8" class="detail cell_Q2"/>
    <path d="m9,29 6,-1 -3,-5 z" style="fill:#000" class="cell_Q2"/>
    <g s:x="10" s:y="2" s:pid="C" s:position="top"/>
    <g s:x="32" s:y="16" s:pid="B" s:position="right" s:dir="output"/>
    <g s:x="9" s:y="29" s:pid="E" s:position="bottom"/>
  </g>
  <g s:type="vee" s:width="20" s:height="30" transform="translate(342,1240)" id="cell_vee_3">
    <s:alias val="vee"/>
    <text x="10" y="10" class="nodelabel cell_vee_3" s:attribute="name">VEE</text>
    <path d="M0,0 H20 L10,-15 Z M10,-15 V-30" class="cell_vee_3"/>
    <g s:x="10" s:y="-30" s:pid="A" s:position="top"/>
  </g>
  <g s:type="current_source" s:width="32" s:height="52" transform="translate(272,1138)" id="cell_ITAIL">
    <s:alias val="i"/>
    <text x="35" y="20" s:attribute="ref" class="cell_ITAIL">ITAIL</text>
    <text x="35" y="35" s:attribute="value" class="cell_ITAIL">2mA</text>
    <circle cx="16" cy="26" r="16" class="symbol cell_ITAIL"/>
    <path d="M16,34 V18" class="detail cell_ITAIL"/>
    <path d="m13,22 3,-5 3,5 z" style="fill:#000" class="cell_ITAIL"/>
    <path d="M16,0 V10 M16,42 V52" class="connect cell_ITAIL"/>
    <g s:x="16" s:y="0" s:pid="+" s:position="top"/>
    <g s:x="16" s:y="52" s:pid="-" s:position="bottom"/>
  </g>
  <g s:type="vcc" s:width="20" s:height="30" transform="translate(12,597)" id="cell_vcc_4">
    <s:alias val="vcc"/>
    <text x="10" y="-4" class="nodelabel cell_vcc_4" s:attribute="name">VCC</text>
    <path d="M0,0 H20 L10,15 Z M10,15 V30" class="cell_vcc_4"/>
    <g s:x="10" s:y="30" s:pid="A" s:position="bottom"/>
  </g>
  <g s:type="vcc" s:width="20" s:height="30" transform="translate(22,343)" id="cell_vcc_5">
    <s:alias val="vcc"/>
    <text x="10" y="-4" class="nodelabel cell_vcc_5" s:attribute="name">VCC</text>
    <path d="M0,0 H20 L10,15 Z M10,15 V30" class="cell_vcc_5"/>
    <g s:x="10" s:y="30" s:pid="A" s:position="bottom"/>
  </g>
  <g s:type="transistor_pnp_ml" s:width="32" s:height="32" transform="translate(68,1621)" id="cell_Q3">
    <s:alias val="q_pnp_ml"/>
    <text x="35" y="10" s:attribute="ref" class="cell_Q3">Q3</text>
    <text x="35" y="25" s:attribute="value" class="cell_Q3">QPNP</text>
    <circle r="16" cx="16" cy="16" class="symbol cell_Q3"/>
    <path d="M0,16 H12 M12,6 V26" class="detail cell_Q3"/>
    <path d="m12,10 11,-8" class="detail cell_Q3"/>
    <path d="m12,21 11,8" class="detail cell_Q3"/>
    <path d="m14,9 6,-1 -3,-5 z" style="fill:#000" class="cell_Q3"/>
    <g s:x="22" s:y="2" s:pid="C" s:position="top"/>
    <g s:x="0" s:y="16" s:pid="B" s:position="left" s:dir="output"/>
    <g s:x="23" s:y="29" s:pid="E" s:position="bottom"/>
  </g>
  <g s:type="transistor_pnp_m" s:width="32" s:height="32" transform="translate(68,515)" id="cell_Q4">
    <s:alias val="q_pnp_m"/>
    <text x="-3" y="10" s:attribute="ref" class="cell_Q4">Q4</text>
    <text x="-3" y="25" s:attribute="value" class="cell_Q4">QPNP</text>
    <circle r="16" cx="16" cy="16" class="symbol cell_Q4"/>
    <path d="M32,16 H20 M20,6 V26" class="detail cell_Q4"/>
    <path d="m20,10 -11,-8" class="detail cell_Q4"/>
    <path d="m20,21 -11,8" class="detail cell_Q4"/>
    <path d="m18,9 -6,-1 3,-5 z" style="fill:#000" class="cell_Q4"/>
    <g s:x="10" s:y="2" s:pid="C" s:position="top"/>
    <g s:x="32" s:y="16" s:pid="B" s:position="right" s:dir="output"/>
    <g s:x="9" s:y="29" s:pid="E" s:position="bottom"/>
  </g>
  <g s:type="gnd" s:width="20" s:height="30" transform="translate(120,1550)" id="cell_gnd_6">
    <s:alias val="gnd"/>
    <text x="30" y="20" class="nodelabel cell_gnd_6" s:attribute="name">GND</text>
    <path d="M0,0 H20 M3,5 H17 M7,10 H13 M10,0 V-15" class="cell_gnd_6"/>
    <g s:x="10" s:y="-15" s:pid="A" s:position="top"/>
  </g>
  <g s:type="resistor_v" s:width="10" s:height="50" transform="translate(120,1465)" id="cell_RCM1">
    <s:alias val="r_v"/>
    <text x="15" y="15" s:attribute="ref" class="cell_RCM1">RCM1</text>
    <text x="15" y="30" s:attribute="value" class="cell_RCM1">100Meg</text>
    <path d="M0,10 V40 H10 V10 Z" class="symbol cell_RCM1"/>
    <path d="M5,0 V10 M5,40 V50" class="connect cell_RCM1"/>
    <g s:x="5" s:y="0" s:pid="A" s:position="top"/>
    <g s:x="5" s:y="50" s:pid="B" s:position="bottom"/>
  </g>
  <g s:type="gnd" s:width="20" s:height="30" transform="translate(302,574)" id="cell_gnd_7">
    <s:alias val="gnd"/>
    <text x="30" y="20" class="nodelabel cell_gnd_7" s:attribute="name">GND</text>
    <path d="M0,0 H20 M3,5 H17 M7,10 H13 M10,0 V-15" class="cell_gnd_7"/>
    <g s:x="10" s:y="-15" s:pid="A" s:position="top"/>
  </g>
  <g s:type="resistor_v" s:width="10" s:height="50" transform="translate(232,489)" id="cell_RCM2">
    <s:alias val="r_v"/>
    <text x="15" y="15" s:attribute="ref" class="cell_RCM2">RCM2</text>
    <text x="15" y="30" s:attribute="value" class="cell_RCM2">100Meg</text>
    <path d="M0,10 V40 H10 V10 Z" class="symbol cell_RCM2"/>
    <path d="M5,0 V10 M5,40 V50" class="connect cell_RCM2"/>
    <g s:x="5" s:y="0" s:pid="A" s:position="top"/>
    <g s:x="5" s:y="50" s:pid="B" s:position="bottom"/>
  </g>
  <g s:type="transistor_npn" s:width="32" s:height="32" transform="translate(150,489)" id="cell_Q5">
    <s:alias val="q_npn"/>
    <text x="35" y="10" s:attribute="ref" class="cell_Q5">Q5</text>
    <text x="35" y="25" s:attribute="value" class="cell_Q5">QNPN</text>
    <circle r="16" cx="16" cy="16" class="symbol cell_Q5"/>
    <path d="M0,16 H12 M12,6 V26" class="detail cell_Q5"/>
    <path d="m12,10 11,-8" class="detail cell_Q5"/>
    <path d="m12,21 11,8" class="detail cell_Q5"/>
    <path d="m23,29 -6,-1 3,-5 z" style="fill:#000" class="cell_Q5"/>
    <g s:x="22" s:y="2" s:pid="C" s:position="top"/>
    <g s:x="0" s:y="16" s:pid="B" s:position="left"/>
    <g s:x="23" s:y="29" s:pid="E" s:position="bottom"/>
  </g>
  <g s:type="vee" s:width="20" s:height="30" transform="translate(288,751)" id="cell_vee_8">
    <s:alias val="vee"/>
    <text x="10" y="10" class="nodelabel cell_vee_8" s:attribute="name">VEE</text>
    <path d="M0,0 H20 L10,-15 Z M10,-15 V-30" class="cell_vee_8"/>
    <g s:x="10" s:y="-30" s:pid="A" s:position="top"/>
  </g>
  <g s:type="resistor_v" s:width="10" s:height="50" transform="translate(220,651)" id="cell_RE5">
    <s:alias val="r_v"/>
    <text x="15" y="15" s:attribute="ref" class="cell_RE5">RE5</text>
    <text x="15" y="30" s:attribute="value" class="cell_RE5">220</text>
    <path d="M0,10 V40 H10 V10 Z" class="symbol cell_RE5"/>
    <path d="M5,0 V10 M5,40 V50" class="connect cell_RE5"/>
    <g s:x="5" s:y="0" s:pid="A" s:position="top"/>
    <g s:x="5" s:y="50" s:pid="B" s:position="bottom"/>
  </g>
  <g s:type="vee" s:width="20" s:height="30" transform="translate(288,671)" id="cell_vee_9">
    <s:alias val="vee"/>
    <text x="10" y="10" class="nodelabel cell_vee_9" s:attribute="name">VEE</text>
    <path d="M0,0 H20 L10,-15 Z M10,-15 V-30" class="cell_vee_9"/>
    <g s:x="10" s:y="-30" s:pid="A" s:position="top"/>
  </g>
  <g s:type="current_source" s:width="32" s:height="52" transform="translate(220,569)" id="cell_IVAS">
    <s:alias val="i"/>
    <text x="35" y="20" s:attribute="ref" class="cell_IVAS">IVAS</text>
    <text x="35" y="35" s:attribute="value" class="cell_IVAS">6mA</text>
    <circle cx="16" cy="26" r="16" class="symbol cell_IVAS"/>
    <path d="M16,34 V18" class="detail cell_IVAS"/>
    <path d="m13,22 3,-5 3,5 z" style="fill:#000" class="cell_IVAS"/>
    <path d="M16,0 V10 M16,42 V52" class="connect cell_IVAS"/>
    <g s:x="16" s:y="0" s:pid="+" s:position="top"/>
    <g s:x="16" s:y="52" s:pid="-" s:position="bottom"/>
  </g>
  <g s:type="capacitor_v" s:width="30" s:height="50" transform="translate(124,142)" id="cell_CCOMP">
    <s:alias val="c_v"/>
    <text x="25" y="10" s:attribute="ref" class="cell_CCOMP">CCOMP</text>
    <text x="25" y="45" s:attribute="value" class="cell_CCOMP">100p</text>
    <path d="M0,20 H30 M0,30 H30" class="symbol cell_CCOMP"/>
    <path d="M15,0 V20 M15,30 V50" class="connect cell_CCOMP"/>
    <g s:x="15" s:y="0" s:pid="A" s:position="top"/>
    <g s:x="15" s:y="50" s:pid="B" s:position="bottom"/>
  </g>
  <g s:type="vcc" s:width="20" s:height="30" transform="translate(89,22)" id="cell_vcc_10">
    <s:alias val="vcc"/>
    <text x="10" y="-4" class="nodelabel cell_vcc_10" s:attribute="name">VCC</text>
    <path d="M0,0 H20 L10,15 Z M10,15 V30" class="cell_vcc_10"/>
    <g s:x="10" s:y="30" s:pid="A" s:position="bottom"/>
  </g>
  <g s:type="resistor_v" s:width="10" s:height="50" transform="translate(94,72)" id="cell_RC5">
    <s:alias val="r_v"/>
    <text x="15" y="15" s:attribute="ref" class="cell_RC5">RC5</text>
    <text x="15" y="30" s:attribute="value" class="cell_RC5">4.7k</text>
    <path d="M0,10 V40 H10 V10 Z" class="symbol cell_RC5"/>
    <path d="M5,0 V10 M5,40 V50" class="connect cell_RC5"/>
    <g s:x="5" s:y="0" s:pid="A" s:position="top"/>
    <g s:x="5" s:y="50" s:pid="B" s:position="bottom"/>
  </g>
  <g s:type="transistor_npn" s:width="32" s:height="32" transform="translate(281,373)" id="cell_Q6">
    <s:alias val="q_npn"/>
    <text x="35" y="10" s:attribute="ref" class="cell_Q6">Q6</text>
    <text x="35" y="25" s:attribute="value" class="cell_Q6">QNPN</text>
    <circle r="16" cx="16" cy="16" class="symbol cell_Q6"/>
    <path d="M0,16 H12 M12,6 V26" class="detail cell_Q6"/>
    <path d="m12,10 11,-8" class="detail cell_Q6"/>
    <path d="m12,21 11,8" class="detail cell_Q6"/>
    <path d="m23,29 -6,-1 3,-5 z" style="fill:#000" class="cell_Q6"/>
    <g s:x="22" s:y="2" s:pid="C" s:position="top"/>
    <g s:x="0" s:y="16" s:pid="B" s:position="left"/>
    <g s:x="23" s:y="29" s:pid="E" s:position="bottom"/>
  </g>
  <g s:type="resistor_v" s:width="10" s:height="50" transform="translate(207,329)" id="cell_RB1">
    <s:alias val="r_v"/>
    <text x="15" y="15" s:attribute="ref" class="cell_RB1">RB1</text>
    <text x="15" y="30" s:attribute="value" class="cell_RB1">2.2k</text>
    <path d="M0,10 V40 H10 V10 Z" class="symbol cell_RB1"/>
    <path d="M5,0 V10 M5,40 V50" class="connect cell_RB1"/>
    <g s:x="5" s:y="0" s:pid="A" s:position="top"/>
    <g s:x="5" s:y="50" s:pid="B" s:position="bottom"/>
  </g>
  <g s:type="resistor_v" s:width="10" s:height="50" transform="translate(313,142)" id="cell_RB2">
    <s:alias val="r_v"/>
    <text x="15" y="15" s:attribute="ref" class="cell_RB2">RB2</text>
    <text x="15" y="30" s:attribute="value" class="cell_RB2">1k</text>
    <path d="M0,10 V40 H10 V10 Z" class="symbol cell_RB2"/>
    <path d="M5,0 V10 M5,40 V50" class="connect cell_RB2"/>
    <g s:x="5" s:y="0" s:pid="A" s:position="top"/>
    <g s:x="5" s:y="50" s:pid="B" s:position="bottom"/>
  </g>
  <g s:type="resistor_v" s:width="10" s:height="50" transform="translate(94,233)" id="cell_RBIAS">
    <s:alias val="r_v"/>
    <text x="15" y="15" s:attribute="ref" class="cell_RBIAS">RBIAS</text>
    <text x="15" y="30" s:attribute="value" class="cell_RBIAS">2.2k</text>
    <path d="M0,10 V40 H10 V10 Z" class="symbol cell_RBIAS"/>
    <path d="M5,0 V10 M5,40 V50" class="connect cell_RBIAS"/>
    <g s:x="5" s:y="0" s:pid="A" s:position="top"/>
    <g s:x="5" s:y="50" s:pid="B" s:position="bottom"/>
  </g>
  <g s:type="vee" s:width="20" s:height="30" transform="translate(414,338)" id="cell_vee_11">
    <s:alias val="vee"/>
    <text x="10" y="10" class="nodelabel cell_vee_11" s:attribute="name">VEE</text>
    <path d="M0,0 H20 L10,-15 Z M10,-15 V-30" class="cell_vee_11"/>
    <g s:x="10" s:y="-30" s:pid="A" s:position="top"/>
  </g>
  <g s:type="resistor_v" s:width="10" s:height="50" transform="translate(419,238)" id="cell_RBIAS2">
    <s:alias val="r_v"/>
    <text x="15" y="15" s:attribute="ref" class="cell_RBIAS2">RBIAS2</text>
    <text x="15" y="30" s:attribute="value" class="cell_RBIAS2">2.2k</text>
    <path d="M0,10 V40 H10 V10 Z" class="symbol cell_RBIAS2"/>
    <path d="M5,0 V10 M5,40 V50" class="connect cell_RBIAS2"/>
    <g s:x="5" s:y="0" s:pid="A" s:position="top"/>
    <g s:x="5" s:y="50" s:pid="B" s:position="bottom"/>
  </g>
  <g s:type="vcc" s:width="20" s:height="30" transform="translate(186,72)" id="cell_vcc_12">
    <s:alias val="vcc"/>
    <text x="10" y="-4" class="nodelabel cell_vcc_12" s:attribute="name">VCC</text>
    <path d="M0,0 H20 L10,15 Z M10,15 V30" class="cell_vcc_12"/>
    <g s:x="10" s:y="30" s:pid="A" s:position="bottom"/>
  </g>
  <g s:type="transistor_npn" s:width="32" s:height="32" transform="translate(174,277)" id="cell_Q7">
    <s:alias val="q_npn"/>
    <text x="35" y="10" s:attribute="ref" class="cell_Q7">Q7</text>
    <text x="35" y="25" s:attribute="value" class="cell_Q7">QNPN</text>
    <circle r="16" cx="16" cy="16" class="symbol cell_Q7"/>
    <path d="M0,16 H12 M12,6 V26" class="detail cell_Q7"/>
    <path d="m12,10 11,-8" class="detail cell_Q7"/>
    <path d="m12,21 11,8" class="detail cell_Q7"/>
    <path d="m23,29 -6,-1 3,-5 z" style="fill:#000" class="cell_Q7"/>
    <g s:x="22" s:y="2" s:pid="C" s:position="top"/>
    <g s:x="0" s:y="16" s:pid="B" s:position="left"/>
    <g s:x="23" s:y="29" s:pid="E" s:position="bottom"/>
  </g>
  <g s:type="vee" s:width="20" s:height="30" transform="translate(463,178)" id="cell_vee_13">
    <s:alias val="vee"/>
    <text x="10" y="10" class="nodelabel cell_vee_13" s:attribute="name">VEE</text>
    <path d="M0,0 H20 L10,-15 Z M10,-15 V-30" class="cell_vee_13"/>
    <g s:x="10" s:y="-30" s:pid="A" s:position="top"/>
  </g>
  <g s:type="transistor_pnp" s:width="32" s:height="32" transform="translate(381,186)" id="cell_Q8">
    <s:alias val="q_pnp"/>
    <text x="35" y="10" s:attribute="ref" class="cell_Q8">Q8</text>
    <text x="35" y="25" s:attribute="value" class="cell_Q8">QPNP</text>
    <circle r="16" cx="16" cy="16" class="symbol cell_Q8"/>
    <path d="M0,16 H12 M12,6 V26" class="detail cell_Q8"/>
    <path d="m12,10 11,-8" class="detail cell_Q8"/>
    <path d="m12,21 11,8" class="detail cell_Q8"/>
    <path d="m14,9 6,-1 -3,-5 z" style="fill:#000" class="cell_Q8"/>
    <g s:x="22" s:y="2" s:pid="C" s:position="top"/>
    <g s:x="0" s:y="16" s:pid="B" s:position="left"/>
    <g s:x="23" s:y="29" s:pid="E" s:position="bottom"/>
  </g>
  <g s:type="resistor_v" s:width="10" s:height="50" transform="translate(213,409)" id="cell_RDP">
    <s:alias val="r_v"/>
    <text x="15" y="15" s:attribute="ref" class="cell_RDP">RDP</text>
    <text x="15" y="30" s:attribute="value" class="cell_RDP">47</text>
    <path d="M0,10 V40 H10 V10 Z" class="symbol cell_RDP"/>
    <path d="M5,0 V10 M5,40 V50" class="connect cell_RDP"/>
    <g s:x="5" s:y="0" s:pid="A" s:position="top"/>
    <g s:x="5" s:y="50" s:pid="B" s:position="bottom"/>
  </g>
  <g s:type="resistor_v" s:width="10" s:height="50" transform="translate(82,577)" id="cell_RDN">
    <s:alias val="r_v"/>
    <text x="15" y="15" s:attribute="ref" class="cell_RDN">RDN</text>
    <text x="15" y="30" s:attribute="value" class="cell_RDN">47</text>
    <path d="M0,10 V40 H10 V10 Z" class="symbol cell_RDN"/>
    <path d="M5,0 V10 M5,40 V50" class="connect cell_RDN"/>
    <g s:x="5" s:y="0" s:pid="A" s:position="top"/>
    <g s:x="5" s:y="50" s:pid="B" s:position="bottom"/>
  </g>
  <g s:type="vcc" s:width="20" s:height="30" transform="translate(248,806)" id="cell_vcc_14">
    <s:alias val="vcc"/>
    <text x="10" y="-4" class="nodelabel cell_vcc_14" s:attribute="name">VCC</text>
    <path d="M0,0 H20 L10,15 Z M10,15 V30" class="cell_vcc_14"/>
    <g s:x="10" s:y="30" s:pid="A" s:position="bottom"/>
  </g>
  <g s:type="transistor_npn" s:width="32" s:height="32" transform="translate(288,856)" id="cell_Q9">
    <s:alias val="q_npn"/>
    <text x="35" y="10" s:attribute="ref" class="cell_Q9">Q9</text>
    <text x="35" y="25" s:attribute="value" class="cell_Q9">QNPNPWR</text>
    <circle r="16" cx="16" cy="16" class="symbol cell_Q9"/>
    <path d="M0,16 H12 M12,6 V26" class="detail cell_Q9"/>
    <path d="m12,10 11,-8" class="detail cell_Q9"/>
    <path d="m12,21 11,8" class="detail cell_Q9"/>
    <path d="m23,29 -6,-1 3,-5 z" style="fill:#000" class="cell_Q9"/>
    <g s:x="22" s:y="2" s:pid="C" s:position="top"/>
    <g s:x="0" s:y="16" s:pid="B" s:position="left"/>
    <g s:x="23" s:y="29" s:pid="E" s:position="bottom"/>
  </g>
  <g s:type="vee" s:width="20" s:height="30" transform="translate(222,1033)" id="cell_vee_15">
    <s:alias val="vee"/>
    <text x="10" y="10" class="nodelabel cell_vee_15" s:attribute="name">VEE</text>
    <path d="M0,0 H20 L10,-15 Z M10,-15 V-30" class="cell_vee_15"/>
    <g s:x="10" s:y="-30" s:pid="A" s:position="top"/>
  </g>
  <g s:type="transistor_pnp" s:width="32" s:height="32" transform="translate(130,1003)" id="cell_Q10">
    <s:alias val="q_pnp"/>
    <text x="35" y="10" s:attribute="ref" class="cell_Q10">Q10</text>
    <text x="35" y="25" s:attribute="value" class="cell_Q10">QPNPPWR</text>
    <circle r="16" cx="16" cy="16" class="symbol cell_Q10"/>
    <path d="M0,16 H12 M12,6 V26" class="detail cell_Q10"/>
    <path d="m12,10 11,-8" class="detail cell_Q10"/>
    <path d="m12,21 11,8" class="detail cell_Q10"/>
    <path d="m14,9 6,-1 -3,-5 z" style="fill:#000" class="cell_Q10"/>
    <g s:x="22" s:y="2" s:pid="C" s:position="top"/>
    <g s:x="0" s:y="16" s:pid="B" s:position="left"/>
    <g s:x="23" s:y="29" s:pid="E" s:position="bottom"/>
  </g>
  <g s:type="gnd" s:width="20" s:height="30" transform="translate(204,746)" id="cell_gnd_16">
    <s:alias val="gnd"/>
    <text x="30" y="20" class="nodelabel cell_gnd_16" s:attribute="name">GND</text>
    <path d="M0,0 H20 M3,5 H17 M7,10 H13 M10,0 V-15" class="cell_gnd_16"/>
    <g s:x="10" s:y="-15" s:pid="A" s:position="top"/>
  </g>
  <g s:type="resistor_v" s:width="10" s:height="50" transform="translate(146,644)" id="cell_RE9">
    <s:alias val="r_v"/>
    <text x="15" y="15" s:attribute="ref" class="cell_RE9">RE9</text>
    <text x="15" y="30" s:attribute="value" class="cell_RE9">0.22</text>
    <path d="M0,10 V40 H10 V10 Z" class="symbol cell_RE9"/>
    <path d="M5,0 V10 M5,40 V50" class="connect cell_RE9"/>
    <g s:x="5" s:y="0" s:pid="A" s:position="top"/>
    <g s:x="5" s:y="50" s:pid="B" s:position="bottom"/>
  </g>
  <g s:type="gnd" s:width="20" s:height="30" transform="translate(272,1235)" id="cell_gnd_17">
    <s:alias val="gnd"/>
    <text x="30" y="20" class="nodelabel cell_gnd_17" s:attribute="name">GND</text>
    <path d="M0,0 H20 M3,5 H17 M7,10 H13 M10,0 V-15" class="cell_gnd_17"/>
    <g s:x="10" s:y="-15" s:pid="A" s:position="top"/>
  </g>
  <g s:type="resistor_v" s:width="10" s:height="50" transform="translate(257,1285)" id="cell_RE10">
    <s:alias val="r_v"/>
    <text x="15" y="15" s:attribute="ref" class="cell_RE10">RE10</text>
    <text x="15" y="30" s:attribute="value" class="cell_RE10">0.22</text>
    <path d="M0,10 V40 H10 V10 Z" class="symbol cell_RE10"/>
    <path d="M5,0 V10 M5,40 V50" class="connect cell_RE10"/>
    <g s:x="5" s:y="0" s:pid="A" s:position="top"/>
    <g s:x="5" s:y="50" s:pid="B" s:position="bottom"/>
  </g>
  <g s:type="gnd" s:width="20" s:height="30" transform="translate(192,1390)" id="cell_gnd_18">
    <s:alias val="gnd"/>
    <text x="30" y="20" class="nodelabel cell_gnd_18" s:attribute="name">GND</text>
    <path d="M0,0 H20 M3,5 H17 M7,10 H13 M10,0 V-15" class="cell_gnd_18"/>
    <g s:x="10" s:y="-15" s:pid="A" s:position="top"/>
  </g>
  <g s:type="resistor_v" s:width="10" s:height="50" transform="translate(133,1238)" id="cell_RL">
    <s:alias val="r_v"/>
    <text x="15" y="15" s:attribute="ref" class="cell_RL">RL</text>
    <text x="15" y="30" s:attribute="value" class="cell_RL">8</text>
    <path d="M0,10 V40 H10 V10 Z" class="symbol cell_RL"/>
    <path d="M5,0 V10 M5,40 V50" class="connect cell_RL"/>
    <g s:x="5" s:y="0" s:pid="A" s:position="top"/>
    <g s:x="5" s:y="50" s:pid="B" s:position="bottom"/>
  </g>
  <g s:type="resistor_v" s:width="10" s:height="50" transform="translate(130,1385)" id="cell_RZ">
    <s:alias val="r_v"/>
    <text x="15" y="15" s:attribute="ref" class="cell_RZ">RZ</text>
    <text x="15" y="30" s:attribute="value" class="cell_RZ">10</text>
    <path d="M0,10 V40 H10 V10 Z" class="symbol cell_RZ"/>
    <path d="M5,0 V10 M5,40 V50" class="connect cell_RZ"/>
    <g s:x="5" s:y="0" s:pid="A" s:position="top"/>
    <g s:x="5" s:y="50" s:pid="B" s:position="bottom"/>
  </g>
  <g s:type="gnd" s:width="20" s:height="30" transform="translate(211,1540)" id="cell_gnd_19">
    <s:alias val="gnd"/>
    <text x="30" y="20" class="nodelabel cell_gnd_19" s:attribute="name">GND</text>
    <path d="M0,0 H20 M3,5 H17 M7,10 H13 M10,0 V-15" class="cell_gnd_19"/>
    <g s:x="10" s:y="-15" s:pid="A" s:position="top"/>
  </g>
  <g s:type="capacitor_v" s:width="30" s:height="50" transform="translate(206,1455)" id="cell_CZ">
    <s:alias val="c_v"/>
    <text x="25" y="10" s:attribute="ref" class="cell_CZ">CZ</text>
    <text x="25" y="45" s:attribute="value" class="cell_CZ">100n</text>
    <path d="M0,20 H30 M0,30 H30" class="symbol cell_CZ"/>
    <path d="M15,0 V20 M15,30 V50" class="connect cell_CZ"/>
    <g s:x="15" s:y="0" s:pid="A" s:position="top"/>
    <g s:x="15" s:y="50" s:pid="B" s:position="bottom"/>
  </g>
  <g s:type="gnd" s:width="20" s:height="30" transform="translate(192,953)" id="cell_gnd_20">
    <s:alias val="gnd"/>
    <text x="30" y="20" class="nodelabel cell_gnd_20" s:attribute="name">GND</text>
    <path d="M0,0 H20 M3,5 H17 M7,10 H13 M10,0 V-15" class="cell_gnd_20"/>
    <g s:x="10" s:y="-15" s:pid="A" s:position="top"/>
  </g>
  <g s:type="resistor_v" s:width="10" s:height="50" transform="translate(130,741)" id="cell_RBI">
    <s:alias val="r_v"/>
    <text x="15" y="15" s:attribute="ref" class="cell_RBI">RBI</text>
    <text x="15" y="30" s:attribute="value" class="cell_RBI">100k</text>
    <path d="M0,10 V40 H10 V10 Z" class="symbol cell_RBI"/>
    <path d="M5,0 V10 M5,40 V50" class="connect cell_RBI"/>
    <g s:x="5" s:y="0" s:pid="A" s:position="top"/>
    <g s:x="5" s:y="50" s:pid="B" s:position="bottom"/>
  </g>
  <g s:type="inputExt" s:width="30" s:height="20" transform="translate(12,293)" id="cell_IN">
    <text x="15" y="-4" class="cell_IN" s:attribute="ref">IN</text>
    <s:alias val="$_inputExt_"/>
    <path d="M0,0 V20 H15 L30,10 15,0 Z" class="cell_IN"/>
    <g s:x="30" s:y="10" s:pid="Y" s:position="right"/>
  </g>
  <g s:type="outputExt" s:width="30" s:height="20" transform="translate(192,1138)" id="cell_OUT">
    <text x="15" y="-4" class="cell_OUT" s:attribute="ref">OUT</text>
    <s:alias val="$_outputExt_"/>
    <path d="M30,0 V20 H15 L0,10 15,0 Z" class="cell_OUT"/>
    <g s:x="0" s:y="10" s:pid="A" s:position="left"/>
  </g>
  <line x1="108" x2="108" y1="365" y2="375" class="net_19"/>
  <line x1="108" x2="130" y1="375" y2="375" class="net_19"/>
  <line x1="130" x2="130" y1="375" y2="569" class="net_19"/>
  <line x1="130" x2="160" y1="569" y2="569" class="net_19"/>
  <line x1="160" x2="160" y1="569" y2="579" class="net_19"/>
  <line x1="42" x2="108" y1="303" y2="303" class="net_2"/>
  <line x1="108" x2="108" y1="303" y2="313" class="net_2"/>
  <line x1="42" x2="82" y1="303" y2="303" class="net_2"/>
  <line x1="82" x2="82" y1="303" y2="385" class="net_2"/>
  <line x1="82" x2="107" y1="385" y2="385" class="net_2"/>
  <circle cx="82" cy="303" r="2" style="fill:#000" class="net_2"/>
  <line x1="107" x2="107" y1="385" y2="395" class="net_2"/>
  <line x1="311" x2="311" y1="885" y2="1118" class="net_3"/>
  <line x1="311" x2="182" y1="1118" y2="1118" class="net_3"/>
  <line x1="182" x2="182" y1="1118" y2="1148" class="net_3"/>
  <circle cx="182" cy="1118" r="2" style="fill:#000" class="net_3"/>
  <line x1="182" x2="192" y1="1148" y2="1148" class="net_3"/>
  <line x1="262" x2="262" y1="1335" y2="1345" class="net_3"/>
  <line x1="262" x2="242" y1="1345" y2="1345" class="net_3"/>
  <line x1="242" x2="242" y1="1345" y2="1118" class="net_3"/>
  <line x1="242" x2="182" y1="1118" y2="1118" class="net_3"/>
  <line x1="182" x2="182" y1="1118" y2="1148" class="net_3"/>
  <circle cx="242" cy="1118" r="2" style="fill:#000" class="net_3"/>
  <line x1="182" x2="192" y1="1148" y2="1148" class="net_3"/>
  <line x1="192" x2="129" y1="1148" y2="1148" class="net_3"/>
  <line x1="129" x2="129" y1="1148" y2="1158" class="net_3"/>
  <line x1="192" x2="182" y1="1148" y2="1148" class="net_3"/>
  <line x1="182" x2="182" y1="1148" y2="1045" class="net_3"/>
  <line x1="182" x2="153" y1="1045" y2="1045" class="net_3"/>
  <circle cx="182" cy="1045" r="2" style="fill:#000" class="net_3"/>
  <line x1="153" x2="153" y1="1045" y2="1032" class="net_3"/>
  <line x1="192" x2="182" y1="1148" y2="1148" class="net_3"/>
  <line x1="182" x2="182" y1="1148" y2="634" class="net_3"/>
  <line x1="182" x2="151" y1="634" y2="634" class="net_3"/>
  <circle cx="182" cy="1148" r="2" style="fill:#000" class="net_3"/>
  <line x1="151" x2="151" y1="634" y2="644" class="net_3"/>
  <line x1="192" x2="182" y1="1148" y2="1148" class="net_3"/>
  <line x1="182" x2="182" y1="1148" y2="1228" class="net_3"/>
  <line x1="182" x2="138" y1="1228" y2="1228" class="net_3"/>
  <circle cx="182" cy="1228" r="2" style="fill:#000" class="net_3"/>
  <line x1="138" x2="138" y1="1228" y2="1238" class="net_3"/>
  <line x1="192" x2="182" y1="1148" y2="1148" class="net_3"/>
  <line x1="182" x2="182" y1="1148" y2="1375" class="net_3"/>
  <line x1="182" x2="135" y1="1375" y2="1375" class="net_3"/>
  <line x1="135" x2="135" y1="1375" y2="1385" class="net_3"/>
  <line x1="200" x2="200" y1="1288" y2="1355" class="net_20"/>
  <line x1="200" x2="272" y1="1355" y2="1355" class="net_20"/>
  <line x1="272" x2="272" y1="1355" y2="1365" class="net_20"/>
  <line x1="129" x2="129" y1="1208" y2="1218" class="net_4"/>
  <line x1="129" x2="200" y1="1218" y2="1218" class="net_4"/>
  <line x1="200" x2="200" y1="1218" y2="1228" class="net_4"/>
  <line x1="200" x2="200" y1="1228" y2="1228" class="net_4"/>
  <circle cx="200" cy="1218" r="2" style="fill:#000" class="net_4"/>
  <line x1="200" x2="200" y1="1228" y2="1238" class="net_4"/>
  <line x1="129" x2="129" y1="1208" y2="1218" class="net_4"/>
  <line x1="129" x2="252" y1="1218" y2="1218" class="net_4"/>
  <line x1="252" x2="252" y1="1218" y2="882" class="net_4"/>
  <line x1="252" x2="224" y1="882" y2="882" class="net_4"/>
  <line x1="90" x2="90" y1="1623" y2="1601" class="net_6"/>
  <line x1="90" x2="110" y1="1601" y2="1601" class="net_6"/>
  <line x1="110" x2="110" y1="1601" y2="1055" class="net_6"/>
  <line x1="110" x2="152" y1="1055" y2="1055" class="net_6"/>
  <circle cx="110" cy="1601" r="2" style="fill:#000" class="net_6"/>
  <line x1="152" x2="152" y1="1055" y2="1067" class="net_6"/>
  <line x1="90" x2="90" y1="1623" y2="1601" class="net_6"/>
  <line x1="90" x2="110" y1="1601" y2="1601" class="net_6"/>
  <line x1="110" x2="110" y1="1601" y2="1455" class="net_6"/>
  <line x1="110" x2="125" y1="1455" y2="1455" class="net_6"/>
  <line x1="125" x2="125" y1="1455" y2="1465" class="net_6"/>
  <line x1="68" x2="58" y1="1637" y2="1637" class="net_6"/>
  <line x1="58" x2="58" y1="1637" y2="1611" class="net_6"/>
  <line x1="58" x2="110" y1="1611" y2="1611" class="net_6"/>
  <line x1="110" x2="110" y1="1611" y2="1055" class="net_6"/>
  <line x1="110" x2="152" y1="1055" y2="1055" class="net_6"/>
  <circle cx="58" cy="1637" r="2" style="fill:#000" class="net_6"/>
  <circle cx="110" cy="1611" r="2" style="fill:#000" class="net_6"/>
  <line x1="152" x2="152" y1="1055" y2="1067" class="net_6"/>
  <line x1="68" x2="58" y1="1637" y2="1637" class="net_6"/>
  <line x1="58" x2="58" y1="1637" y2="1663" class="net_6"/>
  <line x1="58" x2="110" y1="1663" y2="1663" class="net_6"/>
  <line x1="110" x2="110" y1="1663" y2="1455" class="net_6"/>
  <line x1="110" x2="125" y1="1455" y2="1455" class="net_6"/>
  <line x1="125" x2="125" y1="1455" y2="1465" class="net_6"/>
  <line x1="100" x2="110" y1="531" y2="531" class="net_6"/>
  <line x1="110" x2="110" y1="531" y2="1055" class="net_6"/>
  <line x1="110" x2="152" y1="1055" y2="1055" class="net_6"/>
  <circle cx="110" cy="1055" r="2" style="fill:#000" class="net_6"/>
  <line x1="152" x2="152" y1="1055" y2="1067" class="net_6"/>
  <line x1="100" x2="110" y1="531" y2="531" class="net_6"/>
  <line x1="110" x2="110" y1="531" y2="1455" class="net_6"/>
  <line x1="110" x2="125" y1="1455" y2="1455" class="net_6"/>
  <circle cx="110" cy="1455" r="2" style="fill:#000" class="net_6"/>
  <line x1="125" x2="125" y1="1455" y2="1465" class="net_6"/>
  <line x1="107" x2="107" y1="445" y2="455" class="net_5"/>
  <line x1="107" x2="120" y1="455" y2="455" class="net_5"/>
  <line x1="120" x2="120" y1="455" y2="1081" class="net_5"/>
  <line x1="120" x2="130" y1="1081" y2="1081" class="net_5"/>
  <line x1="107" x2="107" y1="445" y2="455" class="net_5"/>
  <line x1="107" x2="120" y1="455" y2="455" class="net_5"/>
  <line x1="120" x2="120" y1="455" y2="731" class="net_5"/>
  <line x1="120" x2="135" y1="731" y2="731" class="net_5"/>
  <circle cx="120" cy="731" r="2" style="fill:#000" class="net_5"/>
  <line x1="135" x2="135" y1="731" y2="741" class="net_5"/>
  <line x1="78" x2="78" y1="517" y2="505" class="net_8"/>
  <line x1="78" x2="150" y1="505" y2="505" class="net_8"/>
  <line x1="139" x2="139" y1="192" y2="213" class="net_8"/>
  <line x1="139" x2="140" y1="213" y2="213" class="net_8"/>
  <line x1="140" x2="140" y1="213" y2="505" class="net_8"/>
  <circle cx="140" cy="505" r="2" style="fill:#000" class="net_8"/>
  <line x1="140" x2="150" y1="505" y2="505" class="net_8"/>
  <line x1="150" x2="140" y1="505" y2="505" class="net_8"/>
  <line x1="140" x2="140" y1="505" y2="479" class="net_8"/>
  <line x1="140" x2="194" y1="479" y2="479" class="net_8"/>
  <line x1="194" x2="194" y1="479" y2="856" class="net_8"/>
  <line x1="194" x2="202" y1="856" y2="856" class="net_8"/>
  <circle cx="140" cy="479" r="2" style="fill:#000" class="net_8"/>
  <circle cx="194" cy="479" r="2" style="fill:#000" class="net_8"/>
  <line x1="202" x2="202" y1="856" y2="868" class="net_8"/>
  <line x1="150" x2="140" y1="505" y2="505" class="net_8"/>
  <line x1="140" x2="140" y1="505" y2="479" class="net_8"/>
  <line x1="140" x2="237" y1="479" y2="479" class="net_8"/>
  <line x1="237" x2="237" y1="479" y2="489" class="net_8"/>
  <line x1="288" x2="288" y1="1190" y2="1200" class="net_21"/>
  <line x1="288" x2="352" y1="1200" y2="1200" class="net_21"/>
  <line x1="352" x2="352" y1="1200" y2="1210" class="net_21"/>
  <line x1="153" x2="153" y1="1094" y2="1107" class="net_7"/>
  <line x1="153" x2="272" y1="1107" y2="1107" class="net_7"/>
  <line x1="272" x2="272" y1="1107" y2="1128" class="net_7"/>
  <line x1="272" x2="288" y1="1128" y2="1128" class="net_7"/>
  <circle cx="272" cy="1107" r="2" style="fill:#000" class="net_7"/>
  <line x1="288" x2="288" y1="1128" y2="1138" class="net_7"/>
  <line x1="201" x2="201" y1="895" y2="908" class="net_7"/>
  <line x1="201" x2="272" y1="908" y2="908" class="net_7"/>
  <line x1="272" x2="272" y1="908" y2="1128" class="net_7"/>
  <line x1="272" x2="288" y1="1128" y2="1128" class="net_7"/>
  <line x1="288" x2="288" y1="1128" y2="1138" class="net_7"/>
  <line x1="22" x2="22" y1="627" y2="1673" class="net_22"/>
  <line x1="22" x2="91" y1="1673" y2="1673" class="net_22"/>
  <line x1="91" x2="91" y1="1673" y2="1650" class="net_22"/>
  <line x1="32" x2="32" y1="373" y2="557" class="net_23"/>
  <line x1="32" x2="77" y1="557" y2="557" class="net_23"/>
  <line x1="77" x2="77" y1="557" y2="544" class="net_23"/>
  <line x1="125" x2="125" y1="1515" y2="1525" class="net_24"/>
  <line x1="125" x2="130" y1="1525" y2="1525" class="net_24"/>
  <line x1="130" x2="130" y1="1525" y2="1535" class="net_24"/>
  <line x1="237" x2="237" y1="539" y2="549" class="net_25"/>
  <line x1="237" x2="312" y1="549" y2="549" class="net_25"/>
  <line x1="312" x2="312" y1="549" y2="559" class="net_25"/>
  <line x1="99" x2="99" y1="122" y2="132" class="net_9"/>
  <line x1="99" x2="99" y1="132" y2="132" class="net_9"/>
  <line x1="99" x2="99" y1="132" y2="202" class="net_9"/>
  <line x1="99" x2="154" y1="202" y2="202" class="net_9"/>
  <line x1="154" x2="154" y1="202" y2="409" class="net_9"/>
  <line x1="154" x2="172" y1="409" y2="409" class="net_9"/>
  <circle cx="99" cy="132" r="2" style="fill:#000" class="net_9"/>
  <circle cx="99" cy="202" r="2" style="fill:#000" class="net_9"/>
  <line x1="172" x2="172" y1="409" y2="491" class="net_9"/>
  <line x1="99" x2="99" y1="122" y2="132" class="net_9"/>
  <line x1="99" x2="139" y1="132" y2="132" class="net_9"/>
  <line x1="139" x2="139" y1="132" y2="142" class="net_9"/>
  <line x1="99" x2="99" y1="122" y2="132" class="net_9"/>
  <line x1="99" x2="99" y1="132" y2="132" class="net_9"/>
  <line x1="99" x2="99" y1="132" y2="223" class="net_9"/>
  <line x1="99" x2="99" y1="223" y2="223" class="net_9"/>
  <line x1="99" x2="99" y1="223" y2="233" class="net_9"/>
  <line x1="225" x2="225" y1="701" y2="711" class="net_26"/>
  <line x1="225" x2="298" y1="711" y2="711" class="net_26"/>
  <line x1="298" x2="298" y1="711" y2="721" class="net_26"/>
  <line x1="173" x2="173" y1="518" y2="559" class="net_10"/>
  <line x1="173" x2="210" y1="559" y2="559" class="net_10"/>
  <line x1="210" x2="210" y1="559" y2="641" class="net_10"/>
  <line x1="210" x2="225" y1="641" y2="641" class="net_10"/>
  <circle cx="210" cy="559" r="2" style="fill:#000" class="net_10"/>
  <line x1="225" x2="225" y1="641" y2="651" class="net_10"/>
  <line x1="173" x2="173" y1="518" y2="559" class="net_10"/>
  <line x1="173" x2="236" y1="559" y2="559" class="net_10"/>
  <line x1="236" x2="236" y1="559" y2="569" class="net_10"/>
  <line x1="236" x2="236" y1="621" y2="631" class="net_27"/>
  <line x1="236" x2="298" y1="631" y2="631" class="net_27"/>
  <line x1="298" x2="298" y1="631" y2="641" class="net_27"/>
  <line x1="99" x2="99" y1="52" y2="62" class="net_28"/>
  <line x1="99" x2="99" y1="62" y2="62" class="net_28"/>
  <line x1="99" x2="99" y1="62" y2="72" class="net_28"/>
  <line x1="99" x2="99" y1="283" y2="293" class="net_11"/>
  <line x1="99" x2="174" y1="293" y2="293" class="net_11"/>
  <line x1="174" x2="164" y1="293" y2="293" class="net_11"/>
  <line x1="164" x2="164" y1="293" y2="122" class="net_11"/>
  <line x1="164" x2="303" y1="122" y2="122" class="net_11"/>
  <circle cx="164" cy="293" r="2" style="fill:#000" class="net_11"/>
  <line x1="303" x2="303" y1="122" y2="375" class="net_11"/>
  <line x1="174" x2="164" y1="293" y2="293" class="net_11"/>
  <line x1="164" x2="164" y1="293" y2="319" class="net_11"/>
  <line x1="164" x2="212" y1="319" y2="319" class="net_11"/>
  <line x1="212" x2="212" y1="319" y2="329" class="net_11"/>
  <line x1="212" x2="212" y1="379" y2="389" class="net_12"/>
  <line x1="212" x2="281" y1="389" y2="389" class="net_12"/>
  <line x1="281" x2="271" y1="389" y2="389" class="net_12"/>
  <line x1="271" x2="271" y1="389" y2="132" class="net_12"/>
  <line x1="271" x2="318" y1="132" y2="132" class="net_12"/>
  <circle cx="271" cy="389" r="2" style="fill:#000" class="net_12"/>
  <line x1="318" x2="318" y1="132" y2="142" class="net_12"/>
  <line x1="424" x2="424" y1="288" y2="298" class="net_29"/>
  <line x1="424" x2="424" y1="298" y2="298" class="net_29"/>
  <line x1="424" x2="424" y1="298" y2="308" class="net_29"/>
  <line x1="304" x2="304" y1="402" y2="415" class="net_13"/>
  <line x1="304" x2="371" y1="415" y2="415" class="net_13"/>
  <line x1="371" x2="371" y1="415" y2="202" class="net_13"/>
  <line x1="371" x2="381" y1="202" y2="202" class="net_13"/>
  <line x1="318" x2="318" y1="192" y2="202" class="net_13"/>
  <line x1="318" x2="381" y1="202" y2="202" class="net_13"/>
  <line x1="381" x2="371" y1="202" y2="202" class="net_13"/>
  <line x1="371" x2="371" y1="202" y2="228" class="net_13"/>
  <line x1="371" x2="424" y1="228" y2="228" class="net_13"/>
  <circle cx="371" cy="202" r="2" style="fill:#000" class="net_13"/>
  <circle cx="371" cy="228" r="2" style="fill:#000" class="net_13"/>
  <line x1="424" x2="424" y1="228" y2="238" class="net_13"/>
  <line x1="196" x2="196" y1="102" y2="112" class="net_30"/>
  <line x1="196" x2="196" y1="112" y2="112" class="net_30"/>
  <line x1="196" x2="196" y1="112" y2="279" class="net_30"/>
  <line x1="403" x2="403" y1="188" y2="138" class="net_31"/>
  <line x1="403" x2="473" y1="138" y2="138" class="net_31"/>
  <line x1="473" x2="473" y1="138" y2="148" class="net_31"/>
  <line x1="72" x2="72" y1="567" y2="1590" class="net_15"/>
  <line x1="72" x2="404" y1="1590" y2="1590" class="net_15"/>
  <line x1="404" x2="404" y1="1590" y2="215" class="net_15"/>
  <line x1="72" x2="87" y1="567" y2="577" class="net_15"/>
  <line x1="197" x2="197" y1="306" y2="399" class="net_14"/>
  <line x1="197" x2="218" y1="399" y2="399" class="net_14"/>
  <line x1="218" x2="218" y1="399" y2="409" class="net_14"/>
  <line x1="258" x2="258" y1="836" y2="846" class="net_32"/>
  <line x1="258" x2="310" y1="846" y2="846" class="net_32"/>
  <line x1="310" x2="310" y1="846" y2="858" class="net_32"/>
  <line x1="152" x2="152" y1="1005" y2="993" class="net_33"/>
  <line x1="152" x2="232" y1="993" y2="993" class="net_33"/>
  <line x1="232" x2="232" y1="993" y2="1003" class="net_33"/>
  <line x1="151" x2="151" y1="694" y2="721" class="net_34"/>
  <line x1="151" x2="214" y1="721" y2="721" class="net_34"/>
  <line x1="214" x2="214" y1="721" y2="731" class="net_34"/>
  <line x1="262" x2="262" y1="918" y2="1210" class="net_35"/>
  <line x1="262" x2="282" y1="1210" y2="1210" class="net_35"/>
  <circle cx="262" cy="1210" r="2" style="fill:#000" class="net_35"/>
  <line x1="282" x2="282" y1="1210" y2="1220" class="net_35"/>
  <line x1="262" x2="262" y1="918" y2="1275" class="net_35"/>
  <line x1="262" x2="262" y1="1275" y2="1275" class="net_35"/>
  <line x1="262" x2="262" y1="1275" y2="1285" class="net_35"/>
  <line x1="138" x2="138" y1="1288" y2="1365" class="net_36"/>
  <line x1="138" x2="202" y1="1365" y2="1365" class="net_36"/>
  <line x1="202" x2="202" y1="1365" y2="1375" class="net_36"/>
  <line x1="221" x2="221" y1="1505" y2="1515" class="net_37"/>
  <line x1="221" x2="221" y1="1515" y2="1515" class="net_37"/>
  <line x1="221" x2="221" y1="1515" y2="1525" class="net_37"/>
  <line x1="135" x2="135" y1="1435" y2="1445" class="net_18"/>
  <line x1="135" x2="221" y1="1445" y2="1445" class="net_18"/>
  <line x1="221" x2="221" y1="1445" y2="1455" class="net_18"/>
  <line x1="135" x2="135" y1="791" y2="928" class="net_38"/>
  <line x1="135" x2="202" y1="928" y2="928" class="net_38"/>
  <line x1="202" x2="202" y1="928" y2="938" class="net_38"/>
  <line x1="218" x2="218" y1="459" y2="469" class="net_16"/>
  <line x1="218" x2="278" y1="469" y2="469" class="net_16"/>
  <line x1="278" x2="278" y1="469" y2="872" class="net_16"/>
  <line x1="278" x2="288" y1="872" y2="872" class="net_16"/>
  <line x1="87" x2="87" y1="627" y2="1019" class="net_17"/>
  <line x1="87" x2="130" y1="1019" y2="1019" class="net_17"/>
</svg>
