<svg xmlns="http://www.w3.org/2000/svg" xmlns:xlink="http://www.w3.org/1999/xlink" xmlns:s="https://github.com/nturley/netlistsvg" width="360" height="319">
  <style>svg {
    stroke: #000;
    fill: none;
  }
  text {
    fill: #000;
    stroke: none;
    font-size: 10px;
    font-weight: bold;
    font-family: "Courier New", monospace;
  }
  .nodelabel {
    text-anchor: middle;
  }
  .inputPortLabel {
    text-anchor: end;
  }
  .splitjoinBody {
    fill: #000;
  }
  .symbol {
    stroke-linejoin: round;
    stroke-linecap: round;
    stroke-width: 2;
  }
  .detail {
    stroke-linejoin: round;
    stroke-linecap: round;
    fill: #000;
  }</style>
  <g s:type="diff_pair_nmos" s:width="80" s:height="80" transform="translate(191,92)" id="cell_DP_1">
    <s:alias val="diff_pair_nmos"/>
    <text x="40" y="-4" class="nodelabel cell_DP_1" s:attribute="ref">DP_1</text>
    <text x="40" y="78" class="nodelabel cell_DP_1" style="font-size:7px" s:attribute="value">NMOS 差分对</text>
    <rect x="0" y="0" width="80" height="80" rx="4" ry="4" class="symbol cell_DP_1" style="stroke-dasharray:4,2;stroke-width:1"/>
    <path d="M8,36 H14" class="detail cell_DP_1"/>
    <path d="M16,20 V52" class="detail cell_DP_1"/>
    <path d="M20,20 V28 M20,32 V36 M20,40 V52" class="detail cell_DP_1"/>
    <path d="M20,24 H30 V6" class="cell_DP_1"/>
    <path d="M20,46 H30 V62" class="cell_DP_1"/>
    <path d="M20,36 H30" class="detail cell_DP_1"/>
    <path d="m24,33 6,3 -6,3 z" style="fill:#000" class="cell_DP_1"/>
    <path d="M72,36 H66" class="detail cell_DP_1"/>
    <path d="M64,20 V52" class="detail cell_DP_1"/>
    <path d="M60,20 V28 M60,32 V36 M60,40 V52" class="detail cell_DP_1"/>
    <path d="M60,24 H50 V6" class="cell_DP_1"/>
    <path d="M60,46 H50 V62" class="cell_DP_1"/>
    <path d="M60,36 H50" class="detail cell_DP_1"/>
    <path d="m56,33 -6,3 6,3 z" style="fill:#000" class="cell_DP_1"/>
    <path d="M30,62 H50 M40,62 V80" class="cell_DP_1"/>
    <path d="M30,6 V0 M50,6 V0" class="cell_DP_1"/>
    <path d="M0,36 H8" class="cell_DP_1"/>
    <path d="M80,36 H72" class="cell_DP_1"/>
    <g s:x="30" s:y="0" s:pid="OUTP" s:position="top"/>
    <g s:x="50" s:y="0" s:pid="OUTN" s:position="top"/>
    <g s:x="0" s:y="36" s:pid="INP" s:position="left"/>
    <g s:x="80" s:y="36" s:pid="INN" s:position="right"/>
    <g s:x="40" s:y="80" s:pid="TAIL" s:position="bottom"/>
  </g>
  <g s:type="vcc" s:width="20" s:height="30" transform="translate(59,22)" id="cell_vcc_1">
    <s:alias val="vcc"/>
    <text x="10" y="-4" class="nodelabel cell_vcc_1" s:attribute="name">VDD</text>
    <path d="M0,0 H20 L10,15 Z M10,15 V30" class="cell_vcc_1"/>
    <g s:x="10" s:y="30" s:pid="A" s:position="bottom"/>
  </g>
  <g s:type="current_mirror_pmos" s:width="70" s:height="70" transform="translate(34,96.33333333333333)" id="cell_CM_1">
    <s:alias val="current_mirror_pmos"/>
    <text x="35" y="-4" class="nodelabel cell_CM_1" s:attribute="ref">CM_1</text>
    <text x="35" y="68" class="nodelabel cell_CM_1" style="font-size:7px" s:attribute="value">PMOS 电流镜</text>
    <rect x="0" y="0" width="70" height="70" rx="4" ry="4" class="symbol cell_CM_1" style="stroke-dasharray:4,2;stroke-width:1"/>
    <path d="M8,40 H12" class="detail cell_CM_1"/>
    <circle cx="13" cy="40" r="2" class="symbol cell_CM_1"/>
    <path d="M15,26 V54" class="detail cell_CM_1"/>
    <path d="M19,26 V54" class="detail cell_CM_1"/>
    <path d="M19,30 H28 V14" class="cell_CM_1"/>
    <path d="M19,50 H28 V64" class="cell_CM_1"/>
    <path d="M28,40 H19" class="detail cell_CM_1"/>
    <path d="m24,37 -6,3 6,3 z" style="fill:#000" class="cell_CM_1"/>
    <path d="M28,64 H8 V40" class="cell_CM_1" style="stroke-dasharray:2,2"/>
    <path d="M62,40 H58" class="detail cell_CM_1"/>
    <circle cx="57" cy="40" r="2" class="symbol cell_CM_1"/>
    <path d="M55,26 V54" class="detail cell_CM_1"/>
    <path d="M51,26 V54" class="detail cell_CM_1"/>
    <path d="M51,30 H42 V14" class="cell_CM_1"/>
    <path d="M51,50 H42 V64" class="cell_CM_1"/>
    <path d="M42,40 H51" class="detail cell_CM_1"/>
    <path d="m46,37 6,3 -6,3 z" style="fill:#000" class="cell_CM_1"/>
    <path d="M8,40 H62" class="cell_CM_1"/>
    <path d="M28,64 V70" class="cell_CM_1"/>
    <path d="M42,64 V70" class="cell_CM_1"/>
    <path d="M28,14 H42 M35,14 V0" class="cell_CM_1"/>
    <g s:x="28" s:y="70" s:pid="IN" s:position="bottom"/>
    <g s:x="42" s:y="70" s:pid="OUT" s:position="bottom"/>
    <g s:x="35" s:y="0" s:pid="RAIL" s:position="top"/>
  </g>
  <g s:type="gnd" s:width="20" s:height="30" transform="translate(154,277)" id="cell_gnd_2">
    <s:alias val="gnd"/>
    <text x="30" y="20" class="nodelabel cell_gnd_2" s:attribute="name">GND</text>
    <path d="M0,0 H20 M3,5 H17 M7,10 H13 M10,0 V-15" class="cell_gnd_2"/>
    <g s:x="10" s:y="-15" s:pid="A" s:position="top"/>
  </g>
  <g s:type="voltage_source" s:width="32" s:height="52" transform="translate(148,205)" id="cell_VINP">
    <s:alias val="v"/>
    <text x="35" y="20" s:attribute="ref" class="cell_VINP">VINP</text>
    <text x="35" y="35" s:attribute="value" class="cell_VINP">0.9</text>
    <circle cx="16" cy="26" r="16" class="symbol cell_VINP"/>
    <path d="M12,22 H20 M16,18 V26" class="detail cell_VINP"/>
    <path d="M12,33 H20" class="detail cell_VINP"/>
    <path d="M16,0 V10 M16,42 V52" class="connect cell_VINP"/>
    <g s:x="16" s:y="0" s:pid="+" s:position="top"/>
    <g s:x="16" s:y="52" s:pid="-" s:position="bottom"/>
  </g>
  <g s:type="gnd" s:width="20" s:height="30" transform="translate(288,277)" id="cell_gnd_3">
    <s:alias val="gnd"/>
    <text x="30" y="20" class="nodelabel cell_gnd_3" s:attribute="name">GND</text>
    <path d="M0,0 H20 M3,5 H17 M7,10 H13 M10,0 V-15" class="cell_gnd_3"/>
    <g s:x="10" s:y="-15" s:pid="A" s:position="top"/>
  </g>
  <g s:type="voltage_source" s:width="32" s:height="52" transform="translate(282,205)" id="cell_VINN">
    <s:alias val="v"/>
    <text x="35" y="20" s:attribute="ref" class="cell_VINN">VINN</text>
    <text x="35" y="35" s:attribute="value" class="cell_VINN">0.9</text>
    <circle cx="16" cy="26" r="16" class="symbol cell_VINN"/>
    <path d="M12,22 H20 M16,18 V26" class="detail cell_VINN"/>
    <path d="M12,33 H20" class="detail cell_VINN"/>
    <path d="M16,0 V10 M16,42 V52" class="connect cell_VINN"/>
    <g s:x="16" s:y="0" s:pid="+" s:position="top"/>
    <g s:x="16" s:y="52" s:pid="-" s:position="bottom"/>
  </g>
  <g s:type="gnd" s:width="20" s:height="30" transform="translate(221,277)" id="cell_gnd_4">
    <s:alias val="gnd"/>
    <text x="30" y="20" class="nodelabel cell_gnd_4" s:attribute="name">GND</text>
    <path d="M0,0 H20 M3,5 H17 M7,10 H13 M10,0 V-15" class="cell_gnd_4"/>
    <g s:x="10" s:y="-15" s:pid="A" s:position="top"/>
  </g>
  <g s:type="current_source" s:width="32" s:height="52" transform="translate(215,205)" id="cell_ITAIL">
    <s:alias val="i"/>
    <text x="35" y="20" s:attribute="ref" class="cell_ITAIL">ITAIL</text>
    <text x="35" y="35" s:attribute="value" class="cell_ITAIL">20u</text>
    <circle cx="16" cy="26" r="16" class="symbol cell_ITAIL"/>
    <path d="M16,34 V18" class="detail cell_ITAIL"/>
    <path d="m13,22 3,-5 3,5 z" style="fill:#000" class="cell_ITAIL"/>
    <path d="M16,0 V10 M16,42 V52" class="connect cell_ITAIL"/>
    <g s:x="16" s:y="0" s:pid="+" s:position="top"/>
    <g s:x="16" s:y="52" s:pid="-" s:position="bottom"/>
  </g>
  <g s:type="inputExt" s:width="30" s:height="20" transform="translate(124,118.5)" id="cell_inp">
    <text x="15" y="-4" class="cell_inp" s:attribute="ref">inp</text>
    <s:alias val="$_inputExt_"/>
    <path d="M0,0 V20 H15 L30,10 15,0 Z" class="cell_inp"/>
    <g s:x="30" s:y="10" s:pid="Y" s:position="right"/>
  </g>
  <g s:type="inputExt" s:width="30" s:height="20" transform="translate(308,118.5)" id="cell_inn">
    <text x="15" y="-4" class="cell_inn" s:attribute="ref">inn</text>
    <s:alias val="$_inputExt_"/>
    <path d="M0,0 V20 H15 L30,10 15,0 Z" class="cell_inn"/>
    <g s:x="30" s:y="10" s:pid="Y" s:position="right"/>
  </g>
  <g s:type="outputExt" s:width="30" s:height="20" transform="translate(72,221)" id="cell_outp">
    <text x="15" y="-4" class="cell_outp" s:attribute="ref">outp</text>
    <s:alias val="$_outputExt_"/>
    <path d="M30,0 V20 H15 L0,10 15,0 Z" class="cell_outp"/>
    <g s:x="0" s:y="10" s:pid="A" s:position="left"/>
  </g>
  <g s:type="outputExt" s:width="30" s:height="20" transform="translate(22,221)" id="cell_outn">
    <text x="15" y="-4" class="cell_outn" s:attribute="ref">outn</text>
    <s:alias val="$_outputExt_"/>
    <path d="M30,0 V20 H15 L0,10 15,0 Z" class="cell_outn"/>
    <g s:x="0" s:y="10" s:pid="A" s:position="left"/>
  </g>
  <line x1="69" x2="69" y1="52" y2="96.33333333333333" class="net_7"/>
  <line x1="164" x2="164" y1="257" y2="262" class="net_8"/>
  <line x1="191" x2="174" y1="128" y2="128" class="net_2"/>
  <line x1="174" x2="174" y1="128" y2="185" class="net_2"/>
  <line x1="174" x2="164" y1="185" y2="185" class="net_2"/>
  <circle cx="164" cy="185" r="2" style="fill:#000" class="net_2"/>
  <line x1="164" x2="164" y1="185" y2="205" class="net_2"/>
  <line x1="154" x2="164" y1="128.5" y2="128.5" class="net_2"/>
  <line x1="164" x2="164" y1="128.5" y2="205" class="net_2"/>
  <line x1="298" x2="298" y1="257" y2="262" class="net_9"/>
  <line x1="271" x2="298" y1="128" y2="128" class="net_3"/>
  <line x1="298" x2="298" y1="128" y2="205" class="net_3"/>
  <line x1="338" x2="348" y1="128.5" y2="128.5" class="net_3"/>
  <line x1="348" x2="348" y1="128.5" y2="185" class="net_3"/>
  <line x1="348" x2="298" y1="185" y2="185" class="net_3"/>
  <circle cx="298" cy="185" r="2" style="fill:#000" class="net_3"/>
  <line x1="298" x2="298" y1="185" y2="205" class="net_3"/>
  <line x1="231" x2="231" y1="257" y2="262" class="net_10"/>
  <line x1="231" x2="231" y1="172" y2="205" class="net_4"/>
  <line x1="221" x2="221" y1="92" y2="72" class="net_5"/>
  <line x1="221" x2="114" y1="72" y2="72" class="net_5"/>
  <line x1="114" x2="114" y1="72" y2="195" class="net_5"/>
  <line x1="114" x2="62" y1="195" y2="195" class="net_5"/>
  <line x1="62" x2="62" y1="195" y2="231" class="net_5"/>
  <circle cx="62" cy="195" r="2" style="fill:#000" class="net_5"/>
  <line x1="62" x2="72" y1="231" y2="231" class="net_5"/>
  <line x1="62" x2="62" y1="166.33333333333331" y2="231" class="net_5"/>
  <line x1="62" x2="72" y1="231" y2="231" class="net_5"/>
  <line x1="241" x2="241" y1="92" y2="62" class="net_6"/>
  <line x1="241" x2="12" y1="62" y2="62" class="net_6"/>
  <line x1="12" x2="12" y1="62" y2="231" class="net_6"/>
  <line x1="12" x2="22" y1="231" y2="231" class="net_6"/>
  <line x1="76" x2="76" y1="166.33333333333331" y2="185" class="net_6"/>
  <line x1="76" x2="12" y1="185" y2="185" class="net_6"/>
  <line x1="12" x2="12" y1="185" y2="231" class="net_6"/>
  <circle cx="12" cy="185" r="2" style="fill:#000" class="net_6"/>
  <line x1="12" x2="22" y1="231" y2="231" class="net_6"/>
</svg>
