<svg xmlns="http://www.w3.org/2000/svg" xmlns:xlink="http://www.w3.org/1999/xlink" xmlns:s="https://github.com/nturley/netlistsvg" width="474" height="425">
  <style>svg {
    stroke: #000;
    fill: none;
  }
  text {
    fill: #000;
    stroke: none;
    font-size: 10px;
    font-weight: bold;
    font-family: "Courier New", monospace;
  }
  .nodelabel {
    text-anchor: middle;
  }
  .inputPortLabel {
    text-anchor: end;
  }
  .splitjoinBody {
    fill: #000;
  }
  .symbol {
    stroke-linejoin: round;
    stroke-linecap: round;
    stroke-width: 2;
  }
  .detail {
    stroke-linejoin: round;
    stroke-linecap: round;
    fill: #000;
  }</style>
  <g s:type="gnd" s:width="20" s:height="30" transform="translate(18,308)" id="cell_gnd_1">
    <s:alias val="gnd"/>
    <text x="30" y="20" class="nodelabel cell_gnd_1" s:attribute="name">GND</text>
    <path d="M0,0 H20 M3,5 H17 M7,10 H13 M10,0 V-15" class="cell_gnd_1"/>
    <g s:x="10" s:y="-15" s:pid="A" s:position="top"/>
  </g>
  <g s:type="voltage_source" s:width="32" s:height="52" transform="translate(12,236)" id="cell_VREF">
    <s:alias val="v"/>
    <text x="35" y="20" s:attribute="ref" class="cell_VREF">VREF</text>
    <text x="35" y="35" s:attribute="value" class="cell_VREF">PULSE(0 {VDDVAL} 0 50p 50p {TCLK/2} {TCLK})</text>
    <circle cx="16" cy="26" r="16" class="symbol cell_VREF"/>
    <path d="M12,22 H20 M16,18 V26" class="detail cell_VREF"/>
    <path d="M12,33 H20" class="detail cell_VREF"/>
    <path d="M16,0 V10 M16,42 V52" class="connect cell_VREF"/>
    <g s:x="16" s:y="0" s:pid="+" s:position="top"/>
    <g s:x="16" s:y="52" s:pid="-" s:position="bottom"/>
  </g>
  <g s:type="gnd" s:width="20" s:height="30" transform="translate(347,383)" id="cell_gnd_2">
    <s:alias val="gnd"/>
    <text x="30" y="20" class="nodelabel cell_gnd_2" s:attribute="name">GND</text>
    <path d="M0,0 H20 M3,5 H17 M7,10 H13 M10,0 V-15" class="cell_gnd_2"/>
    <g s:x="10" s:y="-15" s:pid="A" s:position="top"/>
  </g>
  <g s:type="voltage_source" s:width="32" s:height="52" transform="translate(341,311)" id="cell_VBIAS">
    <s:alias val="v"/>
    <text x="35" y="20" s:attribute="ref" class="cell_VBIAS">VBIAS</text>
    <text x="35" y="35" s:attribute="value" class="cell_VBIAS">{VCM}</text>
    <circle cx="16" cy="26" r="16" class="symbol cell_VBIAS"/>
    <path d="M12,22 H20 M16,18 V26" class="detail cell_VBIAS"/>
    <path d="M12,33 H20" class="detail cell_VBIAS"/>
    <path d="M16,0 V10 M16,42 V52" class="connect cell_VBIAS"/>
    <g s:x="16" s:y="0" s:pid="+" s:position="top"/>
    <g s:x="16" s:y="52" s:pid="-" s:position="bottom"/>
  </g>
  <g s:type="resistor_v" s:width="10" s:height="50" transform="translate(352,256)" id="cell_RBIAS">
    <s:alias val="r_v"/>
    <text x="15" y="15" s:attribute="ref" class="cell_RBIAS">RBIAS</text>
    <text x="15" y="30" s:attribute="value" class="cell_RBIAS">200k</text>
    <path d="M0,10 V40 H10 V10 Z" class="symbol cell_RBIAS"/>
    <path d="M5,0 V10 M5,40 V50" class="connect cell_RBIAS"/>
    <g s:x="5" s:y="0" s:pid="A" s:position="top"/>
    <g s:x="5" s:y="50" s:pid="B" s:position="bottom"/>
  </g>
  <g s:type="gnd" s:width="20" s:height="30" transform="translate(422,326)" id="cell_gnd_3">
    <s:alias val="gnd"/>
    <text x="30" y="20" class="nodelabel cell_gnd_3" s:attribute="name">GND</text>
    <path d="M0,0 H20 M3,5 H17 M7,10 H13 M10,0 V-15" class="cell_gnd_3"/>
    <g s:x="10" s:y="-15" s:pid="A" s:position="top"/>
  </g>
  <g s:type="capacitor_v" s:width="30" s:height="50" transform="translate(417,256)" id="cell_CCTRL">
    <s:alias val="c_v"/>
    <text x="25" y="10" s:attribute="ref" class="cell_CCTRL">CCTRL</text>
    <text x="25" y="45" s:attribute="value" class="cell_CCTRL">300p</text>
    <path d="M0,20 H30 M0,30 H30" class="symbol cell_CCTRL"/>
    <path d="M15,0 V20 M15,30 V50" class="connect cell_CCTRL"/>
    <g s:x="15" s:y="0" s:pid="A" s:position="top"/>
    <g s:x="15" s:y="50" s:pid="B" s:position="bottom"/>
  </g>
  <g s:type="gnd" s:width="20" s:height="30" transform="translate(282,326)" id="cell_gnd_4">
    <s:alias val="gnd"/>
    <text x="30" y="20" class="nodelabel cell_gnd_4" s:attribute="name">GND</text>
    <path d="M0,0 H20 M3,5 H17 M7,10 H13 M10,0 V-15" class="cell_gnd_4"/>
    <g s:x="10" s:y="-15" s:pid="A" s:position="top"/>
  </g>
  <g s:type="resistor_v" s:width="10" s:height="50" transform="translate(287,256)" id="cell_RLEAK">
    <s:alias val="r_v"/>
    <text x="15" y="15" s:attribute="ref" class="cell_RLEAK">RLEAK</text>
    <text x="15" y="30" s:attribute="value" class="cell_RLEAK">2Meg</text>
    <path d="M0,10 V40 H10 V10 Z" class="symbol cell_RLEAK"/>
    <path d="M5,0 V10 M5,40 V50" class="connect cell_RLEAK"/>
    <g s:x="5" s:y="0" s:pid="A" s:position="top"/>
    <g s:x="5" s:y="50" s:pid="B" s:position="bottom"/>
  </g>
  <g s:type="generic" s:width="30" s:height="40" transform="translate(12,22)" id="cell_XPFD">
    <text x="15" y="-4" class="nodelabel cell_XPFD" s:attribute="ref">x</text>
    <rect width="30" height="0" x="0" y="0" s:generic="body" class="cell_XPFD"/>
  </g>
  <g s:type="generic" s:width="30" s:height="40" transform="translate(54,22)" id="cell_XDL1">
    <text x="15" y="-4" class="nodelabel cell_XDL1" s:attribute="ref">x</text>
    <rect width="30" height="0" x="0" y="0" s:generic="body" class="cell_XDL1"/>
  </g>
  <g s:type="generic" s:width="30" s:height="40" transform="translate(96,22)" id="cell_XDL2">
    <text x="15" y="-4" class="nodelabel cell_XDL2" s:attribute="ref">x</text>
    <rect width="30" height="0" x="0" y="0" s:generic="body" class="cell_XDL2"/>
  </g>
  <g s:type="generic" s:width="30" s:height="40" transform="translate(138,22)" id="cell_XDL3">
    <text x="15" y="-4" class="nodelabel cell_XDL3" s:attribute="ref">x</text>
    <rect width="30" height="0" x="0" y="0" s:generic="body" class="cell_XDL3"/>
  </g>
  <g s:type="generic" s:width="30" s:height="40" transform="translate(180,22)" id="cell_XDL4">
    <text x="15" y="-4" class="nodelabel cell_XDL4" s:attribute="ref">x</text>
    <rect width="30" height="0" x="0" y="0" s:generic="body" class="cell_XDL4"/>
  </g>
  <g s:type="generic" s:width="30" s:height="40" transform="translate(222,22)" id="cell_XDL5">
    <text x="15" y="-4" class="nodelabel cell_XDL5" s:attribute="ref">x</text>
    <rect width="30" height="0" x="0" y="0" s:generic="body" class="cell_XDL5"/>
  </g>
  <g s:type="generic" s:width="30" s:height="40" transform="translate(264,22)" id="cell_XDL6">
    <text x="15" y="-4" class="nodelabel cell_XDL6" s:attribute="ref">x</text>
    <rect width="30" height="0" x="0" y="0" s:generic="body" class="cell_XDL6"/>
  </g>
  <g s:type="generic" s:width="30" s:height="40" transform="translate(306,22)" id="cell_XDL7">
    <text x="15" y="-4" class="nodelabel cell_XDL7" s:attribute="ref">x</text>
    <rect width="30" height="0" x="0" y="0" s:generic="body" class="cell_XDL7"/>
  </g>
  <g s:type="generic" s:width="30" s:height="40" transform="translate(348,22)" id="cell_XDL8">
    <text x="15" y="-4" class="nodelabel cell_XDL8" s:attribute="ref">x</text>
    <rect width="30" height="0" x="0" y="0" s:generic="body" class="cell_XDL8"/>
  </g>
  <g s:type="gnd" s:width="20" s:height="30" transform="translate(395,82)" id="cell_gnd_5">
    <s:alias val="gnd"/>
    <text x="30" y="20" class="nodelabel cell_gnd_5" s:attribute="name">GND</text>
    <path d="M0,0 H20 M3,5 H17 M7,10 H13 M10,0 V-15" class="cell_gnd_5"/>
    <g s:x="10" s:y="-15" s:pid="A" s:position="top"/>
  </g>
  <g s:type="capacitor_v" s:width="30" s:height="50" transform="translate(390,12)" id="cell_CT1">
    <s:alias val="c_v"/>
    <text x="25" y="10" s:attribute="ref" class="cell_CT1">CT1</text>
    <text x="25" y="45" s:attribute="value" class="cell_CT1">10f</text>
    <path d="M0,20 H30 M0,30 H30" class="symbol cell_CT1"/>
    <path d="M15,0 V20 M15,30 V50" class="connect cell_CT1"/>
    <g s:x="15" s:y="0" s:pid="A" s:position="top"/>
    <g s:x="15" s:y="50" s:pid="B" s:position="bottom"/>
  </g>
  <g s:type="gnd" s:width="20" s:height="30" transform="translate(437,82)" id="cell_gnd_6">
    <s:alias val="gnd"/>
    <text x="30" y="20" class="nodelabel cell_gnd_6" s:attribute="name">GND</text>
    <path d="M0,0 H20 M3,5 H17 M7,10 H13 M10,0 V-15" class="cell_gnd_6"/>
    <g s:x="10" s:y="-15" s:pid="A" s:position="top"/>
  </g>
  <g s:type="capacitor_v" s:width="30" s:height="50" transform="translate(432,12)" id="cell_CT2">
    <s:alias val="c_v"/>
    <text x="25" y="10" s:attribute="ref" class="cell_CT2">CT2</text>
    <text x="25" y="45" s:attribute="value" class="cell_CT2">10f</text>
    <path d="M0,20 H30 M0,30 H30" class="symbol cell_CT2"/>
    <path d="M15,0 V20 M15,30 V50" class="connect cell_CT2"/>
    <g s:x="15" s:y="0" s:pid="A" s:position="top"/>
    <g s:x="15" s:y="50" s:pid="B" s:position="bottom"/>
  </g>
  <g s:type="gnd" s:width="20" s:height="30" transform="translate(17,194)" id="cell_gnd_7">
    <s:alias val="gnd"/>
    <text x="30" y="20" class="nodelabel cell_gnd_7" s:attribute="name">GND</text>
    <path d="M0,0 H20 M3,5 H17 M7,10 H13 M10,0 V-15" class="cell_gnd_7"/>
    <g s:x="10" s:y="-15" s:pid="A" s:position="top"/>
  </g>
  <g s:type="capacitor_v" s:width="30" s:height="50" transform="translate(12,124)" id="cell_CT3">
    <s:alias val="c_v"/>
    <text x="25" y="10" s:attribute="ref" class="cell_CT3">CT3</text>
    <text x="25" y="45" s:attribute="value" class="cell_CT3">10f</text>
    <path d="M0,20 H30 M0,30 H30" class="symbol cell_CT3"/>
    <path d="M15,0 V20 M15,30 V50" class="connect cell_CT3"/>
    <g s:x="15" s:y="0" s:pid="A" s:position="top"/>
    <g s:x="15" s:y="50" s:pid="B" s:position="bottom"/>
  </g>
  <g s:type="gnd" s:width="20" s:height="30" transform="translate(59,194)" id="cell_gnd_8">
    <s:alias val="gnd"/>
    <text x="30" y="20" class="nodelabel cell_gnd_8" s:attribute="name">GND</text>
    <path d="M0,0 H20 M3,5 H17 M7,10 H13 M10,0 V-15" class="cell_gnd_8"/>
    <g s:x="10" s:y="-15" s:pid="A" s:position="top"/>
  </g>
  <g s:type="capacitor_v" s:width="30" s:height="50" transform="translate(54,124)" id="cell_CT4">
    <s:alias val="c_v"/>
    <text x="25" y="10" s:attribute="ref" class="cell_CT4">CT4</text>
    <text x="25" y="45" s:attribute="value" class="cell_CT4">10f</text>
    <path d="M0,20 H30 M0,30 H30" class="symbol cell_CT4"/>
    <path d="M15,0 V20 M15,30 V50" class="connect cell_CT4"/>
    <g s:x="15" s:y="0" s:pid="A" s:position="top"/>
    <g s:x="15" s:y="50" s:pid="B" s:position="bottom"/>
  </g>
  <g s:type="gnd" s:width="20" s:height="30" transform="translate(101,194)" id="cell_gnd_9">
    <s:alias val="gnd"/>
    <text x="30" y="20" class="nodelabel cell_gnd_9" s:attribute="name">GND</text>
    <path d="M0,0 H20 M3,5 H17 M7,10 H13 M10,0 V-15" class="cell_gnd_9"/>
    <g s:x="10" s:y="-15" s:pid="A" s:position="top"/>
  </g>
  <g s:type="capacitor_v" s:width="30" s:height="50" transform="translate(96,124)" id="cell_CT5">
    <s:alias val="c_v"/>
    <text x="25" y="10" s:attribute="ref" class="cell_CT5">CT5</text>
    <text x="25" y="45" s:attribute="value" class="cell_CT5">10f</text>
    <path d="M0,20 H30 M0,30 H30" class="symbol cell_CT5"/>
    <path d="M15,0 V20 M15,30 V50" class="connect cell_CT5"/>
    <g s:x="15" s:y="0" s:pid="A" s:position="top"/>
    <g s:x="15" s:y="50" s:pid="B" s:position="bottom"/>
  </g>
  <g s:type="gnd" s:width="20" s:height="30" transform="translate(143,194)" id="cell_gnd_10">
    <s:alias val="gnd"/>
    <text x="30" y="20" class="nodelabel cell_gnd_10" s:attribute="name">GND</text>
    <path d="M0,0 H20 M3,5 H17 M7,10 H13 M10,0 V-15" class="cell_gnd_10"/>
    <g s:x="10" s:y="-15" s:pid="A" s:position="top"/>
  </g>
  <g s:type="capacitor_v" s:width="30" s:height="50" transform="translate(138,124)" id="cell_CT6">
    <s:alias val="c_v"/>
    <text x="25" y="10" s:attribute="ref" class="cell_CT6">CT6</text>
    <text x="25" y="45" s:attribute="value" class="cell_CT6">10f</text>
    <path d="M0,20 H30 M0,30 H30" class="symbol cell_CT6"/>
    <path d="M15,0 V20 M15,30 V50" class="connect cell_CT6"/>
    <g s:x="15" s:y="0" s:pid="A" s:position="top"/>
    <g s:x="15" s:y="50" s:pid="B" s:position="bottom"/>
  </g>
  <g s:type="gnd" s:width="20" s:height="30" transform="translate(185,194)" id="cell_gnd_11">
    <s:alias val="gnd"/>
    <text x="30" y="20" class="nodelabel cell_gnd_11" s:attribute="name">GND</text>
    <path d="M0,0 H20 M3,5 H17 M7,10 H13 M10,0 V-15" class="cell_gnd_11"/>
    <g s:x="10" s:y="-15" s:pid="A" s:position="top"/>
  </g>
  <g s:type="capacitor_v" s:width="30" s:height="50" transform="translate(180,124)" id="cell_CT7">
    <s:alias val="c_v"/>
    <text x="25" y="10" s:attribute="ref" class="cell_CT7">CT7</text>
    <text x="25" y="45" s:attribute="value" class="cell_CT7">10f</text>
    <path d="M0,20 H30 M0,30 H30" class="symbol cell_CT7"/>
    <path d="M15,0 V20 M15,30 V50" class="connect cell_CT7"/>
    <g s:x="15" s:y="0" s:pid="A" s:position="top"/>
    <g s:x="15" s:y="50" s:pid="B" s:position="bottom"/>
  </g>
  <g s:type="gnd" s:width="20" s:height="30" transform="translate(227,194)" id="cell_gnd_12">
    <s:alias val="gnd"/>
    <text x="30" y="20" class="nodelabel cell_gnd_12" s:attribute="name">GND</text>
    <path d="M0,0 H20 M3,5 H17 M7,10 H13 M10,0 V-15" class="cell_gnd_12"/>
    <g s:x="10" s:y="-15" s:pid="A" s:position="top"/>
  </g>
  <g s:type="capacitor_v" s:width="30" s:height="50" transform="translate(222,124)" id="cell_CT8">
    <s:alias val="c_v"/>
    <text x="25" y="10" s:attribute="ref" class="cell_CT8">CT8</text>
    <text x="25" y="45" s:attribute="value" class="cell_CT8">10f</text>
    <path d="M0,20 H30 M0,30 H30" class="symbol cell_CT8"/>
    <path d="M15,0 V20 M15,30 V50" class="connect cell_CT8"/>
    <g s:x="15" s:y="0" s:pid="A" s:position="top"/>
    <g s:x="15" s:y="50" s:pid="B" s:position="bottom"/>
  </g>
  <line x1="28" x2="28" y1="288" y2="293" class="net_13"/>
  <line x1="357" x2="357" y1="363" y2="368" class="net_14"/>
  <line x1="357" x2="357" y1="306" y2="311" class="net_3"/>
  <line x1="292" x2="357" y1="246" y2="246" class="net_4"/>
  <circle cx="357" cy="246" r="2" style="fill:#000" class="net_4"/>
  <line x1="357" x2="357" y1="246" y2="256" class="net_4"/>
  <line x1="292" x2="432" y1="246" y2="246" class="net_4"/>
  <line x1="432" x2="432" y1="246" y2="256" class="net_4"/>
  <line x1="292" x2="292" y1="246" y2="256" class="net_4"/>
  <line x1="432" x2="432" y1="306" y2="311" class="net_15"/>
  <line x1="292" x2="292" y1="306" y2="311" class="net_16"/>
  <line x1="405" x2="405" y1="62" y2="67" class="net_17"/>
  <line x1="447" x2="447" y1="62" y2="67" class="net_18"/>
  <line x1="27" x2="27" y1="174" y2="179" class="net_19"/>
  <line x1="69" x2="69" y1="174" y2="179" class="net_20"/>
  <line x1="111" x2="111" y1="174" y2="179" class="net_21"/>
  <line x1="153" x2="153" y1="174" y2="179" class="net_22"/>
  <line x1="195" x2="195" y1="174" y2="179" class="net_23"/>
  <line x1="237" x2="237" y1="174" y2="179" class="net_24"/>
</svg>
