<svg xmlns="http://www.w3.org/2000/svg" xmlns:xlink="http://www.w3.org/1999/xlink" xmlns:s="https://github.com/nturley/netlistsvg" width="300" height="239">
  <style>svg {
    stroke: #000;
    fill: none;
  }
  text {
    fill: #000;
    stroke: none;
    font-size: 10px;
    font-weight: bold;
    font-family: "Courier New", monospace;
  }
  .nodelabel {
    text-anchor: middle;
  }
  .inputPortLabel {
    text-anchor: end;
  }
  .splitjoinBody {
    fill: #000;
  }
  .symbol {
    stroke-linejoin: round;
    stroke-linecap: round;
    stroke-width: 2;
  }
  .detail {
    stroke-linejoin: round;
    stroke-linecap: round;
    fill: #000;
  }</style>
  <g s:type="vcc" s:width="20" s:height="30" transform="translate(106,22)" id="cell_vcc_1">
    <s:alias val="vcc"/>
    <text x="10" y="-4" class="nodelabel cell_vcc_1" s:attribute="name">VDD</text>
    <path d="M0,0 H20 L10,15 Z M10,15 V30" class="cell_vcc_1"/>
    <g s:x="10" s:y="30" s:pid="A" s:position="bottom"/>
  </g>
  <g s:type="pmos" s:width="32" s:height="40" transform="translate(92,72)" id="cell_M1">
    <s:alias val="pmos"/>
    <text x="35" y="12" s:attribute="ref" class="cell_M1">M1</text>
    <text x="35" y="28" s:attribute="value" class="cell_M1">PMOD</text>
    <circle r="16" cx="18" cy="20" class="symbol cell_M1"/>
    <path d="M0,20 H6" class="detail cell_M1"/>
    <circle cx="8" cy="20" r="2" class="symbol cell_M1"/>
    <path d="M10,6 V34" class="detail cell_M1"/>
    <path d="M14,6 V34" class="detail cell_M1"/>
    <path d="M14,10 H24 V0" class="connect cell_M1"/>
    <path d="M14,30 H24 V40" class="connect cell_M1"/>
    <path d="M24,20 H14" class="detail cell_M1"/>
    <path d="m20,17 -6,3 6,3 z" style="fill:#000" class="cell_M1"/>
    <g s:x="24" s:y="0" s:pid="S" s:position="top"/>
    <g s:x="0" s:y="20" s:pid="G" s:position="left"/>
    <g s:x="24" s:y="40" s:pid="D" s:position="bottom"/>
  </g>
  <g s:type="gnd" s:width="20" s:height="30" transform="translate(268,197)" id="cell_gnd_2">
    <s:alias val="gnd"/>
    <text x="30" y="20" class="nodelabel cell_gnd_2" s:attribute="name">GND</text>
    <path d="M0,0 H20 M3,5 H17 M7,10 H13 M10,0 V-15" class="cell_gnd_2"/>
    <g s:x="10" s:y="-15" s:pid="A" s:position="top"/>
  </g>
  <g s:type="nmos" s:width="32" s:height="40" transform="translate(254,122)" id="cell_M2">
    <s:alias val="nmos"/>
    <text x="35" y="12" s:attribute="ref" class="cell_M2">M2</text>
    <text x="35" y="28" s:attribute="value" class="cell_M2">NMOD</text>
    <circle r="16" cx="18" cy="20" class="symbol cell_M2"/>
    <path d="M0,20 H8" class="detail cell_M2"/>
    <path d="M10,6 V34" class="detail cell_M2"/>
    <path d="M14,6 V14 M14,18 V22 M14,26 V34" class="detail cell_M2"/>
    <path d="M14,10 H24 V0" class="connect cell_M2"/>
    <path d="M14,30 H24 V40" class="connect cell_M2"/>
    <path d="M14,20 H24" class="detail cell_M2"/>
    <path d="m18,17 6,3 -6,3 z" style="fill:#000" class="cell_M2"/>
    <g s:x="24" s:y="0" s:pid="D" s:position="top"/>
    <g s:x="0" s:y="20" s:pid="G" s:position="left"/>
    <g s:x="24" s:y="40" s:pid="S" s:position="bottom"/>
  </g>
  <g s:type="outputExt" s:width="30" s:height="20" transform="translate(174,112)" id="cell_VOUT">
    <text x="15" y="-4" class="cell_VOUT" s:attribute="ref">VOUT</text>
    <s:alias val="$_outputExt_"/>
    <path d="M30,0 V20 H15 L0,10 15,0 Z" class="cell_VOUT"/>
    <g s:x="0" s:y="10" s:pid="A" s:position="left"/>
  </g>
  <g s:type="inputExt" s:width="30" s:height="20" transform="translate(12,82)" id="cell_VIN">
    <text x="15" y="-4" class="cell_VIN" s:attribute="ref">VIN</text>
    <s:alias val="$_inputExt_"/>
    <path d="M0,0 V20 H15 L30,10 15,0 Z" class="cell_VIN"/>
    <g s:x="30" s:y="10" s:pid="Y" s:position="right"/>
  </g>
  <line x1="116" x2="116" y1="52" y2="62" class="net_4"/>
  <line x1="116" x2="116" y1="62" y2="62" class="net_4"/>
  <line x1="116" x2="116" y1="62" y2="72" class="net_4"/>
  <line x1="278" x2="278" y1="162" y2="172" class="net_5"/>
  <line x1="278" x2="278" y1="172" y2="172" class="net_5"/>
  <line x1="278" x2="278" y1="172" y2="182" class="net_5"/>
  <line x1="116" x2="116" y1="112" y2="122" class="net_2"/>
  <line x1="116" x2="174" y1="122" y2="122" class="net_2"/>
  <line x1="174" x2="164" y1="122" y2="122" class="net_2"/>
  <line x1="164" x2="164" y1="122" y2="82" class="net_2"/>
  <line x1="164" x2="278" y1="82" y2="82" class="net_2"/>
  <circle cx="164" cy="122" r="2" style="fill:#000" class="net_2"/>
  <line x1="278" x2="278" y1="82" y2="122" class="net_2"/>
  <line x1="92" x2="82" y1="92" y2="92" class="net_3"/>
  <line x1="82" x2="82" y1="92" y2="142" class="net_3"/>
  <circle cx="82" cy="92" r="2" style="fill:#000" class="net_3"/>
  <line x1="82" x2="254" y1="142" y2="142" class="net_3"/>
  <line x1="92" x2="42" y1="92" y2="92" class="net_3"/>
</svg>
