<svg xmlns="http://www.w3.org/2000/svg" xmlns:xlink="http://www.w3.org/1999/xlink" xmlns:s="https://github.com/nturley/netlistsvg" width="235" height="199.03999999999996">
  <style>svg {
    stroke: #000;
    fill: none;
  }
  text {
    fill: #000;
    stroke: none;
    font-size: 10px;
    font-weight: bold;
    font-family: "Courier New", monospace;
  }
  .nodelabel {
    text-anchor: middle;
  }
  .inputPortLabel {
    text-anchor: end;
  }
  .splitjoinBody {
    fill: #000;
  }
  .symbol {
    stroke-linejoin: round;
    stroke-linecap: round;
    stroke-width: 2;
  }
  .detail {
    stroke-linejoin: round;
    stroke-linecap: round;
    fill: #000;
  }</style>
  <g s:type="resistor_v" s:width="10" s:height="50" transform="translate(92,47.039999999999964)" id="cell_R1">
    <s:alias val="r_v"/>
    <text x="15" y="15" s:attribute="ref" class="cell_R1">R1</text>
    <text x="15" y="30" s:attribute="value" class="cell_R1">1k</text>
    <path d="M0,10 V40 H10 V10 Z" class="symbol cell_R1"/>
    <path d="M5,0 V10 M5,40 V50" class="connect cell_R1"/>
    <g s:x="5" s:y="0" s:pid="A" s:position="top"/>
    <g s:x="5" s:y="50" s:pid="B" s:position="bottom"/>
  </g>
  <g s:type="inductor_v" s:width="10" s:height="50" transform="translate(119,117.03999999999996)" id="cell_L1">
    <s:alias val="l_v"/>
    <text x="15" y="15" s:attribute="ref" class="cell_L1">L1</text>
    <text x="15" y="35" s:attribute="value" class="cell_L1">10mH</text>
    <path d="M5,5 A5,5 0 0 1 5,15 A5,5 0 0 1 5,25 A5,5 0 0 1 5,35 A5,5 0 0 1 5,45" class="cell_L1"/>
    <path d="M5,0 V5 M5,45 V50" class="connect cell_L1"/>
    <g s:x="5" s:y="0" s:pid="A" s:position="top"/>
    <g s:x="5" s:y="50" s:pid="B" s:position="bottom"/>
  </g>
  <g s:type="gnd" s:width="20" s:height="30" transform="translate(193,107.03999999999996)" id="cell_gnd_1">
    <s:alias val="gnd"/>
    <text x="30" y="20" class="nodelabel cell_gnd_1" s:attribute="name">GND</text>
    <path d="M0,0 H20 M3,5 H17 M7,10 H13 M10,0 V-15" class="cell_gnd_1"/>
    <g s:x="10" s:y="-15" s:pid="A" s:position="top"/>
  </g>
  <g s:type="capacitor_v" s:width="30" s:height="50" transform="translate(188,22.039999999999964)" id="cell_C1">
    <s:alias val="c_v"/>
    <text x="25" y="10" s:attribute="ref" class="cell_C1">C1</text>
    <text x="25" y="45" s:attribute="value" class="cell_C1">100nF</text>
    <path d="M0,20 H30 M0,30 H30" class="symbol cell_C1"/>
    <path d="M15,0 V20 M15,30 V50" class="connect cell_C1"/>
    <g s:x="15" s:y="0" s:pid="A" s:position="top"/>
    <g s:x="15" s:y="50" s:pid="B" s:position="bottom"/>
  </g>
  <g s:type="inputExt" s:width="30" s:height="20" transform="translate(12,27.039999999999964)" id="cell_VIN">
    <text x="15" y="-4" class="cell_VIN" s:attribute="ref">VIN</text>
    <s:alias val="$_inputExt_"/>
    <path d="M0,0 V20 H15 L30,10 15,0 Z" class="cell_VIN"/>
    <g s:x="30" s:y="10" s:pid="Y" s:position="right"/>
  </g>
  <g s:type="outputExt" s:width="30" s:height="20" transform="translate(193,167.03999999999996)" id="cell_VOUT">
    <text x="15" y="-4" class="cell_VOUT" s:attribute="ref">VOUT</text>
    <s:alias val="$_outputExt_"/>
    <path d="M30,0 V20 H15 L0,10 15,0 Z" class="cell_VOUT"/>
    <g s:x="0" s:y="10" s:pid="A" s:position="left"/>
  </g>
  <line x1="42" x2="97" y1="37.039999999999964" y2="37.039999999999964" class="net_2"/>
  <line x1="97" x2="97" y1="37.039999999999964" y2="47.039999999999964" class="net_2"/>
  <line x1="97" x2="97" y1="97.03999999999996" y2="107.03999999999996" class="net_3"/>
  <line x1="97" x2="124" y1="107.03999999999996" y2="107.03999999999996" class="net_3"/>
  <line x1="124" x2="124" y1="107.03999999999996" y2="117.03999999999996" class="net_3"/>
  <line x1="97" x2="97" y1="97.03999999999996" y2="107.03999999999996" class="net_3"/>
  <line x1="97" x2="114" y1="107.03999999999996" y2="107.03999999999996" class="net_3"/>
  <line x1="114" x2="114" y1="107.03999999999996" y2="12.039999999999964" class="net_3"/>
  <line x1="114" x2="203" y1="12.039999999999964" y2="12.039999999999964" class="net_3"/>
  <circle cx="114" cy="107.03999999999996" r="2" style="fill:#000" class="net_3"/>
  <line x1="203" x2="203" y1="12.039999999999964" y2="22.039999999999964" class="net_3"/>
  <line x1="203" x2="203" y1="72.03999999999996" y2="82.03999999999996" class="net_5"/>
  <line x1="203" x2="203" y1="82.03999999999996" y2="82.03999999999996" class="net_5"/>
  <line x1="203" x2="203" y1="82.03999999999996" y2="92.03999999999996" class="net_5"/>
  <line x1="124" x2="124" y1="167.03999999999996" y2="177.03999999999996" class="net_4"/>
  <line x1="124" x2="193" y1="177.03999999999996" y2="177.03999999999996" class="net_4"/>
</svg>
