<svg xmlns="http://www.w3.org/2000/svg" xmlns:xlink="http://www.w3.org/1999/xlink" xmlns:s="https://github.com/nturley/netlistsvg" width="901" height="881">
  <style>svg {
    stroke: #000;
    fill: none;
  }
  text {
    fill: #000;
    stroke: none;
    font-size: 10px;
    font-weight: bold;
    font-family: "Courier New", monospace;
  }
  .nodelabel {
    text-anchor: middle;
  }
  .inputPortLabel {
    text-anchor: end;
  }
  .splitjoinBody {
    fill: #000;
  }
  .symbol {
    stroke-linejoin: round;
    stroke-linecap: round;
    stroke-width: 2;
  }
  .detail {
    stroke-linejoin: round;
    stroke-linecap: round;
    fill: #000;
  }</style>
  <g s:type="vcc" s:width="20" s:height="30" transform="translate(228,577)" id="cell_vcc_1">
    <s:alias val="vcc"/>
    <text x="10" y="-4" class="nodelabel cell_vcc_1" s:attribute="name">VCC</text>
    <path d="M0,0 H20 L10,15 Z M10,15 V30" class="cell_vcc_1"/>
    <g s:x="10" s:y="30" s:pid="A" s:position="bottom"/>
  </g>
  <g s:type="diff_pair_active_load_npn" s:width="90" s:height="100" transform="translate(194,622)" id="cell_DPAL_1">
    <s:alias val="diff_pair_active_load_npn"/>
    <text x="50" y="-4" class="nodelabel cell_DPAL_1" s:attribute="ref">DPAL_1</text>
    <text x="78" y="50" class="cell_DPAL_1" style="font-size:7px" s:attribute="value">NPN 差分对+有源负载</text>
    <rect x="0" y="0" width="90" height="100" rx="4" ry="4" class="symbol cell_DPAL_1" style="stroke-dasharray:4,2;stroke-width:1"/>
    <circle r="10" cx="24" cy="18" class="symbol cell_DPAL_1"/>
    <path d="M14,18 H18 M18,12 V24" class="detail cell_DPAL_1"/>
    <path d="m18,14 8,-6" class="detail cell_DPAL_1"/>
    <path d="m18,22 8,6" class="detail cell_DPAL_1"/>
    <path d="m20,13 4,-1 -2,-3 z" style="fill:#000" class="cell_DPAL_1"/>
    <path d="M26,8 V0 M26,28 V40" class="cell_DPAL_1"/>
    <path d="M26,28 H14 V18" class="cell_DPAL_1" style="stroke-dasharray:2,2"/>
    <circle r="10" cx="64" cy="18" class="symbol cell_DPAL_1"/>
    <path d="M74,18 H70 M70,12 V24" class="detail cell_DPAL_1"/>
    <path d="m70,14 -8,-6" class="detail cell_DPAL_1"/>
    <path d="m70,22 -8,6" class="detail cell_DPAL_1"/>
    <path d="m68,13 -4,-1 2,-3 z" style="fill:#000" class="cell_DPAL_1"/>
    <path d="M62,8 V0 M62,28 V40" class="cell_DPAL_1"/>
    <path d="M14,18 H74" class="cell_DPAL_1"/>
    <path d="M26,0 H62 M44,0 V0" class="cell_DPAL_1"/>
    <circle r="10" cx="22" cy="58" class="symbol cell_DPAL_1"/>
    <path d="M12,58 H16 M16,52 V64" class="detail cell_DPAL_1"/>
    <path d="m16,54 8,-6" class="detail cell_DPAL_1"/>
    <path d="m16,62 8,6" class="detail cell_DPAL_1"/>
    <path d="m24,68 -4,-1 2,-3 z" style="fill:#000" class="cell_DPAL_1"/>
    <path d="M24,48 V40 H26 M24,68 V82" class="cell_DPAL_1"/>
    <path d="M12,58 H0" class="cell_DPAL_1"/>
    <circle r="10" cx="66" cy="58" class="symbol cell_DPAL_1"/>
    <path d="M76,58 H72 M72,52 V64" class="detail cell_DPAL_1"/>
    <path d="m72,54 -8,-6" class="detail cell_DPAL_1"/>
    <path d="m72,62 -8,6" class="detail cell_DPAL_1"/>
    <path d="m64,68 4,-1 -2,-3 z" style="fill:#000" class="cell_DPAL_1"/>
    <path d="M64,48 V40 H62 M64,68 V82" class="cell_DPAL_1"/>
    <path d="M76,58 H90" class="cell_DPAL_1"/>
    <path d="M24,82 H64 M44,82 V100" class="cell_DPAL_1"/>
    <path d="M62,40 H90" class="cell_DPAL_1"/>
    <path d="M0,40 H26" class="cell_DPAL_1"/>
    <g s:x="44" s:y="0" s:pid="VCC" s:position="top"/>
    <g s:x="0" s:y="58" s:pid="INP" s:position="left"/>
    <g s:x="90" s:y="58" s:pid="INN" s:position="right"/>
    <g s:x="90" s:y="40" s:pid="OUT" s:position="right"/>
    <g s:x="44" s:y="100" s:pid="TAIL" s:position="bottom"/>
    <g s:x="0" s:y="40" s:pid="MIRR" s:position="left"/>
  </g>
  <g s:type="vbe_multiplier" s:width="50" s:height="80" transform="translate(394,137)" id="cell_VBE_1">
    <s:alias val="vbe_multiplier"/>
    <text x="30" y="-4" class="nodelabel cell_VBE_1" s:attribute="ref">VBE_1</text>
    <text x="38" y="40" class="cell_VBE_1" style="font-size:7px" s:attribute="value">Vbe 乘法器</text>
    <rect x="0" y="0" width="50" height="80" rx="4" ry="4" class="symbol cell_VBE_1" style="stroke-dasharray:4,2;stroke-width:1"/>
    <circle r="12" cx="16" cy="40" class="symbol cell_VBE_1"/>
    <path d="M4,40 H10 M10,32 V48" class="detail cell_VBE_1"/>
    <path d="m10,35 9,-7" class="detail cell_VBE_1"/>
    <path d="m10,45 9,7" class="detail cell_VBE_1"/>
    <path d="m19,52 -5,-1 2,-4 z" style="fill:#000" class="cell_VBE_1"/>
    <path d="M19,28 V8 H25 V0" class="cell_VBE_1"/>
    <path d="M19,52 V72 H25 V80" class="cell_VBE_1"/>
    <rect x="32" y="14" width="8" height="22" class="symbol cell_VBE_1"/>
    <text x="44" y="28" style="font-size:6px" class="cell_VBE_1">R1</text>
    <path d="M36,0 V14 M36,36 V40" class="cell_VBE_1"/>
    <rect x="32" y="44" width="8" height="22" class="symbol cell_VBE_1"/>
    <text x="44" y="58" style="font-size:6px" class="cell_VBE_1">R2</text>
    <path d="M36,40 V44 M36,66 V80" class="cell_VBE_1"/>
    <path d="M4,40 H36" class="cell_VBE_1"/>
    <path d="M25,0 H36 M25,80 H36" class="cell_VBE_1"/>
    <g s:x="25" s:y="0" s:pid="TOP" s:position="top"/>
    <g s:x="25" s:y="80" s:pid="BOT" s:position="bottom"/>
  </g>
  <g s:type="vcc" s:width="20" s:height="30" transform="translate(485,187)" id="cell_vcc_2">
    <s:alias val="vcc"/>
    <text x="10" y="-4" class="nodelabel cell_vcc_2" s:attribute="name">VCC</text>
    <path d="M0,0 H20 L10,15 Z M10,15 V30" class="cell_vcc_2"/>
    <g s:x="10" s:y="30" s:pid="A" s:position="bottom"/>
  </g>
  <g s:type="vee" s:width="20" s:height="30" transform="translate(485,387)" id="cell_vee_3">
    <s:alias val="vee"/>
    <text x="10" y="10" class="nodelabel cell_vee_3" s:attribute="name">VEE</text>
    <path d="M0,0 H20 L10,-15 Z M10,-15 V-30" class="cell_vee_3"/>
    <g s:x="10" s:y="-30" s:pid="A" s:position="top"/>
  </g>
  <g s:type="push_pull_bjt" s:width="50" s:height="80" transform="translate(466,247)" id="cell_PP_1">
    <s:alias val="push_pull_bjt"/>
    <text x="30" y="-4" class="nodelabel cell_PP_1" s:attribute="ref">PP_1</text>
    <text x="38" y="40" class="cell_PP_1" style="font-size:7px" s:attribute="value">BJT 推挽输出</text>
    <rect x="0" y="0" width="50" height="80" rx="4" ry="4" class="symbol cell_PP_1" style="stroke-dasharray:4,2;stroke-width:1"/>
    <circle r="12" cx="26" cy="20" class="symbol cell_PP_1"/>
    <path d="M14,20 H20 M20,12 V28" class="detail cell_PP_1"/>
    <path d="m20,15 9,-7" class="detail cell_PP_1"/>
    <path d="m20,25 9,7" class="detail cell_PP_1"/>
    <path d="m29,32 -5,-1 2,-4 z" style="fill:#000" class="cell_PP_1"/>
    <path d="M14,20 H0" class="cell_PP_1"/>
    <path d="M29,32 H50" class="cell_PP_1"/>
    <circle r="12" cx="26" cy="60" class="symbol cell_PP_1"/>
    <path d="M14,60 H20 M20,52 V68" class="detail cell_PP_1"/>
    <path d="m20,55 9,-7" class="detail cell_PP_1"/>
    <path d="m20,65 9,7" class="detail cell_PP_1"/>
    <path d="m22,54 5,-1 -2,-4 z" style="fill:#000" class="cell_PP_1"/>
    <path d="M14,60 H0" class="cell_PP_1"/>
    <path d="M29,48 H50" class="cell_PP_1"/>
    <path d="M29,8 V0" class="cell_PP_1"/>
    <path d="M29,72 V80" class="cell_PP_1"/>
    <g s:x="0" s:y="20" s:pid="IN_HI" s:position="left"/>
    <g s:x="0" s:y="60" s:pid="IN_LO" s:position="left"/>
    <g s:x="50" s:y="32" s:pid="OUT_HI" s:position="right"/>
    <g s:x="50" s:y="48" s:pid="OUT_LO" s:position="right"/>
    <g s:x="29" s:y="0" s:pid="SUPPLY_HI" s:position="top"/>
    <g s:x="29" s:y="80" s:pid="SUPPLY_LO" s:position="bottom"/>
  </g>
  <g s:type="vcc" s:width="20" s:height="30" transform="translate(646,387)" id="cell_vcc_4">
    <s:alias val="vcc"/>
    <text x="10" y="-4" class="nodelabel cell_vcc_4" s:attribute="name">VCC</text>
    <path d="M0,0 H20 L10,15 Z M10,15 V30" class="cell_vcc_4"/>
    <g s:x="10" s:y="30" s:pid="A" s:position="bottom"/>
  </g>
  <g s:type="vee" s:width="20" s:height="30" transform="translate(646,577)" id="cell_vee_5">
    <s:alias val="vee"/>
    <text x="10" y="10" class="nodelabel cell_vee_5" s:attribute="name">VEE</text>
    <path d="M0,0 H20 L10,-15 Z M10,-15 V-30" class="cell_vee_5"/>
    <g s:x="10" s:y="-30" s:pid="A" s:position="top"/>
  </g>
  <g s:type="push_pull_bjt" s:width="50" s:height="80" transform="translate(627,447)" id="cell_PP_2">
    <s:alias val="push_pull_bjt"/>
    <text x="30" y="-4" class="nodelabel cell_PP_2" s:attribute="ref">PP_2</text>
    <text x="38" y="40" class="cell_PP_2" style="font-size:7px" s:attribute="value">BJT 推挽输出</text>
    <rect x="0" y="0" width="50" height="80" rx="4" ry="4" class="symbol cell_PP_2" style="stroke-dasharray:4,2;stroke-width:1"/>
    <circle r="12" cx="26" cy="20" class="symbol cell_PP_2"/>
    <path d="M14,20 H20 M20,12 V28" class="detail cell_PP_2"/>
    <path d="m20,15 9,-7" class="detail cell_PP_2"/>
    <path d="m20,25 9,7" class="detail cell_PP_2"/>
    <path d="m29,32 -5,-1 2,-4 z" style="fill:#000" class="cell_PP_2"/>
    <path d="M14,20 H0" class="cell_PP_2"/>
    <path d="M29,32 H50" class="cell_PP_2"/>
    <circle r="12" cx="26" cy="60" class="symbol cell_PP_2"/>
    <path d="M14,60 H20 M20,52 V68" class="detail cell_PP_2"/>
    <path d="m20,55 9,-7" class="detail cell_PP_2"/>
    <path d="m20,65 9,7" class="detail cell_PP_2"/>
    <path d="m22,54 5,-1 -2,-4 z" style="fill:#000" class="cell_PP_2"/>
    <path d="M14,60 H0" class="cell_PP_2"/>
    <path d="M29,48 H50" class="cell_PP_2"/>
    <path d="M29,8 V0" class="cell_PP_2"/>
    <path d="M29,72 V80" class="cell_PP_2"/>
    <g s:x="0" s:y="20" s:pid="IN_HI" s:position="left"/>
    <g s:x="0" s:y="60" s:pid="IN_LO" s:position="left"/>
    <g s:x="50" s:y="32" s:pid="OUT_HI" s:position="right"/>
    <g s:x="50" s:y="48" s:pid="OUT_LO" s:position="right"/>
    <g s:x="29" s:y="0" s:pid="SUPPLY_HI" s:position="top"/>
    <g s:x="29" s:y="80" s:pid="SUPPLY_LO" s:position="bottom"/>
  </g>
  <g s:type="gnd" s:width="20" s:height="30" transform="translate(18,627)" id="cell_gnd_6">
    <s:alias val="gnd"/>
    <text x="30" y="20" class="nodelabel cell_gnd_6" s:attribute="name">GND</text>
    <path d="M0,0 H20 M3,5 H17 M7,10 H13 M10,0 V-15" class="cell_gnd_6"/>
    <g s:x="10" s:y="-15" s:pid="A" s:position="top"/>
  </g>
  <g s:type="voltage_source" s:width="32" s:height="52" transform="translate(12,551)" id="cell_VIN">
    <s:alias val="v"/>
    <text x="35" y="20" s:attribute="ref" class="cell_VIN">VIN</text>
    <text x="35" y="35" s:attribute="value" class="cell_VIN">1</text>
    <circle cx="16" cy="26" r="16" class="symbol cell_VIN"/>
    <path d="M12,22 H20 M16,18 V26" class="detail cell_VIN"/>
    <path d="M12,33 H20" class="detail cell_VIN"/>
    <path d="M16,0 V10 M16,42 V52" class="connect cell_VIN"/>
    <g s:x="16" s:y="0" s:pid="+" s:position="top"/>
    <g s:x="16" s:y="52" s:pid="-" s:position="bottom"/>
  </g>
  <g s:type="resistor_v" s:width="10" s:height="50" transform="translate(701,552)" id="cell_RF">
    <s:alias val="r_v"/>
    <text x="15" y="15" s:attribute="ref" class="cell_RF">RF</text>
    <text x="15" y="30" s:attribute="value" class="cell_RF">22k</text>
    <path d="M0,10 V40 H10 V10 Z" class="symbol cell_RF"/>
    <path d="M5,0 V10 M5,40 V50" class="connect cell_RF"/>
    <g s:x="5" s:y="0" s:pid="A" s:position="top"/>
    <g s:x="5" s:y="50" s:pid="B" s:position="bottom"/>
  </g>
  <g s:type="gnd" s:width="20" s:height="30" transform="translate(696,839)" id="cell_gnd_7">
    <s:alias val="gnd"/>
    <text x="30" y="20" class="nodelabel cell_gnd_7" s:attribute="name">GND</text>
    <path d="M0,0 H20 M3,5 H17 M7,10 H13 M10,0 V-15" class="cell_gnd_7"/>
    <g s:x="10" s:y="-15" s:pid="A" s:position="top"/>
  </g>
  <g s:type="resistor_v" s:width="10" s:height="50" transform="translate(701,753)" id="cell_RG">
    <s:alias val="r_v"/>
    <text x="15" y="15" s:attribute="ref" class="cell_RG">RG</text>
    <text x="15" y="30" s:attribute="value" class="cell_RG">1k</text>
    <path d="M0,10 V40 H10 V10 Z" class="symbol cell_RG"/>
    <path d="M5,0 V10 M5,40 V50" class="connect cell_RG"/>
    <g s:x="5" s:y="0" s:pid="A" s:position="top"/>
    <g s:x="5" s:y="50" s:pid="B" s:position="bottom"/>
  </g>
  <g s:type="resistor_v" s:width="10" s:height="50" transform="translate(79,552)" id="cell_RIN">
    <s:alias val="r_v"/>
    <text x="15" y="15" s:attribute="ref" class="cell_RIN">RIN</text>
    <text x="15" y="30" s:attribute="value" class="cell_RIN">1k</text>
    <path d="M0,10 V40 H10 V10 Z" class="symbol cell_RIN"/>
    <path d="M5,0 V10 M5,40 V50" class="connect cell_RIN"/>
    <g s:x="5" s:y="0" s:pid="A" s:position="top"/>
    <g s:x="5" s:y="50" s:pid="B" s:position="bottom"/>
  </g>
  <g s:type="vee" s:width="20" s:height="30" transform="translate(640,839)" id="cell_vee_8">
    <s:alias val="vee"/>
    <text x="10" y="10" class="nodelabel cell_vee_8" s:attribute="name">VEE</text>
    <path d="M0,0 H20 L10,-15 Z M10,-15 V-30" class="cell_vee_8"/>
    <g s:x="10" s:y="-30" s:pid="A" s:position="top"/>
  </g>
  <g s:type="current_source" s:width="32" s:height="52" transform="translate(634,752)" id="cell_ITAIL">
    <s:alias val="i"/>
    <text x="35" y="20" s:attribute="ref" class="cell_ITAIL">ITAIL</text>
    <text x="35" y="35" s:attribute="value" class="cell_ITAIL">2mA</text>
    <circle cx="16" cy="26" r="16" class="symbol cell_ITAIL"/>
    <path d="M16,34 V18" class="detail cell_ITAIL"/>
    <path d="m13,22 3,-5 3,5 z" style="fill:#000" class="cell_ITAIL"/>
    <path d="M16,0 V10 M16,42 V52" class="connect cell_ITAIL"/>
    <g s:x="16" s:y="0" s:pid="+" s:position="top"/>
    <g s:x="16" s:y="52" s:pid="-" s:position="bottom"/>
  </g>
  <g s:type="gnd" s:width="20" s:height="30" transform="translate(163,839)" id="cell_gnd_9">
    <s:alias val="gnd"/>
    <text x="30" y="20" class="nodelabel cell_gnd_9" s:attribute="name">GND</text>
    <path d="M0,0 H20 M3,5 H17 M7,10 H13 M10,0 V-15" class="cell_gnd_9"/>
    <g s:x="10" s:y="-15" s:pid="A" s:position="top"/>
  </g>
  <g s:type="resistor_v" s:width="10" s:height="50" transform="translate(168,753)" id="cell_RCM1">
    <s:alias val="r_v"/>
    <text x="15" y="15" s:attribute="ref" class="cell_RCM1">RCM1</text>
    <text x="15" y="30" s:attribute="value" class="cell_RCM1">100Meg</text>
    <path d="M0,10 V40 H10 V10 Z" class="symbol cell_RCM1"/>
    <path d="M5,0 V10 M5,40 V50" class="connect cell_RCM1"/>
    <g s:x="5" s:y="0" s:pid="A" s:position="top"/>
    <g s:x="5" s:y="50" s:pid="B" s:position="bottom"/>
  </g>
  <g s:type="gnd" s:width="20" s:height="30" transform="translate(284,839)" id="cell_gnd_10">
    <s:alias val="gnd"/>
    <text x="30" y="20" class="nodelabel cell_gnd_10" s:attribute="name">GND</text>
    <path d="M0,0 H20 M3,5 H17 M7,10 H13 M10,0 V-15" class="cell_gnd_10"/>
    <g s:x="10" s:y="-15" s:pid="A" s:position="top"/>
  </g>
  <g s:type="resistor_v" s:width="10" s:height="50" transform="translate(289,753)" id="cell_RCM2">
    <s:alias val="r_v"/>
    <text x="15" y="15" s:attribute="ref" class="cell_RCM2">RCM2</text>
    <text x="15" y="30" s:attribute="value" class="cell_RCM2">100Meg</text>
    <path d="M0,10 V40 H10 V10 Z" class="symbol cell_RCM2"/>
    <path d="M5,0 V10 M5,40 V50" class="connect cell_RCM2"/>
    <g s:x="5" s:y="0" s:pid="A" s:position="top"/>
    <g s:x="5" s:y="50" s:pid="B" s:position="bottom"/>
  </g>
  <g s:type="transistor_npn" s:width="32" s:height="32" transform="translate(137,266)" id="cell_Q5">
    <s:alias val="q_npn"/>
    <text x="35" y="10" s:attribute="ref" class="cell_Q5">Q5</text>
    <text x="35" y="25" s:attribute="value" class="cell_Q5">QNPN</text>
    <circle r="16" cx="16" cy="16" class="symbol cell_Q5"/>
    <path d="M0,16 H12 M12,6 V26" class="detail cell_Q5"/>
    <path d="m12,10 11,-8" class="detail cell_Q5"/>
    <path d="m12,21 11,8" class="detail cell_Q5"/>
    <path d="m23,29 -6,-1 3,-5 z" style="fill:#000" class="cell_Q5"/>
    <g s:x="22" s:y="2" s:pid="C" s:position="top"/>
    <g s:x="0" s:y="16" s:pid="B" s:position="left"/>
    <g s:x="23" s:y="29" s:pid="E" s:position="bottom"/>
  </g>
  <g s:type="vee" s:width="20" s:height="30" transform="translate(150,467)" id="cell_vee_11">
    <s:alias val="vee"/>
    <text x="10" y="10" class="nodelabel cell_vee_11" s:attribute="name">VEE</text>
    <path d="M0,0 H20 L10,-15 Z M10,-15 V-30" class="cell_vee_11"/>
    <g s:x="10" s:y="-30" s:pid="A" s:position="top"/>
  </g>
  <g s:type="resistor_v" s:width="10" s:height="50" transform="translate(155,362)" id="cell_RE5">
    <s:alias val="r_v"/>
    <text x="15" y="15" s:attribute="ref" class="cell_RE5">RE5</text>
    <text x="15" y="30" s:attribute="value" class="cell_RE5">220</text>
    <path d="M0,10 V40 H10 V10 Z" class="symbol cell_RE5"/>
    <path d="M5,0 V10 M5,40 V50" class="connect cell_RE5"/>
    <g s:x="5" s:y="0" s:pid="A" s:position="top"/>
    <g s:x="5" s:y="50" s:pid="B" s:position="bottom"/>
  </g>
  <g s:type="vee" s:width="20" s:height="30" transform="translate(94,467)" id="cell_vee_12">
    <s:alias val="vee"/>
    <text x="10" y="10" class="nodelabel cell_vee_12" s:attribute="name">VEE</text>
    <path d="M0,0 H20 L10,-15 Z M10,-15 V-30" class="cell_vee_12"/>
    <g s:x="10" s:y="-30" s:pid="A" s:position="top"/>
  </g>
  <g s:type="current_source" s:width="32" s:height="52" transform="translate(88,361)" id="cell_IVAS">
    <s:alias val="i"/>
    <text x="35" y="20" s:attribute="ref" class="cell_IVAS">IVAS</text>
    <text x="35" y="35" s:attribute="value" class="cell_IVAS">6mA</text>
    <circle cx="16" cy="26" r="16" class="symbol cell_IVAS"/>
    <path d="M16,34 V18" class="detail cell_IVAS"/>
    <path d="m13,22 3,-5 3,5 z" style="fill:#000" class="cell_IVAS"/>
    <path d="M16,0 V10 M16,42 V52" class="connect cell_IVAS"/>
    <g s:x="16" s:y="0" s:pid="+" s:position="top"/>
    <g s:x="16" s:y="52" s:pid="-" s:position="bottom"/>
  </g>
  <g s:type="capacitor_v" s:width="30" s:height="50" transform="translate(279,147)" id="cell_CCOMP">
    <s:alias val="c_v"/>
    <text x="25" y="10" s:attribute="ref" class="cell_CCOMP">CCOMP</text>
    <text x="25" y="45" s:attribute="value" class="cell_CCOMP">100p</text>
    <path d="M0,20 H30 M0,30 H30" class="symbol cell_CCOMP"/>
    <path d="M15,0 V20 M15,30 V50" class="connect cell_CCOMP"/>
    <g s:x="15" s:y="0" s:pid="A" s:position="top"/>
    <g s:x="15" s:y="50" s:pid="B" s:position="bottom"/>
  </g>
  <g s:type="vcc" s:width="20" s:height="30" transform="translate(284,22)" id="cell_vcc_13">
    <s:alias val="vcc"/>
    <text x="10" y="-4" class="nodelabel cell_vcc_13" s:attribute="name">VCC</text>
    <path d="M0,0 H20 L10,15 Z M10,15 V30" class="cell_vcc_13"/>
    <g s:x="10" s:y="30" s:pid="A" s:position="bottom"/>
  </g>
  <g s:type="resistor_v" s:width="10" s:height="50" transform="translate(289,57)" id="cell_RC5">
    <s:alias val="r_v"/>
    <text x="15" y="15" s:attribute="ref" class="cell_RC5">RC5</text>
    <text x="15" y="30" s:attribute="value" class="cell_RC5">4.7k</text>
    <path d="M0,10 V40 H10 V10 Z" class="symbol cell_RC5"/>
    <path d="M5,0 V10 M5,40 V50" class="connect cell_RC5"/>
    <g s:x="5" s:y="0" s:pid="A" s:position="top"/>
    <g s:x="5" s:y="50" s:pid="B" s:position="bottom"/>
  </g>
  <g s:type="resistor_v" s:width="10" s:height="50" transform="translate(344,147)" id="cell_RBIAS">
    <s:alias val="r_v"/>
    <text x="15" y="15" s:attribute="ref" class="cell_RBIAS">RBIAS</text>
    <text x="15" y="30" s:attribute="value" class="cell_RBIAS">2.2k</text>
    <path d="M0,10 V40 H10 V10 Z" class="symbol cell_RBIAS"/>
    <path d="M5,0 V10 M5,40 V50" class="connect cell_RBIAS"/>
    <g s:x="5" s:y="0" s:pid="A" s:position="top"/>
    <g s:x="5" s:y="50" s:pid="B" s:position="bottom"/>
  </g>
  <g s:type="vee" s:width="20" s:height="30" transform="translate(409,467)" id="cell_vee_14">
    <s:alias val="vee"/>
    <text x="10" y="10" class="nodelabel cell_vee_14" s:attribute="name">VEE</text>
    <path d="M0,0 H20 L10,-15 Z M10,-15 V-30" class="cell_vee_14"/>
    <g s:x="10" s:y="-30" s:pid="A" s:position="top"/>
  </g>
  <g s:type="resistor_v" s:width="10" s:height="50" transform="translate(414,362)" id="cell_RBIAS2">
    <s:alias val="r_v"/>
    <text x="15" y="15" s:attribute="ref" class="cell_RBIAS2">RBIAS2</text>
    <text x="15" y="30" s:attribute="value" class="cell_RBIAS2">2.2k</text>
    <path d="M0,10 V40 H10 V10 Z" class="symbol cell_RBIAS2"/>
    <path d="M5,0 V10 M5,40 V50" class="connect cell_RBIAS2"/>
    <g s:x="5" s:y="0" s:pid="A" s:position="top"/>
    <g s:x="5" s:y="50" s:pid="B" s:position="bottom"/>
  </g>
  <g s:type="resistor_v" s:width="10" s:height="50" transform="translate(540,362)" id="cell_RDP">
    <s:alias val="r_v"/>
    <text x="15" y="15" s:attribute="ref" class="cell_RDP">RDP</text>
    <text x="15" y="30" s:attribute="value" class="cell_RDP">47</text>
    <path d="M0,10 V40 H10 V10 Z" class="symbol cell_RDP"/>
    <path d="M5,0 V10 M5,40 V50" class="connect cell_RDP"/>
    <g s:x="5" s:y="0" s:pid="A" s:position="top"/>
    <g s:x="5" s:y="50" s:pid="B" s:position="bottom"/>
  </g>
  <g s:type="resistor_v" s:width="10" s:height="50" transform="translate(593,362)" id="cell_RDN">
    <s:alias val="r_v"/>
    <text x="15" y="15" s:attribute="ref" class="cell_RDN">RDN</text>
    <text x="15" y="30" s:attribute="value" class="cell_RDN">47</text>
    <path d="M0,10 V40 H10 V10 Z" class="symbol cell_RDN"/>
    <path d="M5,0 V10 M5,40 V50" class="connect cell_RDN"/>
    <g s:x="5" s:y="0" s:pid="A" s:position="top"/>
    <g s:x="5" s:y="50" s:pid="B" s:position="bottom"/>
  </g>
  <g s:type="gnd" s:width="20" s:height="30" transform="translate(749,627)" id="cell_gnd_15">
    <s:alias val="gnd"/>
    <text x="30" y="20" class="nodelabel cell_gnd_15" s:attribute="name">GND</text>
    <path d="M0,0 H20 M3,5 H17 M7,10 H13 M10,0 V-15" class="cell_gnd_15"/>
    <g s:x="10" s:y="-15" s:pid="A" s:position="top"/>
  </g>
  <g s:type="resistor_v" s:width="10" s:height="50" transform="translate(754,552)" id="cell_RE9">
    <s:alias val="r_v"/>
    <text x="15" y="15" s:attribute="ref" class="cell_RE9">RE9</text>
    <text x="15" y="30" s:attribute="value" class="cell_RE9">0.22</text>
    <path d="M0,10 V40 H10 V10 Z" class="symbol cell_RE9"/>
    <path d="M5,0 V10 M5,40 V50" class="connect cell_RE9"/>
    <g s:x="5" s:y="0" s:pid="A" s:position="top"/>
    <g s:x="5" s:y="50" s:pid="B" s:position="bottom"/>
  </g>
  <g s:type="gnd" s:width="20" s:height="30" transform="translate(813,387)" id="cell_gnd_16">
    <s:alias val="gnd"/>
    <text x="30" y="20" class="nodelabel cell_gnd_16" s:attribute="name">GND</text>
    <path d="M0,0 H20 M3,5 H17 M7,10 H13 M10,0 V-15" class="cell_gnd_16"/>
    <g s:x="10" s:y="-15" s:pid="A" s:position="top"/>
  </g>
  <g s:type="resistor_v" s:width="10" s:height="50" transform="translate(754,362)" id="cell_RE10">
    <s:alias val="r_v"/>
    <text x="15" y="15" s:attribute="ref" class="cell_RE10">RE10</text>
    <text x="15" y="30" s:attribute="value" class="cell_RE10">0.22</text>
    <path d="M0,10 V40 H10 V10 Z" class="symbol cell_RE10"/>
    <path d="M5,0 V10 M5,40 V50" class="connect cell_RE10"/>
    <g s:x="5" s:y="0" s:pid="A" s:position="top"/>
    <g s:x="5" s:y="50" s:pid="B" s:position="bottom"/>
  </g>
  <g s:type="gnd" s:width="20" s:height="30" transform="translate(869,627)" id="cell_gnd_17">
    <s:alias val="gnd"/>
    <text x="30" y="20" class="nodelabel cell_gnd_17" s:attribute="name">GND</text>
    <path d="M0,0 H20 M3,5 H17 M7,10 H13 M10,0 V-15" class="cell_gnd_17"/>
    <g s:x="10" s:y="-15" s:pid="A" s:position="top"/>
  </g>
  <g s:type="resistor_v" s:width="10" s:height="50" transform="translate(874,552)" id="cell_RL">
    <s:alias val="r_v"/>
    <text x="15" y="15" s:attribute="ref" class="cell_RL">RL</text>
    <text x="15" y="30" s:attribute="value" class="cell_RL">8</text>
    <path d="M0,10 V40 H10 V10 Z" class="symbol cell_RL"/>
    <path d="M5,0 V10 M5,40 V50" class="connect cell_RL"/>
    <g s:x="5" s:y="0" s:pid="A" s:position="top"/>
    <g s:x="5" s:y="50" s:pid="B" s:position="bottom"/>
  </g>
  <g s:type="resistor_v" s:width="10" s:height="50" transform="translate(814,552)" id="cell_RZ">
    <s:alias val="r_v"/>
    <text x="15" y="15" s:attribute="ref" class="cell_RZ">RZ</text>
    <text x="15" y="30" s:attribute="value" class="cell_RZ">10</text>
    <path d="M0,10 V40 H10 V10 Z" class="symbol cell_RZ"/>
    <path d="M5,0 V10 M5,40 V50" class="connect cell_RZ"/>
    <g s:x="5" s:y="0" s:pid="A" s:position="top"/>
    <g s:x="5" s:y="50" s:pid="B" s:position="bottom"/>
  </g>
  <g s:type="gnd" s:width="20" s:height="30" transform="translate(809,767)" id="cell_gnd_18">
    <s:alias val="gnd"/>
    <text x="30" y="20" class="nodelabel cell_gnd_18" s:attribute="name">GND</text>
    <path d="M0,0 H20 M3,5 H17 M7,10 H13 M10,0 V-15" class="cell_gnd_18"/>
    <g s:x="10" s:y="-15" s:pid="A" s:position="top"/>
  </g>
  <g s:type="capacitor_v" s:width="30" s:height="50" transform="translate(804,642)" id="cell_CZ">
    <s:alias val="c_v"/>
    <text x="25" y="10" s:attribute="ref" class="cell_CZ">CZ</text>
    <text x="25" y="45" s:attribute="value" class="cell_CZ">100n</text>
    <path d="M0,20 H30 M0,30 H30" class="symbol cell_CZ"/>
    <path d="M15,0 V20 M15,30 V50" class="connect cell_CZ"/>
    <g s:x="15" s:y="0" s:pid="A" s:position="top"/>
    <g s:x="15" s:y="50" s:pid="B" s:position="bottom"/>
  </g>
  <g s:type="gnd" s:width="20" s:height="30" transform="translate(74,839)" id="cell_gnd_19">
    <s:alias val="gnd"/>
    <text x="30" y="20" class="nodelabel cell_gnd_19" s:attribute="name">GND</text>
    <path d="M0,0 H20 M3,5 H17 M7,10 H13 M10,0 V-15" class="cell_gnd_19"/>
    <g s:x="10" s:y="-15" s:pid="A" s:position="top"/>
  </g>
  <g s:type="resistor_v" s:width="10" s:height="50" transform="translate(79,753)" id="cell_RBI">
    <s:alias val="r_v"/>
    <text x="15" y="15" s:attribute="ref" class="cell_RBI">RBI</text>
    <text x="15" y="30" s:attribute="value" class="cell_RBI">100k</text>
    <path d="M0,10 V40 H10 V10 Z" class="symbol cell_RBI"/>
    <path d="M5,0 V10 M5,40 V50" class="connect cell_RBI"/>
    <g s:x="5" s:y="0" s:pid="A" s:position="top"/>
    <g s:x="5" s:y="50" s:pid="B" s:position="bottom"/>
  </g>
  <g s:type="inputExt" s:width="30" s:height="20" transform="translate(44,472)" id="cell_IN">
    <text x="15" y="-4" class="cell_IN" s:attribute="ref">IN</text>
    <s:alias val="$_inputExt_"/>
    <path d="M0,0 V20 H15 L30,10 15,0 Z" class="cell_IN"/>
    <g s:x="30" s:y="10" s:pid="Y" s:position="right"/>
  </g>
  <g s:type="outputExt" s:width="30" s:height="20" transform="translate(854,472)" id="cell_OUT">
    <text x="15" y="-4" class="cell_OUT" s:attribute="ref">OUT</text>
    <s:alias val="$_outputExt_"/>
    <path d="M30,0 V20 H15 L0,10 15,0 Z" class="cell_OUT"/>
    <g s:x="0" s:y="10" s:pid="A" s:position="left"/>
  </g>
  <line x1="238" x2="238" y1="607" y2="622" class="net_18"/>
  <line x1="349" x2="349" y1="197" y2="227" class="net_11"/>
  <line x1="349" x2="384" y1="227" y2="227" class="net_11"/>
  <line x1="384" x2="384" y1="227" y2="267" class="net_11"/>
  <circle cx="384" cy="227" r="2" style="fill:#000" class="net_11"/>
  <line x1="384" x2="466" y1="267" y2="267" class="net_11"/>
  <line x1="466" x2="384" y1="267" y2="267" class="net_11"/>
  <line x1="384" x2="384" y1="267" y2="117" class="net_11"/>
  <line x1="384" x2="419" y1="117" y2="117" class="net_11"/>
  <line x1="419" x2="419" y1="117" y2="137" class="net_11"/>
  <line x1="495" x2="495" y1="327" y2="357" class="net_20"/>
  <line x1="495" x2="495" y1="217" y2="247" class="net_19"/>
  <line x1="656" x2="656" y1="527" y2="547" class="net_22"/>
  <line x1="656" x2="656" y1="417" y2="447" class="net_21"/>
  <line x1="28" x2="28" y1="603" y2="612" class="net_23"/>
  <line x1="74" x2="84" y1="482" y2="482" class="net_2"/>
  <line x1="84" x2="84" y1="482" y2="537" class="net_2"/>
  <line x1="84" x2="28" y1="537" y2="537" class="net_2"/>
  <circle cx="84" cy="537" r="2" style="fill:#000" class="net_2"/>
  <line x1="28" x2="28" y1="537" y2="551" class="net_2"/>
  <line x1="74" x2="84" y1="482" y2="482" class="net_2"/>
  <line x1="84" x2="84" y1="482" y2="552" class="net_2"/>
  <line x1="759" x2="759" y1="412" y2="479" class="net_3"/>
  <circle cx="759" cy="479" r="2" style="fill:#000" class="net_3"/>
  <line x1="759" x2="677" y1="479" y2="479" class="net_3"/>
  <line x1="759" x2="759" y1="412" y2="427" class="net_3"/>
  <line x1="759" x2="706" y1="427" y2="427" class="net_3"/>
  <line x1="706" x2="706" y1="427" y2="495" class="net_3"/>
  <circle cx="759" cy="427" r="2" style="fill:#000" class="net_3"/>
  <circle cx="706" cy="495" r="2" style="fill:#000" class="net_3"/>
  <line x1="706" x2="677" y1="495" y2="495" class="net_3"/>
  <line x1="759" x2="759" y1="412" y2="427" class="net_3"/>
  <line x1="759" x2="819" y1="427" y2="427" class="net_3"/>
  <line x1="819" x2="819" y1="427" y2="482" class="net_3"/>
  <circle cx="819" cy="482" r="2" style="fill:#000" class="net_3"/>
  <line x1="819" x2="854" y1="482" y2="482" class="net_3"/>
  <line x1="677" x2="759" y1="479" y2="479" class="net_3"/>
  <line x1="759" x2="759" y1="479" y2="537" class="net_3"/>
  <line x1="759" x2="706" y1="537" y2="537" class="net_3"/>
  <circle cx="759" cy="479" r="2" style="fill:#000" class="net_3"/>
  <line x1="706" x2="706" y1="537" y2="552" class="net_3"/>
  <line x1="677" x2="759" y1="479" y2="479" class="net_3"/>
  <circle cx="759" cy="479" r="2" style="fill:#000" class="net_3"/>
  <line x1="759" x2="759" y1="479" y2="552" class="net_3"/>
  <line x1="677" x2="759" y1="479" y2="479" class="net_3"/>
  <line x1="759" x2="759" y1="479" y2="537" class="net_3"/>
  <line x1="759" x2="879" y1="537" y2="537" class="net_3"/>
  <circle cx="759" cy="479" r="2" style="fill:#000" class="net_3"/>
  <line x1="879" x2="879" y1="537" y2="552" class="net_3"/>
  <line x1="677" x2="759" y1="479" y2="479" class="net_3"/>
  <line x1="759" x2="759" y1="479" y2="537" class="net_3"/>
  <line x1="759" x2="819" y1="537" y2="537" class="net_3"/>
  <circle cx="759" cy="479" r="2" style="fill:#000" class="net_3"/>
  <line x1="819" x2="819" y1="537" y2="552" class="net_3"/>
  <line x1="677" x2="706" y1="495" y2="495" class="net_3"/>
  <circle cx="706" cy="495" r="2" style="fill:#000" class="net_3"/>
  <line x1="706" x2="706" y1="495" y2="552" class="net_3"/>
  <line x1="677" x2="706" y1="495" y2="495" class="net_3"/>
  <line x1="706" x2="706" y1="495" y2="537" class="net_3"/>
  <line x1="706" x2="759" y1="537" y2="537" class="net_3"/>
  <circle cx="706" cy="537" r="2" style="fill:#000" class="net_3"/>
  <circle cx="759" cy="537" r="2" style="fill:#000" class="net_3"/>
  <circle cx="706" cy="495" r="2" style="fill:#000" class="net_3"/>
  <line x1="759" x2="759" y1="537" y2="552" class="net_3"/>
  <line x1="677" x2="706" y1="495" y2="495" class="net_3"/>
  <line x1="706" x2="706" y1="495" y2="537" class="net_3"/>
  <line x1="706" x2="879" y1="537" y2="537" class="net_3"/>
  <circle cx="706" cy="495" r="2" style="fill:#000" class="net_3"/>
  <line x1="879" x2="879" y1="537" y2="552" class="net_3"/>
  <line x1="677" x2="706" y1="495" y2="495" class="net_3"/>
  <line x1="706" x2="706" y1="495" y2="537" class="net_3"/>
  <line x1="706" x2="819" y1="537" y2="537" class="net_3"/>
  <circle cx="819" cy="537" r="2" style="fill:#000" class="net_3"/>
  <circle cx="706" cy="495" r="2" style="fill:#000" class="net_3"/>
  <line x1="819" x2="819" y1="537" y2="552" class="net_3"/>
  <line x1="854" x2="819" y1="482" y2="482" class="net_3"/>
  <line x1="819" x2="819" y1="482" y2="537" class="net_3"/>
  <line x1="819" x2="706" y1="537" y2="537" class="net_3"/>
  <circle cx="819" cy="482" r="2" style="fill:#000" class="net_3"/>
  <line x1="706" x2="706" y1="537" y2="552" class="net_3"/>
  <line x1="854" x2="819" y1="482" y2="482" class="net_3"/>
  <line x1="819" x2="819" y1="482" y2="537" class="net_3"/>
  <line x1="819" x2="759" y1="537" y2="537" class="net_3"/>
  <circle cx="819" cy="482" r="2" style="fill:#000" class="net_3"/>
  <line x1="759" x2="759" y1="537" y2="552" class="net_3"/>
  <line x1="854" x2="819" y1="482" y2="482" class="net_3"/>
  <line x1="819" x2="819" y1="482" y2="537" class="net_3"/>
  <line x1="819" x2="879" y1="537" y2="537" class="net_3"/>
  <circle cx="819" cy="482" r="2" style="fill:#000" class="net_3"/>
  <line x1="879" x2="879" y1="537" y2="552" class="net_3"/>
  <line x1="854" x2="819" y1="482" y2="482" class="net_3"/>
  <circle cx="819" cy="482" r="2" style="fill:#000" class="net_3"/>
  <line x1="819" x2="819" y1="482" y2="552" class="net_3"/>
  <line x1="706" x2="706" y1="803" y2="824" class="net_24"/>
  <line x1="706" x2="706" y1="602" y2="680" class="net_4"/>
  <circle cx="706" cy="680" r="2" style="fill:#000" class="net_4"/>
  <line x1="706" x2="284" y1="680" y2="680" class="net_4"/>
  <line x1="284" x2="706" y1="680" y2="680" class="net_4"/>
  <circle cx="706" cy="680" r="2" style="fill:#000" class="net_4"/>
  <line x1="706" x2="706" y1="680" y2="753" class="net_4"/>
  <line x1="650" x2="650" y1="804" y2="809" class="net_25"/>
  <line x1="238" x2="238" y1="722" y2="732" class="net_7"/>
  <line x1="238" x2="650" y1="732" y2="732" class="net_7"/>
  <line x1="650" x2="650" y1="732" y2="752" class="net_7"/>
  <line x1="173" x2="173" y1="803" y2="824" class="net_26"/>
  <line x1="194" x2="173" y1="662" y2="662" class="net_6"/>
  <line x1="173" x2="173" y1="662" y2="753" class="net_6"/>
  <line x1="294" x2="294" y1="803" y2="824" class="net_27"/>
  <line x1="294" x2="294" y1="197" y2="662" class="net_8"/>
  <circle cx="294" cy="662" r="2" style="fill:#000" class="net_8"/>
  <line x1="294" x2="284" y1="662" y2="662" class="net_8"/>
  <line x1="294" x2="294" y1="197" y2="227" class="net_8"/>
  <line x1="294" x2="127" y1="227" y2="227" class="net_8"/>
  <line x1="127" x2="127" y1="227" y2="282" class="net_8"/>
  <circle cx="294" cy="227" r="2" style="fill:#000" class="net_8"/>
  <circle cx="127" cy="282" r="2" style="fill:#000" class="net_8"/>
  <line x1="127" x2="137" y1="282" y2="282" class="net_8"/>
  <line x1="284" x2="294" y1="662" y2="662" class="net_8"/>
  <circle cx="294" cy="662" r="2" style="fill:#000" class="net_8"/>
  <line x1="294" x2="294" y1="662" y2="753" class="net_8"/>
  <line x1="137" x2="127" y1="282" y2="282" class="net_8"/>
  <line x1="127" x2="127" y1="282" y2="337" class="net_8"/>
  <line x1="127" x2="183" y1="337" y2="337" class="net_8"/>
  <line x1="183" x2="183" y1="337" y2="742" class="net_8"/>
  <line x1="183" x2="294" y1="742" y2="742" class="net_8"/>
  <circle cx="294" cy="742" r="2" style="fill:#000" class="net_8"/>
  <circle cx="127" cy="282" r="2" style="fill:#000" class="net_8"/>
  <line x1="294" x2="294" y1="742" y2="753" class="net_8"/>
  <line x1="294" x2="294" y1="107" y2="117" class="net_9"/>
  <line x1="294" x2="159" y1="117" y2="117" class="net_9"/>
  <circle cx="294" cy="117" r="2" style="fill:#000" class="net_9"/>
  <line x1="159" x2="159" y1="117" y2="268" class="net_9"/>
  <line x1="294" x2="294" y1="107" y2="147" class="net_9"/>
  <line x1="294" x2="294" y1="107" y2="117" class="net_9"/>
  <line x1="294" x2="349" y1="117" y2="117" class="net_9"/>
  <line x1="349" x2="349" y1="117" y2="147" class="net_9"/>
  <line x1="160" x2="160" y1="412" y2="437" class="net_28"/>
  <line x1="160" x2="160" y1="295" y2="362" class="net_10"/>
  <line x1="160" x2="160" y1="295" y2="347" class="net_10"/>
  <line x1="160" x2="104" y1="347" y2="347" class="net_10"/>
  <circle cx="160" cy="347" r="2" style="fill:#000" class="net_10"/>
  <line x1="104" x2="104" y1="347" y2="361" class="net_10"/>
  <line x1="104" x2="104" y1="413" y2="437" class="net_29"/>
  <line x1="294" x2="294" y1="52" y2="57" class="net_30"/>
  <line x1="419" x2="419" y1="412" y2="437" class="net_31"/>
  <line x1="419" x2="419" y1="217" y2="307" class="net_12"/>
  <circle cx="419" cy="307" r="2" style="fill:#000" class="net_12"/>
  <line x1="419" x2="466" y1="307" y2="307" class="net_12"/>
  <line x1="466" x2="419" y1="307" y2="307" class="net_12"/>
  <circle cx="419" cy="307" r="2" style="fill:#000" class="net_12"/>
  <line x1="419" x2="419" y1="307" y2="362" class="net_12"/>
  <line x1="516" x2="545" y1="279" y2="279" class="net_13"/>
  <line x1="545" x2="545" y1="279" y2="362" class="net_13"/>
  <line x1="516" x2="598" y1="295" y2="295" class="net_14"/>
  <line x1="598" x2="598" y1="295" y2="362" class="net_14"/>
  <line x1="759" x2="759" y1="602" y2="612" class="net_32"/>
  <line x1="823" x2="823" y1="337" y2="372" class="net_33"/>
  <line x1="823" x2="759" y1="337" y2="337" class="net_33"/>
  <line x1="759" x2="759" y1="337" y2="362" class="net_33"/>
  <line x1="879" x2="879" y1="602" y2="612" class="net_34"/>
  <line x1="819" x2="819" y1="692" y2="752" class="net_35"/>
  <line x1="819" x2="819" y1="602" y2="642" class="net_17"/>
  <line x1="84" x2="84" y1="803" y2="824" class="net_36"/>
  <line x1="84" x2="84" y1="602" y2="680" class="net_5"/>
  <circle cx="84" cy="680" r="2" style="fill:#000" class="net_5"/>
  <line x1="84" x2="194" y1="680" y2="680" class="net_5"/>
  <line x1="194" x2="84" y1="680" y2="680" class="net_5"/>
  <circle cx="84" cy="680" r="2" style="fill:#000" class="net_5"/>
  <line x1="84" x2="84" y1="680" y2="753" class="net_5"/>
  <line x1="545" x2="545" y1="412" y2="467" class="net_15"/>
  <line x1="545" x2="627" y1="467" y2="467" class="net_15"/>
  <line x1="598" x2="598" y1="412" y2="507" class="net_16"/>
  <line x1="598" x2="627" y1="507" y2="507" class="net_16"/>
</svg>
